{"glyphs":{"0":{"ha":781,"x_min":56,"x_max":725,"o":"m 576 304 q 565 436 576 375 q 531 542 554 497 q 469 611 507 586 q 376 636 431 636 q 296 613 329 636 q 241 550 263 590 q 210 456 219 510 q 200 343 200 403 q 211 210 200 271 q 246 103 222 149 q 307 33 269 58 q 399 8 344 8 q 480 31 446 8 q 535 94 514 54 q 567 189 557 135 q 576 304 576 243 m 360 -21 q 235 3 290 -21 q 139 72 179 28 q 77 177 99 115 q 56 313 56 239 q 147 551 56 468 q 419 668 239 635 q 545 644 489 668 q 642 576 601 619 q 703 471 682 532 q 725 336 725 410 q 633 94 725 179 q 360 -21 540 8 z "},"1":{"ha":583,"x_min":40,"x_max":556,"o":"m 49 521 l 44 535 l 354 665 l 368 665 l 368 22 l 556 14 l 556 0 l 40 0 l 40 14 l 236 22 l 236 589 l 49 521 z "},"2":{"ha":646,"x_min":28,"x_max":604,"o":"m 181 118 l 604 118 l 604 106 l 565 0 l 36 0 l 28 13 l 178 131 q 299 237 253 188 q 371 330 344 286 q 406 411 397 374 q 415 483 415 449 q 405 555 415 526 q 378 601 394 583 q 339 627 361 619 q 293 635 317 635 q 244 628 265 635 q 208 614 222 621 l 169 433 l 50 433 l 50 561 l 326 679 q 437 665 392 679 q 510 626 482 650 q 550 569 538 601 q 563 503 563 538 q 483 323 561 408 q 257 156 404 238 l 181 118 z "},"3":{"ha":660,"x_min":36,"x_max":593,"o":"m 39 -319 l 39 -196 l 360 -196 q 426 -115 403 -156 q 450 -15 450 -75 q 433 62 450 25 q 383 127 417 99 q 300 172 350 156 q 185 189 250 189 l 182 206 l 254 246 q 342 300 310 272 q 392 356 375 328 q 415 413 410 383 q 419 474 419 442 q 383 585 419 543 q 290 628 347 628 q 241 620 267 628 q 200 606 215 613 l 150 428 l 36 428 l 36 567 l 361 679 q 455 663 417 679 q 517 622 493 647 q 551 567 540 597 q 563 510 563 538 q 551 445 563 478 q 510 381 539 413 q 432 321 481 350 q 311 265 383 292 q 428 244 375 263 q 517 197 481 226 q 573 130 553 168 q 593 50 593 92 q 534 -101 593 -37 q 361 -221 475 -164 l 161 -319 l 39 -319 z "},"4":{"ha":746,"x_min":15,"x_max":732,"o":"m 543 18 l 732 18 l 732 -1 l 543 -1 l 543 -318 l 411 -318 l 411 -1 l 26 -1 l 15 15 l 433 654 l 603 654 l 603 640 l 40 18 l 411 18 l 411 260 l 543 336 l 543 18 z "},"5":{"ha":657,"x_min":57,"x_max":607,"o":"m 143 540 l 104 172 l 383 322 q 483 306 442 322 q 552 261 525 289 q 592 197 579 233 q 606 121 606 161 q 584 8 606 57 q 526 -79 563 -40 q 440 -149 489 -118 q 336 -210 390 -181 l 136 -315 l 57 -315 l 57 -192 l 315 -192 q 426 -81 390 -142 q 461 67 461 -21 q 453 130 461 100 q 428 183 446 160 q 383 219 411 206 q 315 232 356 232 q 276 230 294 232 q 240 222 258 228 q 199 207 221 217 q 147 181 176 197 l 90 150 l 83 157 l 136 658 l 607 658 l 590 540 l 143 540 z "},"6":{"ha":760,"x_min":60,"x_max":693,"o":"m 460 622 q 567 598 522 622 q 640 535 611 574 q 681 449 668 497 q 693 356 693 401 q 674 233 693 292 q 615 125 656 174 q 512 39 575 76 q 360 -21 449 1 q 228 11 285 -21 q 135 97 172 43 q 78 220 97 150 q 60 365 60 290 q 87 558 60 461 q 175 740 114 654 q 333 893 236 825 q 571 1000 431 961 l 576 988 q 389 889 460 946 q 278 763 318 832 q 224 615 239 694 q 208 449 210 536 l 208 431 l 460 622 m 549 294 q 511 475 549 413 q 415 538 474 538 q 337 510 375 538 q 247 443 299 483 l 210 414 q 225 253 213 326 q 260 126 238 179 q 317 44 283 74 q 392 14 350 14 q 509 81 469 14 q 549 294 549 147 z "},"7":{"ha":658,"x_min":28,"x_max":631,"o":"m 28 658 l 619 658 l 631 646 l 232 -314 l 126 -314 l 126 -301 l 568 535 l 28 535 l 28 658 z "},"8":{"ha":738,"x_min":67,"x_max":672,"o":"m 351 -21 q 243 -6 294 -21 q 153 38 192 8 q 90 113 114 68 q 67 217 67 157 q 85 302 67 264 q 135 372 104 340 q 207 428 167 403 q 289 475 247 454 l 215 538 q 169 581 192 557 q 128 631 146 604 q 99 688 110 658 q 89 749 89 717 q 164 901 89 843 q 381 994 239 958 q 587 942 517 994 q 657 799 657 890 q 601 659 657 719 q 440 546 546 599 l 549 457 q 636 365 600 415 q 672 249 672 314 q 594 78 672 140 q 351 -21 515 15 m 421 561 q 501 674 483 619 q 519 788 519 729 q 476 915 519 867 q 358 964 433 964 q 264 932 301 964 q 226 835 226 900 q 267 712 226 768 q 392 586 307 656 l 421 561 m 382 10 q 433 17 407 10 q 482 44 460 25 q 518 94 504 63 q 532 174 532 125 q 524 231 532 204 q 499 282 515 257 q 456 332 482 307 q 394 388 431 357 l 311 457 q 231 362 260 414 q 201 243 201 310 q 218 142 201 186 q 260 69 235 99 q 318 25 286 40 q 382 10 350 10 z "},"9":{"ha":758,"x_min":42,"x_max":675,"o":"m 160 -325 q 332 -230 263 -286 q 444 -105 401 -174 q 506 43 488 -36 q 526 210 525 122 l 526 224 l 283 35 q 175 60 221 35 q 99 124 129 85 q 56 212 69 164 q 42 307 42 260 q 61 428 42 371 q 122 533 81 485 q 225 618 163 581 q 375 679 288 656 q 506 647 450 679 q 600 560 563 614 q 656 435 638 506 q 675 290 675 365 q 646 99 675 194 q 555 -81 617 3 q 397 -232 493 -165 q 165 -337 300 -299 l 160 -325 m 188 374 q 228 185 188 247 q 328 124 268 124 q 361 126 347 124 q 390 138 375 129 q 426 163 406 147 q 478 204 446 179 l 526 242 q 511 401 524 328 q 476 528 499 475 q 419 613 453 582 q 344 643 386 643 q 228 577 269 643 q 188 374 188 511 z "},"\u0000":{"ha":0,"x_min":0,"x_max":0,"o":""},"\r":{"ha":444,"x_min":0,"x_max":0,"o":""}," ":{"ha":332,"x_min":0,"x_max":0,"o":""},"!":{"ha":378,"x_min":113,"x_max":265,"o":"m 131 126 l 218 133 l 251 126 l 258 60 l 246 0 l 158 -7 l 125 0 l 118 69 l 131 126 m 254 550 l 203 279 l 175 279 l 122 549 l 113 986 l 265 986 l 254 550 z "},"\"":{"ha":515,"x_min":69,"x_max":453,"o":"m 82 626 l 172 839 l 114 835 l 76 842 l 69 921 l 82 982 l 181 989 l 221 982 l 228 910 l 215 842 l 92 622 l 82 626 m 307 626 l 397 839 l 339 835 l 301 842 l 294 921 l 307 982 l 406 989 l 446 982 l 453 910 l 440 842 l 317 622 l 307 626 z "},"#":{"ha":844,"x_min":56,"x_max":789,"o":"m 599 619 l 789 619 l 786 589 l 596 589 l 563 319 l 754 319 l 750 288 l 558 288 l 524 0 l 492 0 l 526 288 l 281 288 l 246 0 l 214 0 l 249 288 l 56 288 l 60 319 l 253 319 l 286 589 l 92 589 l 96 619 l 289 619 l 325 910 l 357 910 l 321 619 l 567 619 l 603 910 l 635 910 l 599 619 m 285 319 l 531 319 l 564 589 l 318 589 l 285 319 z "},"$":{"ha":740,"x_min":64,"x_max":678,"o":"m 142 132 q 240 52 183 86 q 368 18 296 18 l 379 18 l 379 421 l 233 508 q 169 550 199 529 q 119 597 140 571 q 86 654 99 622 q 74 728 74 686 q 150 897 74 828 q 379 993 226 965 l 379 1085 l 399 1085 l 399 994 q 528 979 468 993 q 647 938 589 965 l 647 713 l 633 713 l 561 890 q 486 942 526 922 q 399 965 446 963 l 399 586 l 506 522 q 635 415 593 471 q 678 278 678 360 q 664 195 678 236 q 617 117 650 154 q 531 49 585 81 q 399 -7 478 18 l 399 -111 l 379 -111 l 379 -12 l 343 -22 q 190 -1 254 -22 q 64 60 125 21 l 64 289 l 78 289 l 142 132 m 196 804 q 234 701 196 742 q 339 622 272 661 l 379 597 l 379 967 l 378 967 q 245 922 294 967 q 196 804 196 876 m 399 410 l 399 19 q 516 74 472 28 q 560 194 560 121 q 524 309 560 260 q 403 407 488 358 l 399 410 z "},"%":{"ha":1133,"x_min":69,"x_max":1064,"o":"m 901 979 l 940 979 l 257 -7 l 215 -7 l 901 979 m 822 456 q 736 401 764 456 q 708 256 708 346 q 740 80 708 144 q 842 15 772 15 q 929 69 901 15 q 957 214 957 124 q 925 390 957 325 q 822 456 893 456 m 813 -7 q 725 10 764 -7 q 659 58 686 28 q 617 132 632 89 q 601 226 601 175 q 665 396 601 338 q 853 478 728 454 q 940 460 901 478 q 1007 413 979 443 q 1049 339 1035 382 q 1064 244 1064 296 q 1001 74 1064 135 q 813 -7 938 14 m 279 494 q 192 512 231 494 q 126 560 154 529 q 84 633 99 590 q 69 728 69 676 q 133 897 69 838 q 321 979 196 956 q 408 962 368 979 q 474 914 447 944 q 517 840 501 883 q 532 744 532 796 q 469 574 532 635 q 279 494 406 514 m 290 957 q 204 902 232 957 q 176 757 176 847 q 208 580 176 644 q 310 515 240 515 q 397 569 369 515 q 425 715 425 624 q 392 892 425 826 q 290 957 360 957 z "},"&":{"ha":943,"x_min":64,"x_max":950,"o":"m 418 569 q 477 626 456 596 q 510 688 499 656 q 524 751 521 719 q 528 815 528 783 q 490 927 528 885 q 392 969 453 969 q 299 932 332 969 q 265 828 265 894 q 310 708 265 771 q 415 572 354 646 l 418 569 m 381 90 q 455 105 417 90 q 536 168 493 119 l 554 189 l 303 485 q 245 438 267 463 q 211 388 224 413 q 194 338 199 363 q 190 290 190 313 q 205 213 190 249 q 245 149 219 176 q 306 106 271 122 q 381 90 340 90 m 568 172 q 471 76 529 129 q 354 -21 413 22 q 242 -5 296 -21 q 149 41 189 11 q 87 113 110 71 q 64 206 64 154 q 82 299 64 257 q 131 377 100 342 q 203 442 161 413 q 292 497 244 471 l 276 514 q 215 589 242 556 q 169 651 188 622 q 142 708 151 681 q 132 764 132 735 q 202 906 132 851 q 411 997 272 960 q 524 982 475 997 q 604 942 572 967 q 653 883 636 917 q 669 813 669 850 q 609 678 669 738 q 431 556 549 619 l 649 293 l 814 488 l 718 496 l 718 510 l 929 510 l 929 496 l 840 488 l 663 278 l 875 22 l 950 14 l 950 0 l 715 0 l 568 172 z "},"'":{"ha":283,"x_min":69,"x_max":228,"o":"m 82 624 l 172 836 l 114 833 l 76 840 l 69 918 l 82 981 l 181 986 l 221 981 l 228 907 l 215 840 l 92 619 l 82 624 z "},"(":{"ha":400,"x_min":63,"x_max":379,"o":"m 63 338 q 79 519 63 435 q 133 682 96 603 q 228 839 169 761 q 371 1000 286 917 l 379 993 q 275 851 317 926 q 208 693 233 776 q 171 520 182 610 q 160 338 160 431 q 171 154 160 243 q 208 -18 182 65 q 275 -176 233 -101 q 379 -318 317 -251 l 371 -325 q 228 -165 286 -242 q 133 -8 169 -87 q 79 156 96 71 q 63 338 63 240 z "},")":{"ha":400,"x_min":21,"x_max":338,"o":"m 338 338 q 321 156 338 240 q 267 -8 304 71 q 172 -165 231 -87 q 29 -325 114 -242 l 21 -318 q 125 -176 83 -251 q 192 -18 167 -101 q 229 154 218 65 q 240 338 240 243 q 229 520 240 431 q 192 693 218 610 q 125 851 167 776 q 21 993 83 926 l 29 1000 q 172 839 114 917 q 267 682 231 761 q 321 519 304 603 q 338 338 338 435 z "},"*":{"ha":561,"x_min":63,"x_max":499,"o":"m 354 579 l 281 778 l 207 579 l 107 651 l 275 782 l 63 790 l 100 908 l 276 789 l 219 993 l 342 993 l 283 789 l 461 907 l 499 790 l 286 782 l 454 653 l 354 579 z "},"+":{"ha":861,"x_min":72,"x_max":789,"o":"m 414 0 l 414 338 l 72 338 l 72 371 l 414 371 l 414 715 l 447 715 l 447 371 l 789 371 l 789 338 l 447 338 l 447 0 l 414 0 z "},",":{"ha":326,"x_min":118,"x_max":278,"o":"m 131 -193 l 214 -4 l 163 -7 l 125 0 l 118 81 l 131 146 l 231 153 l 271 146 l 278 69 l 265 0 l 143 -199 l 131 -193 z "},"-":{"ha":535,"x_min":56,"x_max":479,"o":"m 56 407 l 479 407 l 479 364 l 56 364 l 56 407 z "},".":{"ha":313,"x_min":97,"x_max":257,"o":"m 110 146 l 211 153 l 250 146 l 257 69 l 244 0 l 142 -7 l 104 0 l 97 81 l 110 146 z "},"/":{"ha":636,"x_min":-14,"x_max":650,"o":"m 24 -319 l -14 -319 l 615 997 l 650 997 l 24 -319 z "},":":{"ha":333,"x_min":104,"x_max":264,"o":"m 117 664 l 218 672 l 257 664 l 264 588 l 251 519 l 149 511 l 111 519 l 104 599 l 117 664 m 117 146 l 218 153 l 257 146 l 264 69 l 251 0 l 149 -7 l 111 0 l 104 81 l 117 146 z "},";":{"ha":361,"x_min":104,"x_max":264,"o":"m 117 -193 l 204 -4 l 149 -7 l 111 0 l 104 81 l 117 146 l 217 153 l 257 146 l 264 69 l 251 0 l 129 -199 l 117 -193 m 117 664 l 218 672 l 257 664 l 264 588 l 251 519 l 149 511 l 111 519 l 104 599 l 117 664 z "},"<":{"ha":861,"x_min":69,"x_max":792,"o":"m 69 408 l 792 740 l 792 704 l 114 397 l 792 92 l 792 56 l 69 388 l 69 408 z "},"=":{"ha":861,"x_min":71,"x_max":790,"o":"m 71 224 l 790 224 l 790 192 l 71 192 l 71 224 m 71 490 l 790 490 l 790 457 l 71 457 l 71 490 z "},">":{"ha":861,"x_min":69,"x_max":792,"o":"m 69 56 l 69 92 l 747 397 l 69 704 l 69 740 l 792 408 l 792 388 l 69 56 z "},"?":{"ha":575,"x_min":75,"x_max":503,"o":"m 503 772 q 455 628 503 685 q 315 526 407 571 l 235 488 l 225 283 l 197 283 l 172 465 l 226 507 q 290 564 263 536 q 334 624 317 592 q 360 694 351 657 q 368 781 368 732 q 360 851 368 818 q 332 910 351 885 q 282 953 313 936 q 206 972 251 969 l 139 796 l 75 796 l 75 967 l 214 986 q 345 964 290 983 q 435 915 400 944 q 487 847 471 885 q 503 772 503 810 m 242 133 l 275 126 l 282 60 l 269 0 l 182 -7 l 149 0 l 142 69 l 154 126 l 242 133 z "},"@":{"ha":1267,"x_min":69,"x_max":1204,"o":"m 696 211 l 726 354 l 532 117 q 468 138 499 121 q 413 183 438 154 q 374 251 389 211 q 360 340 360 290 q 378 447 360 396 q 428 542 396 499 q 503 619 460 585 q 600 679 547 654 l 749 747 l 899 660 l 792 135 q 897 167 843 138 q 995 251 951 197 q 1067 379 1039 304 q 1094 549 1094 454 q 1065 703 1094 632 q 983 826 1036 774 q 853 909 929 879 q 685 939 778 939 q 498 901 589 939 q 335 791 407 863 q 221 619 264 719 q 178 393 178 518 q 220 175 178 268 q 332 20 263 82 q 492 -72 401 -42 q 676 -101 582 -101 q 758 -93 719 -101 q 831 -72 797 -85 q 894 -45 865 -60 q 943 -18 922 -31 l 949 -28 q 863 -73 908 -51 q 774 -111 818 -94 q 688 -140 729 -128 q 614 -158 647 -153 q 391 -120 492 -158 q 219 -14 290 -82 q 108 148 147 54 q 69 353 69 242 q 104 543 69 453 q 201 708 139 633 q 349 839 263 782 q 538 931 435 896 l 671 972 q 901 942 801 972 q 1067 860 1000 913 q 1169 734 1135 807 q 1204 575 1204 661 q 1169 401 1204 482 q 1075 258 1135 319 q 938 160 1015 197 q 775 119 860 124 l 696 211 m 469 390 q 498 273 469 319 q 585 210 526 226 l 732 378 l 785 615 l 661 693 q 567 624 604 663 q 509 546 531 586 q 478 465 488 506 q 469 390 469 425 z "},"A":{"ha":968,"x_min":7,"x_max":961,"o":"m 864 22 l 961 14 l 961 0 l 583 0 l 583 13 l 700 22 l 592 351 l 247 351 l 132 22 l 250 13 l 250 0 l 7 0 l 7 14 l 107 22 l 433 940 l 538 990 l 864 22 m 256 372 l 585 372 l 426 860 l 256 372 z "},"B":{"ha":863,"x_min":39,"x_max":811,"o":"m 39 0 l 39 14 l 149 22 l 149 950 l 39 958 l 39 972 l 492 972 q 608 955 558 972 q 692 908 658 938 q 742 839 725 878 q 760 758 760 800 q 735 660 760 704 q 670 585 711 617 q 576 535 629 553 q 463 515 522 517 q 619 497 553 515 q 727 445 685 478 q 790 369 769 413 q 811 278 811 326 q 785 160 811 211 q 713 74 760 110 q 599 20 665 39 q 450 0 532 1 l 39 0 m 429 524 q 506 542 472 524 q 561 591 539 560 q 594 665 583 622 q 606 757 606 707 q 561 903 606 847 q 433 958 517 958 l 297 950 l 297 524 l 429 524 m 419 14 q 530 34 485 14 q 603 89 575 54 q 644 170 632 124 q 657 269 657 217 q 640 372 657 328 q 593 445 622 415 q 524 490 564 475 q 438 504 483 504 l 297 504 l 297 22 l 419 14 z "},"C":{"ha":940,"x_min":53,"x_max":875,"o":"m 875 297 l 875 65 q 797 35 835 49 q 720 10 760 21 q 636 -9 681 -1 q 540 -22 592 -17 q 356 10 444 -22 q 201 103 268 42 q 93 257 133 165 q 53 468 53 349 q 89 678 53 585 q 190 838 125 771 q 349 944 256 904 q 554 994 442 983 q 733 974 656 994 q 874 922 810 954 l 874 692 l 860 692 l 772 886 q 686 949 736 924 q 556 975 636 975 q 427 944 488 975 q 321 853 367 914 q 249 702 275 793 q 222 490 222 611 q 242 304 222 393 q 305 148 263 215 q 413 41 347 81 q 571 1 479 1 q 686 26 633 1 q 774 88 739 51 l 861 297 l 875 297 z "},"D":{"ha":1003,"x_min":39,"x_max":951,"o":"m 469 14 q 599 49 540 14 q 700 147 658 83 q 765 299 742 210 q 788 499 788 389 q 769 684 788 600 q 710 829 750 768 q 606 924 669 890 q 454 958 543 958 l 308 950 l 308 22 l 469 14 m 39 0 l 39 14 l 158 22 l 158 950 l 39 958 l 39 972 l 481 972 q 676 941 589 972 q 825 850 764 910 q 919 703 886 790 q 951 504 951 615 q 922 306 951 397 q 834 149 893 215 q 687 43 775 82 q 481 0 599 4 l 39 0 z "},"E":{"ha":835,"x_min":39,"x_max":792,"o":"m 39 14 l 149 22 l 149 950 l 39 958 l 39 972 l 785 972 l 785 719 l 771 719 l 678 953 l 297 953 l 297 518 l 517 518 l 578 683 l 592 683 l 592 336 l 578 336 l 517 500 l 297 500 l 297 19 l 688 19 l 778 260 l 792 260 l 792 0 l 39 0 l 39 14 z "},"F":{"ha":803,"x_min":39,"x_max":783,"o":"m 415 0 l 39 0 l 39 14 l 149 22 l 149 950 l 39 958 l 39 972 l 783 972 l 783 711 l 769 711 l 672 953 l 297 953 l 297 500 l 517 500 l 578 681 l 592 681 l 592 299 l 578 299 l 517 481 l 297 481 l 297 22 l 415 14 l 415 0 z "},"G":{"ha":1001,"x_min":53,"x_max":969,"o":"m 888 64 q 728 6 817 32 q 529 -22 639 -19 q 345 10 432 -22 q 194 104 258 42 q 91 258 129 167 q 53 469 53 350 q 88 676 53 583 q 190 837 124 769 q 350 944 256 904 q 563 994 444 985 q 746 972 667 994 q 874 921 825 949 l 874 692 l 860 692 l 772 886 q 688 949 738 922 q 561 975 638 975 q 419 939 482 975 q 313 837 357 903 q 246 680 269 771 q 222 481 222 589 q 242 297 222 385 q 303 143 263 210 q 404 37 343 76 q 547 -3 465 -3 q 663 23 614 -3 q 739 81 713 49 l 739 411 l 629 422 l 629 438 l 969 438 l 969 422 l 888 411 l 888 64 l 888 64 z "},"H":{"ha":1028,"x_min":39,"x_max":989,"o":"m 297 515 l 731 515 l 731 950 l 622 958 l 622 972 l 989 972 l 989 958 l 879 950 l 879 22 l 989 14 l 989 0 l 622 0 l 622 14 l 731 22 l 731 494 l 297 494 l 297 22 l 406 14 l 406 0 l 39 0 l 39 14 l 149 22 l 149 950 l 39 958 l 39 972 l 406 972 l 406 958 l 297 950 l 297 515 z "},"I":{"ha":446,"x_min":39,"x_max":407,"o":"m 297 22 l 407 14 l 407 0 l 39 0 l 39 14 l 149 22 l 149 950 l 39 958 l 39 972 l 407 972 l 407 958 l 297 950 l 297 22 z "},"J":{"ha":463,"x_min":1,"x_max":431,"o":"m 321 157 q 292 6 321 65 q 218 -101 263 -53 l 93 -243 l 1 -243 l 1 -117 l 160 -117 l 164 -86 q 167 -58 165 -74 q 170 -19 169 -43 q 172 39 171 4 q 172 125 172 74 l 172 950 l 35 958 l 35 972 l 431 972 l 431 958 l 321 950 l 321 157 z "},"K":{"ha":965,"x_min":39,"x_max":951,"o":"m 297 504 l 767 950 l 642 958 l 642 972 l 911 972 l 911 958 l 794 950 l 329 511 l 442 543 l 868 22 l 951 14 l 951 0 l 700 0 l 297 490 l 297 22 l 406 14 l 406 0 l 39 0 l 39 14 l 149 22 l 149 950 l 39 958 l 39 972 l 406 972 l 406 958 l 297 950 l 297 504 z "},"L":{"ha":778,"x_min":39,"x_max":764,"o":"m 39 0 l 39 14 l 149 22 l 149 950 l 39 958 l 39 972 l 407 972 l 407 958 l 297 950 l 297 22 l 649 22 l 750 267 l 764 267 l 764 0 l 39 0 z "},"M":{"ha":1249,"x_min":39,"x_max":1210,"o":"m 950 921 l 607 -7 l 533 -7 l 169 933 l 169 22 l 274 14 l 274 0 l 39 0 l 39 14 l 149 22 l 149 950 l 39 958 l 39 972 l 311 972 l 640 149 l 946 972 l 1210 972 l 1210 958 l 1099 950 l 1099 22 l 1210 14 l 1210 0 l 853 0 l 853 14 l 950 22 l 950 921 z "},"N":{"ha":956,"x_min":39,"x_max":942,"o":"m 763 -7 l 169 928 l 169 22 l 283 14 l 283 0 l 39 0 l 39 14 l 149 22 l 149 950 l 39 958 l 39 972 l 321 972 l 811 207 l 811 950 l 697 958 l 697 972 l 942 972 l 942 958 l 832 950 l 832 -7 l 763 -7 z "},"O":{"ha":1056,"x_min":53,"x_max":1004,"o":"m 557 8 q 675 43 624 8 q 762 140 726 78 q 815 284 797 201 q 833 463 833 367 q 808 663 833 571 q 739 822 783 754 q 633 926 694 889 q 500 964 572 964 q 382 929 433 964 q 295 833 331 894 q 241 690 260 772 q 222 511 222 607 q 247 310 222 403 q 317 151 272 218 q 424 46 363 83 q 557 8 485 8 m 514 -22 q 326 15 411 -22 q 181 118 242 53 q 86 273 119 183 q 53 467 53 363 q 173 822 53 689 q 542 994 293 956 q 729 957 644 994 q 875 854 814 919 q 970 699 936 789 q 1004 506 1004 610 q 884 150 1004 283 q 514 -22 764 17 z "},"P":{"ha":801,"x_min":39,"x_max":782,"o":"m 297 458 l 407 458 q 494 477 454 458 q 563 530 535 496 q 606 610 590 564 q 622 711 622 657 q 611 806 622 761 q 576 885 600 851 q 516 939 553 919 q 426 958 479 958 l 297 950 l 297 458 m 297 439 l 297 22 l 417 14 l 417 0 l 39 0 l 39 14 l 149 22 l 149 950 l 39 958 l 39 972 l 488 972 q 602 957 549 972 q 696 910 656 942 q 759 833 736 879 q 782 724 782 786 q 754 609 782 656 q 679 530 726 563 q 571 476 632 497 q 443 439 510 456 l 297 439 z "},"Q":{"ha":1056,"x_min":53,"x_max":1004,"o":"m 901 -204 l 965 -215 l 964 -231 l 756 -231 l 514 -22 q 326 15 411 -22 q 181 118 242 53 q 86 273 119 183 q 53 467 53 363 q 173 822 53 689 q 542 994 293 956 q 729 957 644 994 q 875 854 814 919 q 970 699 936 789 q 1004 506 1004 610 q 885 153 1004 286 q 524 -19 767 19 l 717 -53 l 901 -204 m 557 8 q 675 43 624 8 q 762 140 726 78 q 815 284 797 201 q 833 463 833 367 q 808 663 833 571 q 739 822 783 754 q 633 926 694 889 q 500 964 572 964 q 382 929 433 964 q 295 833 331 894 q 241 690 260 772 q 222 511 222 607 q 247 310 222 403 q 317 151 272 218 q 424 46 363 83 q 557 8 485 8 z "},"R":{"ha":906,"x_min":39,"x_max":899,"o":"m 297 461 l 297 22 l 400 14 l 400 0 l 39 0 l 39 14 l 149 22 l 149 950 l 39 958 l 39 972 l 486 972 q 592 960 540 972 q 683 919 643 947 q 749 845 724 890 q 774 733 774 800 q 744 623 774 669 q 665 544 715 576 q 548 492 615 511 q 404 463 481 472 l 583 424 l 832 22 l 899 14 l 899 0 l 674 0 l 397 461 l 297 461 m 297 481 l 374 481 q 552 547 492 481 q 613 722 613 614 q 597 823 613 779 q 556 897 582 867 q 495 942 531 926 q 418 958 460 958 l 297 950 l 297 481 z "},"S":{"ha":728,"x_min":58,"x_max":672,"o":"m 136 132 q 234 52 178 86 q 363 18 290 18 q 501 66 449 18 q 554 194 554 114 q 518 309 554 260 q 397 407 482 358 l 228 508 q 164 550 193 529 q 114 597 135 571 q 81 654 93 622 q 68 728 68 686 q 146 898 68 829 q 379 994 224 967 q 642 938 524 994 l 642 713 l 628 713 l 556 890 q 472 947 518 926 q 372 967 426 967 q 240 922 289 967 q 190 804 190 876 q 228 701 190 742 q 333 622 267 661 l 500 522 q 630 415 588 471 q 672 278 672 360 q 656 188 672 232 q 601 106 639 144 q 498 34 563 67 q 338 -22 433 1 q 184 -1 249 -22 q 58 60 119 21 l 58 289 l 72 289 l 136 132 z "},"T":{"ha":796,"x_min":14,"x_max":782,"o":"m 596 0 l 200 0 l 200 14 l 324 22 l 324 953 l 128 953 l 28 699 l 14 699 l 14 972 l 782 972 l 782 699 l 768 699 l 668 953 l 472 953 l 472 22 l 596 14 l 596 0 z "},"U":{"ha":921,"x_min":14,"x_max":907,"o":"m 656 958 l 656 972 l 907 972 l 907 958 l 797 950 l 797 331 q 783 210 797 267 q 734 106 769 153 q 638 27 699 60 q 481 -22 576 -6 q 317 4 385 -22 q 206 78 249 31 q 142 193 163 126 q 122 340 122 260 l 122 950 l 14 958 l 14 972 l 382 972 l 382 958 l 272 950 l 272 328 q 289 212 272 265 q 338 118 306 158 q 419 55 371 78 q 531 32 467 32 q 628 55 585 32 q 702 118 671 78 q 750 212 733 158 q 767 328 767 265 l 767 950 l 656 958 z "},"V":{"ha":968,"x_min":7,"x_max":961,"o":"m 446 -18 l 104 950 l 7 958 l 7 972 l 381 972 l 381 960 l 268 950 l 553 121 l 832 950 l 714 960 l 714 972 l 961 972 l 961 958 l 857 950 l 543 18 l 446 -18 z "},"W":{"ha":1393,"x_min":14,"x_max":1379,"o":"m 413 -7 l 99 950 l 14 958 l 14 972 l 374 972 l 374 958 l 261 950 l 508 169 l 678 731 l 607 950 l 522 958 l 522 972 l 882 972 l 882 958 l 769 950 l 1017 169 l 1263 950 l 1142 958 l 1142 972 l 1379 972 l 1379 958 l 1288 950 l 990 10 l 921 -7 l 690 693 l 483 10 l 413 -7 z "},"X":{"ha":986,"x_min":14,"x_max":963,"o":"m 24 960 l 24 972 l 392 972 l 392 958 l 289 950 l 539 550 l 801 950 l 654 958 l 654 972 l 963 972 l 963 958 l 826 950 l 550 531 l 869 22 l 958 14 l 958 0 l 586 0 l 586 14 l 693 22 l 446 417 l 181 22 l 328 14 l 328 0 l 14 0 l 14 14 l 156 22 l 435 435 l 114 950 l 24 960 z "},"Y":{"ha":956,"x_min":7,"x_max":949,"o":"m 265 0 l 265 14 l 414 22 l 414 379 l 106 950 l 7 958 l 7 972 l 399 972 l 399 958 l 278 950 l 553 428 l 828 950 l 694 958 l 694 972 l 949 972 l 949 958 l 850 950 l 564 400 l 564 22 l 711 14 l 711 0 l 265 0 z "},"Z":{"ha":786,"x_min":25,"x_max":751,"o":"m 718 276 l 729 276 l 729 0 l 25 0 l 25 11 l 575 953 l 190 953 l 76 703 l 63 703 l 63 972 l 751 972 l 751 963 l 201 19 l 596 19 l 718 276 z "},"[":{"ha":431,"x_min":118,"x_max":382,"o":"m 382 -306 l 382 -319 l 118 -319 l 118 993 l 382 993 l 382 979 l 207 971 l 207 -297 l 382 -306 z "},"\\":{"ha":594,"x_min":-35,"x_max":629,"o":"m 0 997 l 629 -319 l 592 -319 l -35 997 l 0 997 z "},"]":{"ha":424,"x_min":49,"x_max":306,"o":"m 224 971 l 49 979 l 49 993 l 306 993 l 306 -319 l 49 -319 l 49 -306 l 224 -297 l 224 971 z "},"^":{"ha":501,"x_min":69,"x_max":432,"o":"m 251 949 l 97 639 l 69 639 l 244 979 l 258 979 l 432 639 l 404 639 l 251 949 z "},"_":{"ha":785,"x_min":7,"x_max":778,"o":"m 7 -101 l 778 -101 l 778 -133 l 7 -133 l 7 -101 z "},"`":{"ha":694,"x_min":207,"x_max":415,"o":"m 399 761 l 207 1004 l 335 1004 l 415 761 l 399 761 z "},"a":{"ha":656,"x_min":40,"x_max":649,"o":"m 322 668 q 439 658 397 668 q 508 621 481 647 q 542 556 533 596 q 550 460 550 515 l 550 160 q 556 96 550 126 q 574 33 563 65 l 647 43 l 649 31 l 447 -10 l 418 110 l 225 -21 q 92 22 143 -21 q 40 144 40 64 q 55 216 40 179 q 115 288 69 253 l 415 385 l 415 479 q 413 535 415 508 q 399 580 410 561 q 364 610 388 599 q 297 621 340 621 q 260 617 276 621 q 215 606 244 614 l 183 447 l 63 447 l 63 554 l 322 668 m 415 371 l 244 306 q 199 251 217 282 q 182 178 182 221 q 208 92 182 125 q 276 60 235 60 q 333 73 306 60 q 379 100 361 86 l 415 125 l 415 371 z "},"b":{"ha":732,"x_min":14,"x_max":682,"o":"m 682 375 q 657 214 682 282 q 588 99 632 146 q 481 22 543 51 q 342 -21 418 -7 q 205 -7 263 -21 q 103 31 147 7 l 103 944 l 17 929 l 14 946 l 221 992 l 235 992 l 235 533 l 444 668 q 536 649 493 668 q 612 592 579 629 q 663 500 644 554 q 682 375 682 446 m 538 321 q 501 513 538 443 q 385 582 464 582 q 326 569 351 582 q 267 536 301 556 l 235 515 l 235 64 q 285 17 256 32 q 360 3 315 3 q 428 25 396 3 q 484 88 460 47 q 523 188 508 129 q 538 321 538 247 z "},"c":{"ha":610,"x_min":46,"x_max":575,"o":"m 403 631 q 351 640 375 640 q 281 626 314 640 q 222 582 247 613 q 182 503 197 551 q 167 386 167 454 q 183 265 167 321 q 231 169 200 210 q 306 106 263 129 q 403 82 350 82 q 490 97 451 82 q 569 144 529 113 l 575 135 q 469 47 522 83 q 354 -21 417 11 q 233 1 289 -21 q 135 64 176 22 q 69 165 93 106 q 46 299 46 224 q 74 447 46 382 q 147 557 101 511 q 253 630 193 603 q 376 668 313 657 q 424 662 399 668 q 475 645 450 656 q 524 622 500 635 q 564 596 547 610 l 564 469 l 457 469 l 403 631 z "},"d":{"ha":765,"x_min":46,"x_max":739,"o":"m 189 349 q 200 239 189 290 q 232 150 211 188 q 283 90 253 113 q 350 68 313 68 q 401 78 381 68 q 463 117 422 88 l 493 138 l 493 586 q 448 624 476 607 q 379 640 419 640 q 236 560 283 639 q 189 349 189 482 m 303 -21 q 199 4 246 -21 q 118 72 153 29 q 65 171 83 114 q 46 292 46 228 q 64 423 46 361 q 119 534 82 485 q 215 618 157 583 q 354 668 274 653 q 426 660 392 668 q 493 632 461 651 l 493 947 l 407 932 l 404 946 l 611 992 l 625 992 l 625 163 q 629 100 625 126 q 647 39 633 74 l 736 49 l 739 36 l 528 -10 l 496 121 l 303 -21 z "},"e":{"ha":646,"x_min":46,"x_max":599,"o":"m 361 -21 q 242 0 299 -21 q 141 61 185 21 q 72 160 97 101 q 46 297 46 219 q 70 441 46 378 q 137 550 94 504 q 235 625 179 596 q 354 668 292 654 q 534 601 475 668 q 593 418 593 533 l 593 379 l 167 379 l 167 378 q 186 252 167 307 q 240 160 206 197 q 319 103 274 122 q 418 85 365 85 q 508 102 465 85 q 590 144 550 119 l 599 135 q 540 85 567 107 q 485 46 513 64 q 427 12 457 28 q 361 -21 397 -4 m 318 633 q 205 567 240 633 q 167 393 169 501 l 449 393 l 449 418 q 443 505 449 465 q 423 573 438 544 q 383 617 408 601 q 318 633 358 633 z "},"f":{"ha":443,"x_min":35,"x_max":478,"o":"m 257 640 l 429 640 l 429 626 l 257 626 l 257 22 l 403 14 l 403 0 l 35 0 l 35 14 l 125 22 l 125 626 l 35 626 l 35 640 l 125 640 l 125 656 q 138 765 125 724 q 188 843 151 807 l 329 986 l 478 986 l 478 882 l 274 882 l 269 864 q 263 836 265 850 q 258 804 260 822 q 257 760 257 786 q 257 699 257 735 l 257 640 z "},"g":{"ha":690,"x_min":26,"x_max":683,"o":"m 324 250 q 406 297 378 250 q 433 431 433 343 q 427 508 433 469 q 406 576 421 546 q 365 624 390 606 q 301 642 340 642 q 219 594 247 642 q 190 460 190 547 q 197 383 190 421 q 218 316 203 346 q 259 268 233 286 q 324 250 285 250 m 646 -35 q 620 -131 646 -86 q 549 -212 594 -175 q 440 -281 503 -250 q 303 -336 376 -311 q 96 -297 165 -336 q 26 -162 26 -258 l 26 -137 l 185 -21 q 85 33 114 -4 q 57 117 57 69 l 57 138 l 194 242 q 94 313 132 265 q 57 428 57 361 q 123 574 57 517 q 324 668 189 632 q 464 634 404 668 q 550 543 524 600 l 622 668 l 683 668 l 683 536 l 564 536 l 554 526 q 568 465 568 500 q 503 317 567 375 q 301 222 439 258 q 254 226 278 222 q 210 236 231 229 l 153 181 q 177 117 153 136 q 239 97 201 97 l 497 97 q 563 86 535 97 q 609 57 590 75 q 637 15 628 39 q 646 -35 646 -8 m 200 -21 q 152 -84 164 -51 q 140 -144 140 -117 q 183 -239 140 -203 q 296 -274 226 -275 l 353 -274 q 435 -260 396 -274 q 503 -223 474 -246 q 549 -171 532 -200 q 565 -110 565 -142 q 540 -45 565 -69 q 456 -21 514 -21 l 200 -21 z "},"h":{"ha":793,"x_min":42,"x_max":769,"o":"m 43 0 l 43 14 l 131 22 l 131 947 l 44 932 l 42 946 l 249 992 l 263 992 l 263 513 l 514 668 q 587 658 561 668 q 628 632 613 647 q 648 608 640 621 q 661 576 656 594 q 669 531 667 557 q 671 465 671 504 l 671 22 l 769 14 l 769 0 l 471 0 l 471 14 l 535 22 l 535 472 q 514 560 535 536 q 451 583 493 583 q 384 568 414 583 q 314 528 354 553 l 263 497 l 263 22 l 328 14 l 328 0 l 43 0 z "},"i":{"ha":381,"x_min":42,"x_max":353,"o":"m 140 964 l 235 971 l 272 964 l 279 893 l 267 828 l 169 821 l 135 828 l 128 904 l 140 964 m 47 0 l 47 14 l 133 22 l 133 615 l 44 594 l 42 608 l 251 661 l 265 661 l 265 22 l 353 14 l 353 0 l 47 0 z "},"j":{"ha":360,"x_min":-28,"x_max":281,"o":"m 142 964 l 236 971 l 274 964 l 281 893 l 268 828 l 171 821 l 136 828 l 129 904 l 142 964 m -28 -329 l -28 -206 l 122 -206 l 125 -185 q 132 -131 128 -168 q 136 -37 136 -93 l 136 615 l 46 594 l 44 608 l 253 661 l 268 661 l 268 -3 q 265 -54 268 -32 q 253 -95 261 -76 q 233 -132 246 -114 q 200 -171 219 -150 l 65 -329 l -28 -329 z "},"k":{"ha":750,"x_min":42,"x_max":743,"o":"m 263 364 l 582 625 l 483 633 l 483 647 l 708 647 l 708 633 l 614 625 l 294 368 l 397 388 l 683 22 l 743 14 l 743 0 l 529 0 l 263 351 l 263 22 l 349 14 l 349 0 l 43 0 l 43 14 l 131 22 l 131 947 l 44 932 l 42 946 l 249 992 l 263 992 l 263 364 z "},"l":{"ha":369,"x_min":42,"x_max":349,"o":"m 43 0 l 43 14 l 131 22 l 131 947 l 44 932 l 42 946 l 249 992 l 263 992 l 263 22 l 349 14 l 349 0 l 43 0 z "},"m":{"ha":1181,"x_min":42,"x_max":1157,"o":"m 332 0 l 47 0 l 47 14 l 133 22 l 133 615 l 44 596 l 42 608 l 251 661 l 265 661 l 265 513 l 506 668 q 578 658 553 668 q 618 632 603 647 q 650 588 639 613 q 661 513 661 564 l 903 668 q 974 658 949 668 q 1015 632 1000 647 q 1035 607 1028 619 q 1049 576 1043 594 q 1056 532 1054 558 q 1058 467 1058 506 l 1058 22 l 1157 14 l 1157 0 l 857 0 l 857 14 l 922 22 l 922 471 q 901 560 922 536 q 838 583 881 583 q 771 565 804 583 q 710 529 738 547 l 661 497 l 661 22 l 728 14 l 728 0 l 461 0 l 461 14 l 526 22 l 526 471 q 506 560 526 536 q 442 583 485 583 q 374 565 407 583 q 314 529 342 547 l 265 497 l 265 22 l 332 14 l 332 0 z "},"n":{"ha":796,"x_min":42,"x_max":774,"o":"m 47 0 l 47 14 l 133 22 l 133 615 l 44 594 l 42 608 l 251 661 l 265 661 l 265 513 l 517 668 q 590 658 564 668 q 631 632 615 647 q 651 607 643 619 q 665 576 660 594 q 672 531 669 557 q 674 465 674 504 l 674 22 l 774 14 l 774 0 l 474 0 l 474 14 l 539 22 l 539 472 q 517 560 539 536 q 456 583 496 583 q 388 568 417 583 q 317 528 358 553 l 265 497 l 265 22 l 332 14 l 332 0 l 47 0 z "},"o":{"ha":726,"x_min":46,"x_max":682,"o":"m 346 636 q 227 560 267 636 q 188 350 188 485 q 202 212 188 275 q 242 104 217 149 q 302 35 267 60 q 379 10 338 10 q 499 87 458 10 q 539 296 539 164 q 524 441 539 378 q 483 548 510 504 q 422 614 457 592 q 346 636 388 636 m 343 -21 q 224 3 278 -21 q 130 72 169 28 q 68 176 90 115 q 46 308 46 236 q 70 449 46 389 q 139 553 94 510 q 246 624 183 596 q 383 668 308 651 q 503 644 449 668 q 598 576 558 619 q 660 472 638 532 q 682 340 682 411 q 658 199 682 260 q 588 95 633 139 q 481 24 543 51 q 343 -21 418 -4 z "},"p":{"ha":738,"x_min":21,"x_max":692,"o":"m 549 307 q 538 413 549 364 q 508 499 528 463 q 458 558 488 536 q 389 579 428 579 q 329 566 353 579 q 269 529 306 553 l 244 514 l 244 69 q 292 24 261 42 q 363 8 322 7 q 498 90 447 10 q 549 307 549 169 m 376 -319 l 24 -319 l 24 -306 l 113 -297 l 113 615 l 24 596 l 21 608 l 226 661 l 240 661 l 243 531 l 443 668 q 543 645 497 668 q 622 581 589 622 q 673 485 654 540 q 692 367 692 431 q 674 234 692 296 q 619 122 657 172 q 524 35 582 72 q 383 -21 465 -1 q 310 -12 346 -21 q 244 21 274 -3 l 244 -297 l 376 -306 l 376 -319 z "},"q":{"ha":724,"x_min":46,"x_max":717,"o":"m 189 342 q 198 240 189 289 q 226 153 207 190 q 275 93 244 115 q 347 71 306 71 q 406 81 383 71 q 461 111 429 90 l 493 132 l 493 575 q 448 626 475 607 q 378 644 421 644 q 306 626 340 644 q 247 571 272 608 q 205 476 221 533 q 189 342 189 419 m 361 -319 l 361 -306 l 493 -297 l 493 115 l 296 -21 q 200 -1 246 -21 q 120 58 154 19 q 66 153 86 97 q 46 278 46 208 q 70 422 46 356 q 140 538 94 488 q 247 622 185 589 q 383 668 308 656 q 494 657 450 668 q 578 622 538 646 l 611 664 l 625 664 l 625 -297 l 717 -306 l 717 -319 l 361 -319 z "},"r":{"ha":514,"x_min":42,"x_max":493,"o":"m 47 0 l 47 14 l 133 22 l 133 615 l 44 596 l 42 608 l 246 661 l 260 661 l 265 444 l 401 661 l 493 661 l 493 519 l 333 519 l 265 425 l 265 24 l 392 14 l 392 0 l 47 0 z "},"s":{"ha":528,"x_min":43,"x_max":490,"o":"m 379 592 q 318 633 347 624 q 253 643 289 643 q 179 617 207 643 q 151 551 151 592 q 181 481 151 507 q 258 425 210 456 l 376 350 q 465 274 440 311 q 489 183 490 236 q 431 59 488 113 q 258 -22 374 6 q 142 -4 200 -22 q 43 38 83 14 l 43 219 l 57 219 l 131 72 q 191 26 160 44 q 265 8 222 8 q 353 38 325 8 q 382 104 382 67 q 375 149 382 131 q 355 184 368 168 q 320 215 342 200 q 269 249 299 229 l 156 321 q 116 348 136 333 q 80 381 96 363 q 54 423 64 399 q 44 479 44 447 q 100 593 44 547 q 264 668 156 639 q 381 654 333 668 q 467 619 428 640 l 467 442 l 453 442 l 379 592 z "},"t":{"ha":463,"x_min":7,"x_max":453,"o":"m 7 626 l 7 640 l 110 640 l 110 746 l 242 822 l 242 640 l 436 640 l 436 626 l 242 626 l 242 156 q 263 85 242 107 q 324 63 285 63 q 388 72 360 63 q 447 97 415 81 l 453 85 l 258 -21 q 184 -8 213 -21 q 139 28 156 6 q 116 83 122 51 q 110 153 110 115 l 110 626 l 7 626 z "},"u":{"ha":760,"x_min":15,"x_max":728,"o":"m 728 31 l 528 -8 l 504 126 l 267 -21 q 194 -10 222 -21 q 150 14 165 0 q 129 40 138 26 q 115 72 121 53 q 108 117 110 90 q 106 183 106 144 l 106 617 l 17 606 l 15 619 l 228 657 l 242 657 l 242 176 q 263 88 242 114 q 324 61 285 61 q 381 73 356 61 q 442 107 406 85 l 503 143 l 503 617 l 413 606 l 413 619 l 621 657 l 635 657 l 635 179 q 640 104 635 136 q 653 38 644 72 l 725 44 l 728 31 z "},"v":{"ha":728,"x_min":7,"x_max":721,"o":"m 618 625 l 521 633 l 521 647 l 721 647 l 721 633 l 643 625 l 435 26 l 322 -25 l 79 625 l 7 633 l 7 647 l 308 647 l 308 633 l 231 625 l 429 72 l 618 625 z "},"w":{"ha":1143,"x_min":7,"x_max":1136,"o":"m 1033 625 l 938 633 l 938 647 l 1136 647 l 1136 633 l 1060 625 l 864 25 l 744 -24 l 571 469 l 426 25 l 307 -24 l 79 625 l 7 633 l 7 647 l 304 647 l 304 633 l 226 625 l 415 67 l 557 507 l 517 625 l 444 633 l 444 647 l 742 647 l 742 633 l 663 625 l 853 67 l 1033 625 z "},"x":{"ha":742,"x_min":18,"x_max":733,"o":"m 260 0 l 18 0 l 18 14 l 117 22 l 324 290 l 107 625 l 38 633 l 38 647 l 325 647 l 325 633 l 274 625 l 426 386 l 599 625 l 485 633 l 485 647 l 724 647 l 724 633 l 624 625 l 440 368 l 663 22 l 733 14 l 733 0 l 443 0 l 443 14 l 496 22 l 336 272 l 144 22 l 260 14 l 260 0 z "},"y":{"ha":736,"x_min":7,"x_max":729,"o":"m 276 -196 l 422 61 l 306 8 l 79 625 l 7 633 l 7 647 l 310 647 l 310 633 l 231 625 l 429 79 l 622 625 l 528 633 l 528 647 l 729 647 l 729 633 l 649 625 l 446 53 l 274 -326 l 122 -326 l 122 -196 l 276 -196 z "},"z":{"ha":636,"x_min":46,"x_max":601,"o":"m 46 0 l 46 11 l 446 633 l 199 633 l 97 432 l 83 432 l 83 647 l 601 647 l 601 636 l 208 14 l 478 14 l 575 218 l 589 218 l 589 0 l 46 0 z "},"{":{"ha":471,"x_min":69,"x_max":415,"o":"m 69 343 q 122 377 103 357 q 149 422 140 397 q 160 476 158 447 q 161 533 161 504 l 161 799 q 175 879 161 843 q 213 940 189 915 q 270 979 238 965 q 340 993 303 993 l 407 993 l 407 979 l 343 979 q 278 947 306 979 q 250 828 250 914 l 250 540 q 246 490 250 515 q 230 442 242 465 q 198 398 218 418 q 146 364 178 378 l 250 294 l 250 -154 q 281 -273 250 -240 q 351 -306 311 -306 l 415 -306 l 415 -319 l 344 -319 q 213 -267 264 -319 q 161 -125 161 -214 l 161 274 l 69 343 l 69 343 z "},"|":{"ha":339,"x_min":153,"x_max":186,"o":"m 153 997 l 186 997 l 186 -340 l 153 -340 l 153 997 z "},"}":{"ha":464,"x_min":49,"x_max":394,"o":"m 303 -125 q 289 -206 303 -169 q 251 -267 275 -242 q 194 -306 226 -292 q 124 -319 161 -319 l 57 -319 l 57 -306 l 121 -306 q 186 -273 158 -306 q 214 -154 214 -240 l 214 164 q 234 263 214 215 q 317 342 254 311 l 214 411 l 214 828 q 183 947 214 914 q 113 979 151 979 l 49 979 l 49 993 l 119 993 q 251 940 199 993 q 303 799 303 888 l 303 432 l 394 363 q 342 328 361 349 q 315 283 324 308 q 304 230 306 258 q 303 172 303 201 l 303 -125 l 303 -125 z "},"~":{"ha":928,"x_min":69,"x_max":858,"o":"m 149 389 l 83 282 l 69 282 l 124 393 l 254 418 l 781 335 l 844 438 l 858 438 l 806 332 l 675 301 l 149 389 z "}," ":{"ha":0,"x_min":0,"x_max":0,"o":""},"¡":{"ha":357,"x_min":101,"x_max":254,"o":"m 238 528 l 149 522 l 115 528 l 108 596 l 121 654 l 210 661 l 242 654 l 249 585 l 238 528 m 113 104 l 164 376 l 192 376 l 244 106 l 254 -332 l 101 -332 l 113 104 z "},"¢":{"ha":621,"x_min":56,"x_max":586,"o":"m 350 -21 q 233 5 288 -18 q 140 69 179 28 q 78 167 100 110 q 56 299 56 225 q 80 438 56 376 q 145 544 104 499 q 239 618 186 589 q 350 661 292 647 l 350 754 l 369 754 l 369 665 q 378 667 372 665 q 386 668 383 668 q 434 662 408 668 q 485 645 460 656 q 534 622 511 635 q 574 596 557 610 l 574 469 l 468 469 l 413 631 q 361 640 388 640 q 292 626 325 640 q 233 582 258 613 q 192 503 207 551 q 176 386 176 454 q 194 265 176 321 q 242 169 211 210 q 317 106 274 129 q 413 82 360 82 q 500 97 461 82 q 581 144 539 113 l 586 135 q 481 49 533 85 q 369 -18 429 13 l 369 -111 l 350 -111 l 350 -21 z "},"£":{"ha":753,"x_min":56,"x_max":697,"o":"m 593 896 q 535 946 564 929 q 458 963 507 963 q 338 912 379 963 q 297 765 297 861 l 297 515 l 533 515 l 533 501 l 297 501 l 297 211 q 295 135 297 165 q 288 85 293 106 q 272 49 282 64 q 246 21 261 35 l 594 21 l 683 229 l 697 229 l 697 0 l 56 0 l 56 14 l 165 28 l 165 501 l 56 501 l 56 515 l 165 515 l 165 674 q 184 793 165 742 q 241 883 203 844 q 337 947 279 921 q 471 993 394 974 q 594 977 544 993 q 672 933 643 961 l 672 721 l 658 721 l 593 896 z "},"¤":{"ha":861,"x_min":125,"x_max":736,"o":"m 157 486 q 176 586 157 539 q 228 669 194 633 l 125 774 l 150 797 l 251 694 q 334 744 288 726 q 433 763 381 763 q 530 745 485 763 q 611 696 575 728 l 713 797 l 736 774 l 635 674 q 690 589 671 638 q 710 486 710 540 q 692 388 710 435 q 642 306 674 342 l 736 213 l 713 189 l 619 282 q 535 228 582 247 q 433 210 488 210 q 330 229 379 210 q 244 285 281 249 l 150 189 l 125 213 l 221 308 q 174 390 190 344 q 157 486 157 435 m 192 486 q 210 392 192 436 q 263 313 229 347 q 340 260 296 279 q 433 240 383 240 q 533 263 486 240 q 613 322 579 286 l 615 326 q 659 399 643 358 q 675 486 675 440 q 656 581 675 536 q 604 660 638 626 q 527 713 571 693 q 433 733 483 733 q 340 713 383 733 q 263 660 296 693 q 210 581 229 626 q 192 486 192 536 z "},"¥":{"ha":946,"x_min":28,"x_max":918,"o":"m 258 0 l 258 14 l 407 22 l 407 228 l 263 228 l 263 242 l 407 242 l 407 363 l 263 363 l 263 376 l 407 376 l 407 379 l 126 950 l 28 958 l 28 972 l 419 972 l 419 958 l 300 950 l 549 428 l 796 950 l 664 958 l 664 972 l 918 972 l 918 958 l 819 950 l 556 400 l 556 376 l 710 376 l 710 363 l 556 363 l 556 242 l 710 242 l 710 228 l 556 228 l 556 22 l 704 14 l 704 0 l 258 0 z "},"¦":{"ha":339,"x_min":153,"x_max":186,"o":"m 153 400 l 153 997 l 186 997 l 186 400 l 153 400 m 153 257 l 186 257 l 186 -340 l 153 -340 l 153 257 z "},"§":{"ha":736,"x_min":56,"x_max":681,"o":"m 325 -340 q 205 -320 265 -340 q 106 -275 144 -300 l 106 -86 l 119 -86 l 178 -235 q 244 -287 206 -262 q 340 -311 282 -311 q 398 -300 371 -311 q 446 -266 425 -289 q 479 -210 467 -243 q 492 -131 492 -176 l 492 -107 l 264 64 q 110 203 165 139 q 56 342 56 268 q 97 469 56 414 q 224 556 139 524 q 128 746 128 639 q 197 904 128 842 q 396 994 267 967 q 525 976 471 994 q 611 928 579 958 l 611 758 l 597 758 l 533 904 q 474 951 510 933 q 386 968 438 968 q 326 960 354 968 q 278 935 299 953 q 245 890 257 918 q 233 821 233 863 q 244 761 233 789 q 279 704 256 733 q 340 644 303 675 q 431 575 378 613 l 681 404 l 681 346 q 664 251 681 292 q 620 178 647 210 q 557 125 593 147 q 482 86 521 103 l 594 0 l 594 -61 q 571 -174 594 -128 q 510 -253 547 -221 q 424 -306 472 -286 q 325 -340 375 -326 m 471 94 q 547 158 515 115 q 579 271 579 200 l 579 292 l 383 432 q 345 460 367 444 q 303 491 324 475 q 264 521 282 507 q 235 546 246 535 q 180 502 201 533 q 158 418 158 471 q 177 347 158 381 q 225 285 196 314 q 289 229 254 256 q 357 178 324 203 l 471 94 z "},"¨":{"ha":694,"x_min":161,"x_max":526,"o":"m 172 947 l 251 954 l 283 947 l 290 886 l 278 831 l 199 824 l 168 831 l 161 896 l 172 947 m 408 947 l 488 954 l 519 947 l 526 886 l 514 831 l 435 824 l 404 831 l 397 896 l 408 947 z "},"©":{"ha":1167,"x_min":69,"x_max":1097,"o":"m 814 390 l 814 246 q 764 228 788 236 q 715 213 740 219 q 663 203 690 207 q 603 196 636 199 q 484 213 540 196 q 385 266 428 231 q 317 353 342 301 q 292 474 292 404 q 378 687 292 611 q 614 776 464 763 q 727 765 681 776 q 814 732 774 753 l 814 590 l 803 590 l 738 714 q 688 749 715 736 q 617 763 660 763 q 542 746 576 763 q 481 694 507 729 q 440 608 454 660 q 425 489 425 557 q 437 381 425 432 q 473 293 449 331 q 534 233 497 256 q 622 211 571 211 q 688 225 658 211 q 738 258 718 239 l 803 390 l 814 390 m 585 -21 q 388 15 482 -19 q 224 116 294 50 q 111 277 153 182 q 69 494 69 372 q 106 690 69 604 q 210 837 143 775 q 372 938 278 899 q 582 993 467 976 q 778 957 685 992 q 943 856 872 922 q 1056 695 1014 790 q 1097 478 1097 600 q 1060 283 1097 368 q 956 135 1024 197 q 794 35 889 74 q 585 -21 700 -4 m 582 4 q 747 36 668 4 q 887 129 826 68 q 983 278 947 190 q 1019 478 1019 365 q 976 697 1019 604 q 868 849 933 789 q 727 939 803 910 q 585 968 651 968 q 419 936 499 968 q 280 843 340 904 q 183 694 219 782 q 147 494 147 607 q 190 276 147 368 q 299 123 233 183 q 440 33 364 63 q 582 4 515 4 z "},"ª":{"ha":601,"x_min":56,"x_max":553,"o":"m 286 994 q 379 985 346 994 q 436 956 413 976 q 464 901 457 935 q 471 824 471 868 l 471 578 q 476 525 471 550 q 490 475 482 500 l 550 483 l 553 472 l 388 440 l 365 539 l 207 431 q 98 465 140 431 q 56 567 56 500 q 67 625 56 594 q 117 683 79 656 l 363 761 l 363 839 q 360 885 363 864 q 349 921 358 906 q 320 945 340 936 q 264 954 300 954 q 234 952 247 954 q 197 943 221 950 l 172 814 l 74 814 l 74 900 l 286 994 m 363 751 l 221 697 q 183 653 197 678 q 169 593 169 629 q 191 522 169 549 q 247 496 213 496 q 294 507 271 496 q 332 529 317 518 l 363 550 l 363 751 z "},"«":{"ha":575,"x_min":21,"x_max":533,"o":"m 272 21 l 21 326 l 274 632 l 292 632 l 110 326 l 292 21 l 272 21 m 515 21 l 264 326 l 517 632 l 533 632 l 353 326 l 533 21 l 515 21 z "},"¬":{"ha":861,"x_min":74,"x_max":788,"o":"m 788 249 l 754 249 l 754 458 l 74 458 l 74 492 l 788 492 l 788 249 z "},"­":{"ha":507,"x_min":42,"x_max":465,"o":"m 42 407 l 465 407 l 465 364 l 42 364 l 42 407 z "},"®":{"ha":822,"x_min":63,"x_max":760,"o":"m 356 597 l 356 431 l 394 426 l 394 419 l 238 419 l 238 426 l 278 431 l 278 783 l 238 786 l 238 794 l 435 794 q 519 773 482 794 q 557 703 557 751 q 513 629 557 654 q 397 599 468 604 l 486 581 l 579 431 l 606 426 l 606 419 l 497 419 l 393 597 l 356 597 m 356 607 l 382 607 q 449 631 426 607 q 471 699 471 656 q 450 763 471 739 q 397 786 429 786 l 356 783 l 356 607 m 413 257 q 278 281 342 257 q 167 351 215 306 q 91 461 119 396 q 63 610 63 526 q 88 743 63 685 q 158 844 113 801 q 268 913 204 886 q 410 951 332 940 q 544 927 481 951 q 655 858 607 903 q 731 748 703 814 q 760 599 760 682 q 735 465 760 524 q 664 365 710 407 q 554 295 618 322 q 413 257 490 268 m 410 275 q 521 297 468 275 q 614 359 574 318 q 678 460 654 400 q 701 599 701 521 q 673 749 701 686 q 601 853 644 813 q 506 914 557 894 q 413 933 456 933 q 301 912 354 933 q 208 849 249 890 q 144 748 168 808 q 121 610 121 688 q 149 459 121 522 q 222 355 178 396 q 315 294 265 314 q 410 275 365 275 z "},"¯":{"ha":694,"x_min":150,"x_max":546,"o":"m 150 914 l 546 914 l 546 865 l 150 865 l 150 914 z "},"°":{"ha":599,"x_min":83,"x_max":515,"o":"m 83 831 q 98 908 83 875 q 140 967 113 942 q 208 1011 168 992 q 300 1046 249 1031 q 383 1028 344 1046 q 451 982 422 1011 q 498 914 481 953 q 515 831 515 875 q 465 692 515 743 q 300 615 414 640 q 216 633 256 615 q 147 679 176 650 q 101 747 118 708 q 83 831 83 786 m 133 831 q 147 767 133 797 q 183 713 160 736 q 236 677 206 690 q 300 664 267 664 q 368 677 338 664 q 420 713 399 690 q 453 767 442 736 q 465 831 465 797 q 452 894 465 864 q 416 947 439 925 q 363 983 393 969 q 300 996 333 996 q 232 983 263 996 q 179 947 201 969 q 145 894 157 925 q 133 831 133 864 z "},"±":{"ha":861,"x_min":67,"x_max":796,"o":"m 408 192 l 408 528 l 67 528 l 67 560 l 408 560 l 408 907 l 442 907 l 442 560 l 783 560 l 783 528 l 442 528 l 442 192 l 408 192 m 67 33 l 796 33 l 796 0 l 67 0 l 67 33 z "},"²":{"ha":478,"x_min":14,"x_max":436,"o":"m 100 638 l 436 638 l 436 626 l 407 556 l 22 556 l 14 565 l 111 663 q 255 830 211 758 q 299 967 299 901 q 274 1046 299 1017 q 215 1075 250 1075 q 158 1065 185 1075 l 126 940 l 32 940 l 32 1031 l 236 1103 q 319 1092 285 1103 q 375 1063 353 1081 q 407 1021 397 1044 q 417 972 417 997 q 358 831 417 894 q 186 690 300 767 l 100 638 z "},"³":{"ha":436,"x_min":28,"x_max":388,"o":"m 31 553 l 31 633 l 233 633 q 267 675 256 654 q 279 726 279 696 q 240 801 279 769 q 126 832 201 833 l 124 843 l 172 871 q 219 899 201 885 q 247 927 238 913 q 259 957 256 942 q 263 990 263 972 q 242 1050 263 1028 q 190 1072 221 1072 q 167 1069 179 1072 q 147 1063 154 1065 l 115 958 l 28 958 l 28 1038 l 238 1103 q 301 1094 275 1103 q 342 1073 326 1086 q 364 1043 357 1060 q 371 1011 371 1026 q 364 977 371 994 q 339 944 357 960 q 290 913 321 928 q 213 885 260 897 q 344 844 300 882 q 388 764 388 807 q 351 681 388 714 q 240 614 314 647 l 97 553 l 31 553 z "},"´":{"ha":694,"x_min":210,"x_max":418,"o":"m 210 761 l 290 1004 l 418 1004 l 226 761 l 210 761 z "},"µ":{"ha":861,"x_min":121,"x_max":739,"o":"m 647 647 l 647 22 l 739 14 l 739 0 l 576 0 l 535 78 l 517 128 l 279 -21 q 210 -11 239 -21 q 164 14 181 -1 q 151 29 157 21 q 140 49 144 38 l 140 -42 l 261 -319 l 121 -319 l 121 647 l 257 647 l 257 176 q 278 89 257 114 q 338 64 300 64 q 394 75 369 64 q 453 107 418 86 l 515 143 l 515 647 l 647 647 z "},"¶":{"ha":667,"x_min":42,"x_max":611,"o":"m 274 553 q 187 565 229 553 q 113 603 144 578 q 61 664 81 628 q 42 747 42 700 q 59 817 42 785 q 106 878 76 850 q 175 928 136 906 q 257 972 214 951 l 611 972 l 611 958 l 542 950 l 542 -221 l 510 -221 l 510 953 l 306 953 l 306 -221 l 274 -221 l 274 553 z "},"·":{"ha":304,"x_min":76,"x_max":228,"o":"m 86 629 l 183 636 l 221 629 l 228 557 l 217 492 l 119 485 l 83 492 l 76 567 l 86 629 z "},"¸":{"ha":694,"x_min":228,"x_max":489,"o":"m 415 1 l 372 -68 q 456 -100 422 -72 q 488 -172 489 -128 q 476 -219 488 -199 q 446 -253 464 -239 q 406 -278 428 -268 q 364 -297 385 -289 l 264 -337 l 228 -337 l 264 -283 l 374 -283 q 403 -244 393 -268 q 414 -196 414 -221 q 387 -137 414 -154 q 325 -117 360 -119 l 401 3 l 415 1 z "},"¹":{"ha":363,"x_min":28,"x_max":356,"o":"m 32 1013 l 28 1022 l 233 1097 l 244 1097 l 244 572 l 356 567 l 356 556 l 35 556 l 35 567 l 143 572 l 143 1049 l 32 1013 z "},"º":{"ha":610,"x_min":49,"x_max":561,"o":"m 290 968 q 195 907 228 968 q 163 738 163 846 q 174 626 163 676 q 206 540 185 576 q 255 484 226 504 q 318 464 283 464 q 414 526 381 464 q 447 696 447 589 q 402 897 447 826 q 290 968 357 968 m 289 439 q 192 458 236 439 q 117 513 149 478 q 67 597 85 549 q 49 704 49 646 q 68 818 49 769 q 124 901 88 867 q 209 958 160 936 q 319 994 258 981 q 417 975 372 994 q 493 920 461 956 q 543 836 525 885 q 561 729 561 788 q 542 616 561 664 q 486 533 522 568 q 400 476 450 499 q 289 439 350 453 z "},"»":{"ha":575,"x_min":42,"x_max":554,"o":"m 465 326 l 285 632 l 301 632 l 554 326 l 303 21 l 285 21 l 465 326 m 224 326 l 42 632 l 60 632 l 313 326 l 61 21 l 42 21 l 224 326 z "},"¼":{"ha":1093,"x_min":42,"x_max":1051,"o":"m 276 -69 l 236 -69 l 774 986 l 811 986 l 276 -69 m 940 183 l 1051 183 l 1051 171 l 940 171 l 940 0 l 839 0 l 839 171 l 613 171 l 604 182 l 854 535 l 985 535 l 985 525 l 621 183 l 839 183 l 839 303 l 940 357 l 940 183 m 46 894 l 42 904 l 247 979 l 258 979 l 258 454 l 369 449 l 369 438 l 49 438 l 49 449 l 157 454 l 157 931 l 46 894 z "},"½":{"ha":1118,"x_min":42,"x_max":1076,"o":"m 46 894 l 42 904 l 247 979 l 258 979 l 258 454 l 369 449 l 369 438 l 49 438 l 49 449 l 157 454 l 157 931 l 46 894 m 276 -69 l 236 -69 l 774 986 l 811 986 l 276 -69 m 740 82 l 1076 82 l 1076 71 l 1047 0 l 664 0 l 654 10 l 751 107 q 895 274 851 203 q 939 411 939 346 q 915 491 939 463 q 856 519 890 519 q 799 510 825 519 l 767 385 l 672 385 l 672 475 l 878 547 q 959 536 925 547 q 1015 507 993 525 q 1047 465 1038 489 q 1057 417 1057 442 q 999 275 1057 339 q 826 135 940 211 l 740 82 z "},"¾":{"ha":1107,"x_min":42,"x_max":1065,"o":"m 292 -69 l 250 -69 l 788 986 l 826 986 l 292 -69 m 956 183 l 1065 183 l 1065 171 l 956 171 l 956 0 l 854 0 l 854 171 l 626 171 l 618 182 l 869 535 l 999 535 l 999 525 l 636 183 l 854 183 l 854 303 l 956 357 l 956 183 m 44 435 l 44 515 l 247 515 q 281 557 269 536 q 293 608 293 578 q 254 683 293 651 q 140 714 215 715 l 138 725 l 186 753 q 233 781 215 767 q 260 809 251 794 q 273 839 269 824 q 276 872 276 854 q 256 932 276 910 q 204 954 235 954 q 181 951 193 954 q 161 944 168 947 l 128 840 l 42 840 l 42 919 l 251 985 q 315 976 289 985 q 356 955 340 968 q 378 925 371 942 q 385 893 385 908 q 378 859 385 876 q 353 826 371 842 q 304 794 335 810 q 226 767 274 779 q 358 726 314 764 q 401 646 401 689 q 365 562 401 596 q 254 496 328 528 l 111 435 l 44 435 z "},"¿":{"ha":539,"x_min":28,"x_max":456,"o":"m 376 524 l 288 517 l 254 524 l 249 590 l 261 650 l 349 657 l 381 650 l 388 579 l 376 524 m 28 -124 q 76 22 28 -36 q 215 124 124 79 l 290 163 l 300 351 l 338 351 l 353 183 l 299 143 q 237 85 263 114 q 194 25 211 57 q 169 -45 178 -7 q 161 -132 161 -83 q 169 -202 161 -169 q 197 -261 178 -235 q 248 -303 217 -287 q 324 -324 279 -319 l 392 -146 l 456 -146 l 456 -318 l 317 -337 q 185 -316 239 -336 q 95 -265 131 -296 q 44 -198 60 -235 q 28 -124 28 -161 z "},"À":{"ha":968,"x_min":7,"x_max":961,"o":"m 864 22 l 961 14 l 961 0 l 583 0 l 583 13 l 700 22 l 592 351 l 247 351 l 132 22 l 250 13 l 250 0 l 7 0 l 7 14 l 107 22 l 433 940 l 538 990 l 864 22 m 256 372 l 585 372 l 426 860 l 256 372 m 486 1067 l 304 1253 l 439 1253 l 503 1067 l 486 1067 z "},"Á":{"ha":968,"x_min":7,"x_max":961,"o":"m 864 22 l 961 14 l 961 0 l 583 0 l 583 13 l 700 22 l 592 351 l 247 351 l 132 22 l 250 13 l 250 0 l 7 0 l 7 14 l 107 22 l 433 940 l 538 990 l 864 22 m 256 372 l 585 372 l 426 860 l 256 372 m 543 1253 l 678 1253 l 496 1067 l 479 1067 l 543 1253 z "},"Â":{"ha":968,"x_min":7,"x_max":961,"o":"m 864 22 l 961 14 l 961 0 l 583 0 l 583 13 l 700 22 l 592 351 l 247 351 l 132 22 l 250 13 l 250 0 l 7 0 l 7 14 l 107 22 l 433 940 l 538 990 l 864 22 m 256 372 l 585 372 l 426 860 l 256 372 m 311 1067 l 293 1067 l 471 1261 l 503 1261 l 681 1067 l 663 1067 l 489 1182 l 483 1182 l 311 1067 z "},"Ã":{"ha":968,"x_min":7,"x_max":961,"o":"m 864 22 l 961 14 l 961 0 l 583 0 l 583 13 l 700 22 l 592 351 l 247 351 l 132 22 l 250 13 l 250 0 l 7 0 l 7 14 l 107 22 l 433 940 l 538 990 l 864 22 m 256 372 l 585 372 l 426 860 l 256 372 m 315 1214 l 392 1240 l 675 1129 l 719 1244 l 732 1244 l 693 1092 l 617 1067 l 333 1179 l 289 1064 l 276 1064 l 315 1214 z "},"Ä":{"ha":968,"x_min":7,"x_max":961,"o":"m 864 22 l 961 14 l 961 0 l 583 0 l 583 13 l 700 22 l 592 351 l 247 351 l 132 22 l 250 13 l 250 0 l 7 0 l 7 14 l 107 22 l 433 940 l 538 990 l 864 22 m 256 372 l 585 372 l 426 860 l 256 372 m 281 1217 l 360 1224 l 392 1217 l 399 1156 l 386 1101 l 307 1094 l 275 1101 l 269 1165 l 281 1217 m 585 1217 l 664 1224 l 696 1217 l 703 1156 l 690 1101 l 611 1094 l 579 1101 l 574 1165 l 585 1217 z "},"Å":{"ha":968,"x_min":7,"x_max":961,"o":"m 864 22 l 961 14 l 961 0 l 583 0 l 583 13 l 700 22 l 592 351 l 247 351 l 132 22 l 250 13 l 250 0 l 7 0 l 7 14 l 107 22 l 433 940 l 538 990 l 864 22 m 256 372 l 585 372 l 426 860 l 256 372 m 625 1154 q 613 1099 625 1121 q 582 1063 601 1078 q 536 1037 563 1047 q 481 1017 510 1026 q 427 1024 453 1017 q 381 1048 401 1032 q 347 1089 360 1064 q 335 1150 335 1114 q 347 1205 335 1183 q 378 1242 358 1226 q 425 1267 399 1257 q 479 1289 451 1278 q 533 1282 507 1289 q 580 1259 560 1275 q 613 1217 600 1243 q 625 1154 625 1192 m 376 1153 q 405 1075 376 1104 q 479 1046 433 1046 q 555 1075 525 1046 q 585 1153 585 1104 q 555 1231 585 1201 q 479 1260 525 1260 q 405 1231 433 1260 q 376 1153 376 1201 z "},"Æ":{"ha":1332,"x_min":7,"x_max":1296,"o":"m 689 935 l 414 478 l 689 478 l 689 935 m 253 0 l 7 0 l 7 14 l 107 22 l 690 972 l 1289 972 l 1289 719 l 1275 719 l 1181 953 l 838 953 l 838 478 l 1019 478 l 1081 643 l 1094 643 l 1094 296 l 1081 296 l 1019 458 l 838 458 l 838 19 l 1190 19 l 1282 260 l 1296 260 l 1296 0 l 579 0 l 579 14 l 689 22 l 689 458 l 401 458 l 135 22 l 253 13 l 253 0 z "},"Ç":{"ha":940,"x_min":53,"x_max":875,"o":"m 403 -337 l 368 -337 l 404 -283 l 513 -283 q 542 -244 532 -268 q 553 -196 553 -221 q 526 -137 553 -154 q 464 -117 500 -119 l 525 -22 q 345 13 431 -21 q 195 108 260 46 q 92 260 131 169 q 53 468 53 350 q 89 678 53 585 q 190 838 125 771 q 349 944 256 904 q 554 994 442 983 q 733 974 656 994 q 874 922 810 954 l 874 692 l 860 692 l 772 886 q 686 949 736 924 q 556 975 636 975 q 427 944 488 975 q 321 853 367 914 q 249 702 275 793 q 222 490 222 611 q 242 304 222 393 q 305 148 263 215 q 413 41 347 81 q 571 1 479 1 q 686 26 633 1 q 774 88 739 51 l 861 297 l 875 297 l 875 65 q 797 35 835 49 q 720 10 760 21 q 636 -9 681 -1 q 540 -22 592 -17 l 511 -68 q 594 -100 561 -72 q 628 -172 628 -128 q 615 -219 628 -199 q 585 -253 603 -239 q 545 -278 567 -268 q 503 -297 524 -289 l 403 -337 z "},"È":{"ha":835,"x_min":39,"x_max":792,"o":"m 472 1067 l 290 1253 l 425 1253 l 489 1067 l 472 1067 m 39 14 l 149 22 l 149 950 l 39 958 l 39 972 l 785 972 l 785 719 l 771 719 l 678 953 l 297 953 l 297 518 l 517 518 l 578 683 l 592 683 l 592 336 l 578 336 l 517 500 l 297 500 l 297 19 l 688 19 l 778 260 l 792 260 l 792 0 l 39 0 l 39 14 z "},"É":{"ha":835,"x_min":39,"x_max":792,"o":"m 493 1253 l 628 1253 l 446 1067 l 429 1067 l 493 1253 m 39 14 l 149 22 l 149 950 l 39 958 l 39 972 l 785 972 l 785 719 l 771 719 l 678 953 l 297 953 l 297 518 l 517 518 l 578 683 l 592 683 l 592 336 l 578 336 l 517 500 l 297 500 l 297 19 l 688 19 l 778 260 l 792 260 l 792 0 l 39 0 l 39 14 z "},"Ê":{"ha":835,"x_min":39,"x_max":792,"o":"m 294 1067 l 276 1067 l 454 1261 l 486 1261 l 664 1067 l 647 1067 l 472 1182 l 467 1182 l 294 1067 m 39 14 l 149 22 l 149 950 l 39 958 l 39 972 l 785 972 l 785 719 l 771 719 l 678 953 l 297 953 l 297 518 l 517 518 l 578 683 l 592 683 l 592 336 l 578 336 l 517 500 l 297 500 l 297 19 l 688 19 l 778 260 l 792 260 l 792 0 l 39 0 l 39 14 z "},"Ë":{"ha":835,"x_min":39,"x_max":792,"o":"m 572 1217 l 651 1224 l 683 1217 l 690 1156 l 678 1101 l 599 1094 l 567 1101 l 560 1165 l 572 1217 m 268 1217 l 347 1224 l 379 1217 l 386 1156 l 374 1101 l 294 1094 l 263 1101 l 256 1165 l 268 1217 m 39 14 l 149 22 l 149 950 l 39 958 l 39 972 l 785 972 l 785 719 l 771 719 l 678 953 l 297 953 l 297 518 l 517 518 l 578 683 l 592 683 l 592 336 l 578 336 l 517 500 l 297 500 l 297 19 l 688 19 l 778 260 l 792 260 l 792 0 l 39 0 l 39 14 z "},"Ì":{"ha":446,"x_min":39,"x_max":407,"o":"m 256 1067 l 75 1253 l 208 1253 l 274 1067 l 256 1067 m 297 22 l 407 14 l 407 0 l 39 0 l 39 14 l 149 22 l 149 950 l 39 958 l 39 972 l 407 972 l 407 958 l 297 950 l 297 22 z "},"Í":{"ha":446,"x_min":39,"x_max":413,"o":"m 279 1253 l 413 1253 l 232 1067 l 214 1067 l 279 1253 m 297 22 l 407 14 l 407 0 l 39 0 l 39 14 l 149 22 l 149 950 l 39 958 l 39 972 l 407 972 l 407 958 l 297 950 l 297 22 z "},"Î":{"ha":446,"x_min":29,"x_max":417,"o":"m 47 1067 l 29 1067 l 207 1261 l 239 1261 l 417 1067 l 400 1067 l 225 1182 l 219 1182 l 47 1067 m 297 22 l 407 14 l 407 0 l 39 0 l 39 14 l 149 22 l 149 950 l 39 958 l 39 972 l 407 972 l 407 958 l 297 950 l 297 22 z "},"Ï":{"ha":446,"x_min":19,"x_max":438,"o":"m 31 1217 l 110 1224 l 142 1217 l 149 1156 l 136 1101 l 57 1094 l 26 1101 l 19 1165 l 31 1217 m 319 1217 l 399 1224 l 431 1217 l 438 1156 l 425 1101 l 346 1094 l 314 1101 l 307 1165 l 319 1217 m 297 22 l 407 14 l 407 0 l 39 0 l 39 14 l 149 22 l 149 950 l 39 958 l 39 972 l 407 972 l 407 958 l 297 950 l 297 22 z "},"Ð":{"ha":1003,"x_min":39,"x_max":951,"o":"m 39 0 l 39 14 l 158 22 l 158 501 l 53 501 l 53 514 l 158 514 l 158 950 l 39 958 l 39 972 l 481 972 q 676 941 589 972 q 825 850 764 910 q 919 703 886 790 q 951 504 951 615 q 922 306 951 397 q 834 149 893 215 q 687 43 775 82 q 481 0 599 4 l 39 0 m 469 14 q 599 49 540 14 q 700 147 658 83 q 765 299 742 210 q 788 499 788 389 q 769 684 788 600 q 710 829 750 768 q 606 924 669 890 q 454 958 543 958 l 308 950 l 308 514 l 497 514 l 497 501 l 308 501 l 308 22 l 469 14 z "},"Ñ":{"ha":956,"x_min":39,"x_max":942,"o":"m 351 1214 l 429 1240 l 711 1129 l 757 1244 l 769 1244 l 731 1092 l 653 1067 l 369 1179 l 325 1064 l 313 1064 l 351 1214 m 763 -7 l 169 928 l 169 22 l 283 14 l 283 0 l 39 0 l 39 14 l 149 22 l 149 950 l 39 958 l 39 972 l 321 972 l 811 207 l 811 950 l 697 958 l 697 972 l 942 972 l 942 958 l 832 950 l 832 -7 l 763 -7 z "},"Ò":{"ha":1056,"x_min":53,"x_max":1004,"o":"m 550 1067 l 368 1253 l 503 1253 l 567 1067 l 550 1067 m 557 8 q 675 43 624 8 q 762 140 726 78 q 815 284 797 201 q 833 463 833 367 q 808 663 833 571 q 739 822 783 754 q 633 926 694 889 q 500 964 572 964 q 382 929 433 964 q 295 833 331 894 q 241 690 260 772 q 222 511 222 607 q 247 310 222 403 q 317 151 272 218 q 424 46 363 83 q 557 8 485 8 m 514 -22 q 326 15 411 -22 q 181 118 242 53 q 86 273 119 183 q 53 467 53 363 q 173 822 53 689 q 542 994 293 956 q 729 957 644 994 q 875 854 814 919 q 970 699 936 789 q 1004 506 1004 610 q 884 150 1004 283 q 514 -22 764 17 z "},"Ó":{"ha":1056,"x_min":53,"x_max":1004,"o":"m 567 1253 l 701 1253 l 519 1067 l 503 1067 l 567 1253 m 557 8 q 675 43 624 8 q 762 140 726 78 q 815 284 797 201 q 833 463 833 367 q 808 663 833 571 q 739 822 783 754 q 633 926 694 889 q 500 964 572 964 q 382 929 433 964 q 295 833 331 894 q 241 690 260 772 q 222 511 222 607 q 247 310 222 403 q 317 151 272 218 q 424 46 363 83 q 557 8 485 8 m 514 -22 q 326 15 411 -22 q 181 118 242 53 q 86 273 119 183 q 53 467 53 363 q 173 822 53 689 q 542 994 293 956 q 729 957 644 994 q 875 854 814 919 q 970 699 936 789 q 1004 506 1004 610 q 884 150 1004 283 q 514 -22 764 17 z "},"Ô":{"ha":1056,"x_min":53,"x_max":1004,"o":"m 349 1067 l 331 1067 l 508 1261 l 540 1261 l 718 1067 l 701 1067 l 526 1182 l 521 1182 l 349 1067 m 557 8 q 675 43 624 8 q 762 140 726 78 q 815 284 797 201 q 833 463 833 367 q 808 663 833 571 q 739 822 783 754 q 633 926 694 889 q 500 964 572 964 q 382 929 433 964 q 295 833 331 894 q 241 690 260 772 q 222 511 222 607 q 247 310 222 403 q 317 151 272 218 q 424 46 363 83 q 557 8 485 8 m 514 -22 q 326 15 411 -22 q 181 118 242 53 q 86 273 119 183 q 53 467 53 363 q 173 822 53 689 q 542 994 293 956 q 729 957 644 994 q 875 854 814 919 q 970 699 936 789 q 1004 506 1004 610 q 884 150 1004 283 q 514 -22 764 17 z "},"Õ":{"ha":1056,"x_min":53,"x_max":1004,"o":"m 354 1214 l 431 1240 l 714 1129 l 758 1244 l 771 1244 l 732 1092 l 654 1067 l 371 1179 l 326 1064 l 315 1064 l 354 1214 m 557 8 q 675 43 624 8 q 762 140 726 78 q 815 284 797 201 q 833 463 833 367 q 808 663 833 571 q 739 822 783 754 q 633 926 694 889 q 500 964 572 964 q 382 929 433 964 q 295 833 331 894 q 241 690 260 772 q 222 511 222 607 q 247 310 222 403 q 317 151 272 218 q 424 46 363 83 q 557 8 485 8 m 514 -22 q 326 15 411 -22 q 181 118 242 53 q 86 273 119 183 q 53 467 53 363 q 173 822 53 689 q 542 994 293 956 q 729 957 644 994 q 875 854 814 919 q 970 699 936 789 q 1004 506 1004 610 q 884 150 1004 283 q 514 -22 764 17 z "},"Ö":{"ha":1056,"x_min":53,"x_max":1004,"o":"m 331 1217 l 410 1224 l 442 1217 l 449 1156 l 436 1101 l 357 1094 l 326 1101 l 319 1165 l 331 1217 m 635 1217 l 714 1224 l 746 1217 l 753 1156 l 740 1101 l 661 1094 l 631 1101 l 624 1165 l 635 1217 m 557 8 q 675 43 624 8 q 762 140 726 78 q 815 284 797 201 q 833 463 833 367 q 808 663 833 571 q 739 822 783 754 q 633 926 694 889 q 500 964 572 964 q 382 929 433 964 q 295 833 331 894 q 241 690 260 772 q 222 511 222 607 q 247 310 222 403 q 317 151 272 218 q 424 46 363 83 q 557 8 485 8 m 514 -22 q 326 15 411 -22 q 181 118 242 53 q 86 273 119 183 q 53 467 53 363 q 173 822 53 689 q 542 994 293 956 q 729 957 644 994 q 875 854 814 919 q 970 699 936 789 q 1004 506 1004 610 q 884 150 1004 283 q 514 -22 764 17 z "},"×":{"ha":861,"x_min":157,"x_max":703,"o":"m 679 42 l 431 289 l 182 39 l 158 63 l 407 313 l 157 563 l 181 586 l 431 335 l 678 583 l 701 561 l 454 313 l 703 64 l 679 42 z "},"Ø":{"ha":1056,"x_min":53,"x_max":1004,"o":"m 514 -22 q 356 3 428 -22 q 226 75 285 29 l 150 -21 l 121 -21 l 210 90 q 94 253 135 157 q 53 467 53 349 q 173 822 53 689 q 542 994 293 956 q 708 966 632 994 q 843 885 783 938 l 929 993 l 956 993 l 858 871 q 966 710 928 804 q 1004 506 1004 617 q 884 150 1004 283 q 514 -22 764 17 m 222 511 q 240 338 222 418 q 292 193 258 257 l 761 783 q 650 915 717 867 q 500 964 583 964 q 382 929 433 964 q 295 833 331 894 q 241 690 260 772 q 222 511 222 607 m 557 8 q 675 43 624 8 q 762 140 726 78 q 815 284 797 201 q 833 463 833 367 q 817 624 833 549 q 772 763 801 700 l 303 172 q 413 51 347 94 q 557 8 478 8 z "},"Ù":{"ha":921,"x_min":14,"x_max":907,"o":"m 538 1067 l 357 1253 l 490 1253 l 556 1067 l 538 1067 m 656 958 l 656 972 l 907 972 l 907 958 l 797 950 l 797 331 q 783 210 797 267 q 734 106 769 153 q 638 27 699 60 q 481 -22 576 -6 q 317 4 385 -22 q 206 78 249 31 q 142 193 163 126 q 122 340 122 260 l 122 950 l 14 958 l 14 972 l 382 972 l 382 958 l 272 950 l 272 328 q 289 212 272 265 q 338 118 306 158 q 419 55 371 78 q 531 32 467 32 q 628 55 585 32 q 702 118 671 78 q 750 212 733 158 q 767 328 767 265 l 767 950 l 656 958 z "},"Ú":{"ha":921,"x_min":14,"x_max":907,"o":"m 557 1253 l 690 1253 l 510 1067 l 492 1067 l 557 1253 m 656 958 l 656 972 l 907 972 l 907 958 l 797 950 l 797 331 q 783 210 797 267 q 734 106 769 153 q 638 27 699 60 q 481 -22 576 -6 q 317 4 385 -22 q 206 78 249 31 q 142 193 163 126 q 122 340 122 260 l 122 950 l 14 958 l 14 972 l 382 972 l 382 958 l 272 950 l 272 328 q 289 212 272 265 q 338 118 306 158 q 419 55 371 78 q 531 32 467 32 q 628 55 585 32 q 702 118 671 78 q 750 212 733 158 q 767 328 767 265 l 767 950 l 656 958 z "},"Û":{"ha":921,"x_min":14,"x_max":907,"o":"m 340 1067 l 322 1067 l 500 1261 l 532 1261 l 710 1067 l 693 1067 l 518 1182 l 513 1182 l 340 1067 m 656 958 l 656 972 l 907 972 l 907 958 l 797 950 l 797 331 q 783 210 797 267 q 734 106 769 153 q 638 27 699 60 q 481 -22 576 -6 q 317 4 385 -22 q 206 78 249 31 q 142 193 163 126 q 122 340 122 260 l 122 950 l 14 958 l 14 972 l 382 972 l 382 958 l 272 950 l 272 328 q 289 212 272 265 q 338 118 306 158 q 419 55 371 78 q 531 32 467 32 q 628 55 585 32 q 702 118 671 78 q 750 212 733 158 q 767 328 767 265 l 767 950 l 656 958 z "},"Ü":{"ha":921,"x_min":14,"x_max":907,"o":"m 311 1217 l 390 1224 l 422 1217 l 429 1156 l 417 1101 l 338 1094 l 307 1101 l 300 1165 l 311 1217 m 615 1217 l 694 1224 l 726 1217 l 733 1156 l 721 1101 l 642 1094 l 611 1101 l 604 1165 l 615 1217 m 656 958 l 656 972 l 907 972 l 907 958 l 797 950 l 797 331 q 783 210 797 267 q 734 106 769 153 q 638 27 699 60 q 481 -22 576 -6 q 317 4 385 -22 q 206 78 249 31 q 142 193 163 126 q 122 340 122 260 l 122 950 l 14 958 l 14 972 l 382 972 l 382 958 l 272 950 l 272 328 q 289 212 272 265 q 338 118 306 158 q 419 55 371 78 q 531 32 467 32 q 628 55 585 32 q 702 118 671 78 q 750 212 733 158 q 767 328 767 265 l 767 950 l 656 958 z "},"Ý":{"ha":956,"x_min":7,"x_max":949,"o":"m 600 1253 l 733 1253 l 553 1067 l 535 1067 l 600 1253 m 265 0 l 265 14 l 414 22 l 414 379 l 106 950 l 7 958 l 7 972 l 399 972 l 399 958 l 278 950 l 553 428 l 828 950 l 694 958 l 694 972 l 949 972 l 949 958 l 850 950 l 564 400 l 564 22 l 711 14 l 711 0 l 265 0 z "},"Þ":{"ha":804,"x_min":39,"x_max":786,"o":"m 297 247 l 406 247 q 493 267 453 247 q 562 320 533 286 q 606 401 590 354 q 622 504 622 449 q 611 599 622 554 q 576 676 600 643 q 516 729 553 710 q 426 749 479 749 l 297 749 l 297 247 m 418 0 l 39 0 l 39 14 l 149 22 l 149 950 l 39 958 l 39 972 l 418 972 l 418 958 l 297 950 l 297 767 l 488 767 q 603 751 549 767 q 698 703 657 735 q 763 626 739 672 q 786 517 786 579 q 758 399 786 447 q 681 318 729 351 q 572 264 633 285 q 443 228 510 243 l 297 228 l 297 22 l 418 14 l 418 0 z "},"ß":{"ha":793,"x_min":35,"x_max":765,"o":"m 533 -22 q 421 -6 475 -22 q 326 29 367 10 l 326 218 l 340 218 l 410 71 q 472 28 438 47 q 550 8 506 8 q 633 44 607 8 q 660 129 660 81 q 636 205 660 171 q 564 279 613 239 l 474 356 q 392 434 422 396 q 356 538 361 472 l 435 582 q 519 667 488 614 q 550 796 550 721 q 542 857 550 826 q 518 912 535 888 q 476 951 501 936 q 413 967 450 967 q 297 911 338 967 q 257 751 257 856 l 257 0 l 35 0 l 35 14 l 125 22 l 125 621 l 35 621 l 35 635 l 125 640 l 125 674 q 133 745 125 707 q 160 820 142 783 q 210 888 179 857 q 288 938 242 918 l 421 997 q 531 985 481 997 q 616 951 581 974 q 671 894 651 928 q 690 814 690 860 q 626 670 690 733 q 456 579 563 607 q 490 513 463 542 q 569 444 517 485 l 665 368 q 740 291 714 329 q 765 200 765 253 q 748 126 765 163 q 699 61 731 90 q 626 10 668 32 q 533 -22 583 -12 z "},"à":{"ha":656,"x_min":40,"x_max":649,"o":"m 381 761 l 190 1004 l 318 1004 l 397 761 l 381 761 m 322 668 q 439 658 397 668 q 508 621 481 647 q 542 556 533 596 q 550 460 550 515 l 550 160 q 556 96 550 126 q 574 33 563 65 l 647 43 l 649 31 l 447 -10 l 418 110 l 225 -21 q 92 22 143 -21 q 40 144 40 64 q 55 216 40 179 q 115 288 69 253 l 415 385 l 415 479 q 413 535 415 508 q 399 580 410 561 q 364 610 388 599 q 297 621 340 621 q 260 617 276 621 q 215 606 244 614 l 183 447 l 63 447 l 63 554 l 322 668 m 415 371 l 244 306 q 199 251 217 282 q 182 178 182 221 q 208 92 182 125 q 276 60 235 60 q 333 73 306 60 q 379 100 361 86 l 415 125 l 415 371 z "},"á":{"ha":656,"x_min":40,"x_max":649,"o":"m 358 1004 l 486 1004 l 296 761 l 279 761 l 358 1004 m 322 668 q 439 658 397 668 q 508 621 481 647 q 542 556 533 596 q 550 460 550 515 l 550 160 q 556 96 550 126 q 574 33 563 65 l 647 43 l 649 31 l 447 -10 l 418 110 l 225 -21 q 92 22 143 -21 q 40 144 40 64 q 55 216 40 179 q 115 288 69 253 l 415 385 l 415 479 q 413 535 415 508 q 399 580 410 561 q 364 610 388 599 q 297 621 340 621 q 260 617 276 621 q 215 606 244 614 l 183 447 l 63 447 l 63 554 l 322 668 m 415 371 l 244 306 q 199 251 217 282 q 182 178 182 221 q 208 92 182 125 q 276 60 235 60 q 333 73 306 60 q 379 100 361 86 l 415 125 l 415 371 z "},"â":{"ha":656,"x_min":40,"x_max":649,"o":"m 139 761 l 124 761 l 294 1017 l 324 1017 l 496 761 l 481 761 l 311 911 l 307 911 l 139 761 m 322 668 q 439 658 397 668 q 508 621 481 647 q 542 556 533 596 q 550 460 550 515 l 550 160 q 556 96 550 126 q 574 33 563 65 l 647 43 l 649 31 l 447 -10 l 418 110 l 225 -21 q 92 22 143 -21 q 40 144 40 64 q 55 216 40 179 q 115 288 69 253 l 415 385 l 415 479 q 413 535 415 508 q 399 580 410 561 q 364 610 388 599 q 297 621 340 621 q 260 617 276 621 q 215 606 244 614 l 183 447 l 63 447 l 63 554 l 322 668 m 415 371 l 244 306 q 199 251 217 282 q 182 178 182 221 q 208 92 182 125 q 276 60 235 60 q 333 73 306 60 q 379 100 361 86 l 415 125 l 415 371 z "},"ã":{"ha":656,"x_min":40,"x_max":649,"o":"m 125 953 l 201 979 l 485 868 l 529 982 l 542 982 l 503 831 l 425 804 l 142 918 l 97 801 l 86 801 l 125 953 m 322 668 q 439 658 397 668 q 508 621 481 647 q 542 556 533 596 q 550 460 550 515 l 550 160 q 556 96 550 126 q 574 33 563 65 l 647 43 l 649 31 l 447 -10 l 418 110 l 225 -21 q 92 22 143 -21 q 40 144 40 64 q 55 216 40 179 q 115 288 69 253 l 415 385 l 415 479 q 413 535 415 508 q 399 580 410 561 q 364 610 388 599 q 297 621 340 621 q 260 617 276 621 q 215 606 244 614 l 183 447 l 63 447 l 63 554 l 322 668 m 415 371 l 244 306 q 199 251 217 282 q 182 178 182 221 q 208 92 182 125 q 276 60 235 60 q 333 73 306 60 q 379 100 361 86 l 415 125 l 415 371 z "},"ä":{"ha":656,"x_min":40,"x_max":649,"o":"m 142 947 l 221 954 l 253 947 l 260 886 l 247 831 l 168 824 l 138 831 l 131 896 l 142 947 m 378 947 l 457 954 l 489 947 l 496 886 l 483 831 l 404 824 l 374 831 l 367 896 l 378 947 m 322 668 q 439 658 397 668 q 508 621 481 647 q 542 556 533 596 q 550 460 550 515 l 550 160 q 556 96 550 126 q 574 33 563 65 l 647 43 l 649 31 l 447 -10 l 418 110 l 225 -21 q 92 22 143 -21 q 40 144 40 64 q 55 216 40 179 q 115 288 69 253 l 415 385 l 415 479 q 413 535 415 508 q 399 580 410 561 q 364 610 388 599 q 297 621 340 621 q 260 617 276 621 q 215 606 244 614 l 183 447 l 63 447 l 63 554 l 322 668 m 415 371 l 244 306 q 199 251 217 282 q 182 178 182 221 q 208 92 182 125 q 276 60 235 60 q 333 73 306 60 q 379 100 361 86 l 415 125 l 415 371 z "},"å":{"ha":656,"x_min":40,"x_max":649,"o":"m 207 889 q 236 811 207 840 q 311 782 265 782 q 386 811 357 782 q 415 889 415 840 q 386 967 415 938 q 311 996 357 996 q 236 967 265 996 q 207 889 207 938 m 457 890 q 445 835 457 857 q 413 799 433 814 q 367 773 393 783 q 311 753 340 763 q 258 760 283 753 q 211 783 232 767 q 178 824 190 799 q 165 886 165 850 q 177 941 165 919 q 209 978 189 963 q 256 1003 229 993 q 311 1024 282 1014 q 365 1017 339 1024 q 412 994 392 1010 q 444 953 432 978 q 457 890 457 928 m 322 668 q 439 658 397 668 q 508 621 481 647 q 542 556 533 596 q 550 460 550 515 l 550 160 q 556 96 550 126 q 574 33 563 65 l 647 43 l 649 31 l 447 -10 l 418 110 l 225 -21 q 92 22 143 -21 q 40 144 40 64 q 55 216 40 179 q 115 288 69 253 l 415 385 l 415 479 q 413 535 415 508 q 399 580 410 561 q 364 610 388 599 q 297 621 340 621 q 260 617 276 621 q 215 606 244 614 l 183 447 l 63 447 l 63 554 l 322 668 m 415 371 l 244 306 q 199 251 217 282 q 182 178 182 221 q 208 92 182 125 q 276 60 235 60 q 333 73 306 60 q 379 100 361 86 l 415 125 l 415 371 z "},"æ":{"ha":1003,"x_min":40,"x_max":957,"o":"m 686 633 q 579 569 613 633 q 542 400 546 506 q 543 388 542 392 l 806 388 q 801 487 806 442 q 783 565 796 532 q 747 615 771 597 q 686 633 724 633 m 957 132 q 897 83 925 104 q 840 44 868 61 q 781 11 811 26 q 713 -21 750 -4 q 551 18 626 -21 q 439 139 476 57 l 225 -21 q 92 22 143 -21 q 40 144 40 64 q 55 216 40 179 q 115 288 69 253 l 407 385 l 407 479 q 405 533 407 507 q 392 578 403 558 q 361 609 382 597 q 301 621 340 621 q 278 620 288 621 q 260 617 269 619 q 241 613 251 615 q 217 606 231 610 l 186 447 l 64 447 l 64 554 l 319 668 q 403 664 368 668 q 462 649 438 660 q 501 617 486 638 q 524 564 515 597 q 616 631 564 607 q 726 668 668 654 q 894 601 838 668 q 950 418 950 533 l 950 374 l 544 374 q 543 360 543 367 q 543 346 543 353 q 565 230 546 279 q 613 149 583 181 q 683 101 643 117 q 769 85 724 85 q 863 102 818 85 q 947 144 907 119 l 957 132 m 275 60 q 326 74 304 60 q 372 107 349 89 l 422 146 q 415 172 418 156 q 410 205 413 188 q 408 240 408 222 q 407 269 407 257 l 407 371 l 244 306 q 199 251 217 282 q 182 179 182 221 q 208 92 182 125 q 275 60 235 60 z "},"ç":{"ha":610,"x_min":46,"x_max":575,"o":"m 217 -337 l 181 -337 l 217 -283 l 326 -283 q 356 -244 346 -268 q 367 -196 367 -221 q 340 -137 367 -154 q 278 -117 313 -119 l 339 -21 q 223 5 276 -18 q 130 69 169 28 q 68 167 90 110 q 46 299 46 225 q 74 447 46 382 q 147 557 101 511 q 253 630 193 603 q 376 668 313 657 q 424 662 399 668 q 475 645 450 656 q 524 622 500 635 q 564 596 547 610 l 564 469 l 457 469 l 403 631 q 351 640 375 640 q 281 626 314 640 q 222 582 247 613 q 182 503 197 551 q 167 386 167 454 q 183 265 167 321 q 231 169 200 210 q 306 106 263 129 q 403 82 350 82 q 490 97 451 82 q 569 144 529 113 l 575 135 q 469 47 522 83 q 354 -21 417 11 l 325 -68 q 408 -100 375 -72 q 440 -172 442 -128 q 428 -219 440 -199 q 399 -253 417 -239 q 359 -278 381 -268 q 317 -297 338 -289 l 217 -337 z "},"è":{"ha":646,"x_min":46,"x_max":599,"o":"m 361 -21 q 242 0 299 -21 q 141 61 185 21 q 72 160 97 101 q 46 297 46 219 q 70 441 46 378 q 137 550 94 504 q 235 625 179 596 q 354 668 292 654 q 534 601 475 668 q 593 418 593 533 l 593 379 l 167 379 l 167 378 q 186 252 167 307 q 240 160 206 197 q 319 103 274 122 q 418 85 365 85 q 508 102 465 85 q 590 144 550 119 l 599 135 q 540 85 567 107 q 485 46 513 64 q 427 12 457 28 q 361 -21 397 -4 m 318 633 q 205 567 240 633 q 167 393 169 501 l 449 393 l 449 418 q 443 505 449 465 q 423 573 438 544 q 383 617 408 601 q 318 633 358 633 m 368 761 l 178 1004 l 306 1004 l 385 761 l 368 761 z "},"é":{"ha":646,"x_min":46,"x_max":599,"o":"m 361 -21 q 242 0 299 -21 q 141 61 185 21 q 72 160 97 101 q 46 297 46 219 q 70 441 46 378 q 137 550 94 504 q 235 625 179 596 q 354 668 292 654 q 534 601 475 668 q 593 418 593 533 l 593 379 l 167 379 l 167 378 q 186 252 167 307 q 240 160 206 197 q 319 103 274 122 q 418 85 365 85 q 508 102 465 85 q 590 144 550 119 l 599 135 q 540 85 567 107 q 485 46 513 64 q 427 12 457 28 q 361 -21 397 -4 m 318 633 q 205 567 240 633 q 167 393 169 501 l 449 393 l 449 418 q 443 505 449 465 q 423 573 438 544 q 383 617 408 601 q 318 633 358 633 m 392 1004 l 518 1004 l 329 761 l 311 761 l 392 1004 z "},"ê":{"ha":646,"x_min":46,"x_max":599,"o":"m 361 -21 q 242 0 299 -21 q 141 61 185 21 q 72 160 97 101 q 46 297 46 219 q 70 441 46 378 q 137 550 94 504 q 235 625 179 596 q 354 668 292 654 q 534 601 475 668 q 593 418 593 533 l 593 379 l 167 379 l 167 378 q 186 252 167 307 q 240 160 206 197 q 319 103 274 122 q 418 85 365 85 q 508 102 465 85 q 590 144 550 119 l 599 135 q 540 85 567 107 q 485 46 513 64 q 427 12 457 28 q 361 -21 397 -4 m 318 633 q 205 567 240 633 q 167 393 169 501 l 449 393 l 449 418 q 443 505 449 465 q 423 573 438 544 q 383 617 408 601 q 318 633 358 633 m 168 761 l 153 761 l 325 1017 l 353 1017 l 526 761 l 511 761 l 342 911 l 336 911 l 168 761 z "},"ë":{"ha":646,"x_min":46,"x_max":599,"o":"m 361 -21 q 242 0 299 -21 q 141 61 185 21 q 72 160 97 101 q 46 297 46 219 q 70 441 46 378 q 137 550 94 504 q 235 625 179 596 q 354 668 292 654 q 534 601 475 668 q 593 418 593 533 l 593 379 l 167 379 l 167 378 q 186 252 167 307 q 240 160 206 197 q 319 103 274 122 q 418 85 365 85 q 508 102 465 85 q 590 144 550 119 l 599 135 q 540 85 567 107 q 485 46 513 64 q 427 12 457 28 q 361 -21 397 -4 m 318 633 q 205 567 240 633 q 167 393 169 501 l 449 393 l 449 418 q 443 505 449 465 q 423 573 438 544 q 383 617 408 601 q 318 633 358 633 m 178 947 l 256 954 l 288 947 l 296 886 l 283 831 l 204 824 l 172 831 l 165 896 l 178 947 m 414 947 l 492 954 l 524 947 l 532 886 l 519 831 l 440 824 l 408 831 l 401 896 l 414 947 z "},"ì":{"ha":381,"x_min":25,"x_max":353,"o":"m 215 761 l 25 1004 l 153 1004 l 232 761 l 215 761 m 47 0 l 47 14 l 133 22 l 133 615 l 44 594 l 42 608 l 251 661 l 265 661 l 265 22 l 353 14 l 353 0 l 47 0 z "},"í":{"ha":381,"x_min":42,"x_max":388,"o":"m 261 1004 l 388 1004 l 199 761 l 181 761 l 261 1004 m 47 0 l 47 14 l 133 22 l 133 615 l 44 594 l 42 608 l 251 661 l 265 661 l 265 22 l 353 14 l 353 0 l 47 0 z "},"î":{"ha":381,"x_min":8,"x_max":381,"o":"m 24 761 l 8 761 l 179 1017 l 208 1017 l 381 761 l 365 761 l 196 911 l 192 911 l 24 761 m 47 0 l 47 14 l 133 22 l 133 615 l 44 594 l 42 608 l 251 661 l 265 661 l 265 22 l 353 14 l 353 0 l 47 0 z "},"ï":{"ha":381,"x_min":8,"x_max":375,"o":"m 21 947 l 100 954 l 132 947 l 139 886 l 126 831 l 47 824 l 15 831 l 8 896 l 21 947 m 257 947 l 336 954 l 368 947 l 375 886 l 363 831 l 283 824 l 251 831 l 244 896 l 257 947 m 47 0 l 47 14 l 133 22 l 133 615 l 44 594 l 42 608 l 251 661 l 265 661 l 265 22 l 353 14 l 353 0 l 47 0 z "},"ð":{"ha":725,"x_min":35,"x_max":669,"o":"m 517 510 q 471 698 506 610 q 365 857 436 786 l 193 774 l 193 788 l 356 867 q 265 934 315 903 q 149 989 215 965 l 154 1000 q 287 951 226 979 q 397 886 347 922 l 543 957 l 543 944 l 408 879 q 526 769 476 829 q 607 642 575 708 q 654 505 639 575 q 669 365 669 435 q 649 220 669 290 q 590 97 629 150 q 494 11 551 43 q 364 -21 438 -21 q 215 38 276 1 q 113 124 153 75 q 53 231 72 172 q 35 357 35 290 q 49 464 35 411 q 92 558 63 517 q 167 626 122 600 q 275 651 213 651 l 517 510 m 181 300 q 217 83 181 150 q 333 15 254 15 q 413 47 378 15 q 471 131 447 78 q 507 256 494 185 q 519 408 519 328 q 519 450 519 428 q 517 494 518 472 l 467 521 q 392 556 422 546 q 325 567 361 567 q 217 499 254 567 q 181 300 181 431 z "},"ñ":{"ha":796,"x_min":42,"x_max":774,"o":"m 233 951 l 311 978 l 593 867 l 639 981 l 651 981 l 613 829 l 535 803 l 251 917 l 207 800 l 194 800 l 233 951 m 47 0 l 47 14 l 133 22 l 133 615 l 44 594 l 42 608 l 251 661 l 265 661 l 265 513 l 517 668 q 590 658 564 668 q 631 632 615 647 q 651 607 643 619 q 665 576 660 594 q 672 531 669 557 q 674 465 674 504 l 674 22 l 774 14 l 774 0 l 474 0 l 474 14 l 539 22 l 539 472 q 517 560 539 536 q 456 583 496 583 q 388 568 417 583 q 317 528 358 553 l 265 497 l 265 22 l 332 14 l 332 0 l 47 0 z "},"ò":{"ha":726,"x_min":46,"x_max":682,"o":"m 399 761 l 208 1004 l 336 1004 l 415 761 l 399 761 m 346 636 q 227 560 267 636 q 188 350 188 485 q 202 212 188 275 q 242 104 217 149 q 302 35 267 60 q 379 10 338 10 q 499 87 458 10 q 539 296 539 164 q 524 441 539 378 q 483 548 510 504 q 422 614 457 592 q 346 636 388 636 m 343 -21 q 224 3 278 -21 q 130 72 169 28 q 68 176 90 115 q 46 308 46 236 q 70 449 46 389 q 139 553 94 510 q 246 624 183 596 q 383 668 308 651 q 503 644 449 668 q 598 576 558 619 q 660 472 638 532 q 682 340 682 411 q 658 199 682 260 q 588 95 633 139 q 481 24 543 51 q 343 -21 418 -4 z "},"ó":{"ha":726,"x_min":46,"x_max":682,"o":"m 442 1004 l 568 1004 l 379 761 l 361 761 l 442 1004 m 346 636 q 227 560 267 636 q 188 350 188 485 q 202 212 188 275 q 242 104 217 149 q 302 35 267 60 q 379 10 338 10 q 499 87 458 10 q 539 296 539 164 q 524 441 539 378 q 483 548 510 504 q 422 614 457 592 q 346 636 388 636 m 343 -21 q 224 3 278 -21 q 130 72 169 28 q 68 176 90 115 q 46 308 46 236 q 70 449 46 389 q 139 553 94 510 q 246 624 183 596 q 383 668 308 651 q 503 644 449 668 q 598 576 558 619 q 660 472 638 532 q 682 340 682 411 q 658 199 682 260 q 588 95 633 139 q 481 24 543 51 q 343 -21 418 -4 z "},"ô":{"ha":726,"x_min":46,"x_max":682,"o":"m 197 761 l 182 761 l 353 1017 l 382 1017 l 554 761 l 539 761 l 369 911 l 365 911 l 197 761 m 346 636 q 227 560 267 636 q 188 350 188 485 q 202 212 188 275 q 242 104 217 149 q 302 35 267 60 q 379 10 338 10 q 499 87 458 10 q 539 296 539 164 q 524 441 539 378 q 483 548 510 504 q 422 614 457 592 q 346 636 388 636 m 343 -21 q 224 3 278 -21 q 130 72 169 28 q 68 176 90 115 q 46 308 46 236 q 70 449 46 389 q 139 553 94 510 q 246 624 183 596 q 383 668 308 651 q 503 644 449 668 q 598 576 558 619 q 660 472 638 532 q 682 340 682 411 q 658 199 682 260 q 588 95 633 139 q 481 24 543 51 q 343 -21 418 -4 z "},"õ":{"ha":726,"x_min":46,"x_max":682,"o":"m 181 951 l 258 978 l 540 867 l 586 981 l 597 981 l 560 829 l 482 803 l 199 917 l 154 800 l 142 800 l 181 951 m 346 636 q 227 560 267 636 q 188 350 188 485 q 202 212 188 275 q 242 104 217 149 q 302 35 267 60 q 379 10 338 10 q 499 87 458 10 q 539 296 539 164 q 524 441 539 378 q 483 548 510 504 q 422 614 457 592 q 346 636 388 636 m 343 -21 q 224 3 278 -21 q 130 72 169 28 q 68 176 90 115 q 46 308 46 236 q 70 449 46 389 q 139 553 94 510 q 246 624 183 596 q 383 668 308 651 q 503 644 449 668 q 598 576 558 619 q 660 472 638 532 q 682 340 682 411 q 658 199 682 260 q 588 95 633 139 q 481 24 543 51 q 343 -21 418 -4 z "},"ö":{"ha":726,"x_min":46,"x_max":682,"o":"m 193 947 l 271 954 l 303 947 l 311 886 l 299 831 l 219 824 l 188 831 l 181 896 l 193 947 m 429 947 l 507 954 l 539 947 l 547 886 l 535 831 l 456 824 l 424 831 l 417 896 l 429 947 m 346 636 q 227 560 267 636 q 188 350 188 485 q 202 212 188 275 q 242 104 217 149 q 302 35 267 60 q 379 10 338 10 q 499 87 458 10 q 539 296 539 164 q 524 441 539 378 q 483 548 510 504 q 422 614 457 592 q 346 636 388 636 m 343 -21 q 224 3 278 -21 q 130 72 169 28 q 68 176 90 115 q 46 308 46 236 q 70 449 46 389 q 139 553 94 510 q 246 624 183 596 q 383 668 308 651 q 503 644 449 668 q 598 576 558 619 q 660 472 638 532 q 682 340 682 411 q 658 199 682 260 q 588 95 633 139 q 481 24 543 51 q 343 -21 418 -4 z "},"÷":{"ha":861,"x_min":65,"x_max":796,"o":"m 65 363 l 796 363 l 796 331 l 65 331 l 65 363 m 374 153 l 460 160 l 493 153 l 500 89 l 490 32 l 404 25 l 372 32 l 365 99 l 374 153 m 374 656 l 460 663 l 493 656 l 500 592 l 490 535 l 404 528 l 372 535 l 365 601 l 374 656 z "},"ø":{"ha":726,"x_min":46,"x_max":682,"o":"m 343 -21 q 233 -1 283 -21 q 144 56 183 19 l 85 -14 l 61 -14 l 132 68 q 69 174 92 113 q 46 308 46 235 q 70 449 46 389 q 139 553 94 510 q 246 624 183 596 q 383 668 308 651 q 492 649 442 668 q 581 593 542 629 l 649 671 l 669 671 l 593 581 q 658 476 635 536 q 682 340 682 415 q 658 199 682 260 q 588 95 633 139 q 481 24 543 51 q 343 -21 418 -4 m 539 296 q 511 486 539 407 l 221 146 q 288 46 247 82 q 379 10 328 10 q 499 87 458 10 q 539 296 539 164 m 346 636 q 227 560 267 636 q 188 350 188 485 q 194 251 188 297 q 214 165 201 204 l 504 503 q 438 602 479 568 q 346 636 396 636 z "},"ù":{"ha":760,"x_min":15,"x_max":728,"o":"m 406 761 l 217 1004 l 343 1004 l 424 761 l 406 761 m 728 31 l 528 -8 l 504 126 l 267 -21 q 194 -10 222 -21 q 150 14 165 0 q 129 40 138 26 q 115 72 121 53 q 108 117 110 90 q 106 183 106 144 l 106 617 l 17 606 l 15 619 l 228 657 l 242 657 l 242 176 q 263 88 242 114 q 324 61 285 61 q 381 73 356 61 q 442 107 406 85 l 503 143 l 503 617 l 413 606 l 413 619 l 621 657 l 635 657 l 635 179 q 640 104 635 136 q 653 38 644 72 l 725 44 l 728 31 z "},"ú":{"ha":760,"x_min":15,"x_max":728,"o":"m 414 1004 l 542 1004 l 351 761 l 335 761 l 414 1004 m 728 31 l 528 -8 l 504 126 l 267 -21 q 194 -10 222 -21 q 150 14 165 0 q 129 40 138 26 q 115 72 121 53 q 108 117 110 90 q 106 183 106 144 l 106 617 l 17 606 l 15 619 l 228 657 l 242 657 l 242 176 q 263 88 242 114 q 324 61 285 61 q 381 73 356 61 q 442 107 406 85 l 503 143 l 503 617 l 413 606 l 413 619 l 621 657 l 635 657 l 635 179 q 640 104 635 136 q 653 38 644 72 l 725 44 l 728 31 z "},"û":{"ha":760,"x_min":15,"x_max":728,"o":"m 203 761 l 188 761 l 358 1017 l 388 1017 l 560 761 l 544 761 l 375 911 l 371 911 l 203 761 m 728 31 l 528 -8 l 504 126 l 267 -21 q 194 -10 222 -21 q 150 14 165 0 q 129 40 138 26 q 115 72 121 53 q 108 117 110 90 q 106 183 106 144 l 106 617 l 17 606 l 15 619 l 228 657 l 242 657 l 242 176 q 263 88 242 114 q 324 61 285 61 q 381 73 356 61 q 442 107 406 85 l 503 143 l 503 617 l 413 606 l 413 619 l 621 657 l 635 657 l 635 179 q 640 104 635 136 q 653 38 644 72 l 725 44 l 728 31 z "},"ü":{"ha":760,"x_min":15,"x_max":728,"o":"m 436 947 l 515 954 l 547 947 l 554 886 l 542 831 l 463 824 l 431 831 l 425 896 l 436 947 m 200 947 l 279 954 l 311 947 l 318 886 l 306 831 l 226 824 l 194 831 l 189 896 l 200 947 m 728 31 l 528 -8 l 504 126 l 267 -21 q 194 -10 222 -21 q 150 14 165 0 q 129 40 138 26 q 115 72 121 53 q 108 117 110 90 q 106 183 106 144 l 106 617 l 17 606 l 15 619 l 228 657 l 242 657 l 242 176 q 263 88 242 114 q 324 61 285 61 q 381 73 356 61 q 442 107 406 85 l 503 143 l 503 617 l 413 606 l 413 619 l 621 657 l 635 657 l 635 179 q 640 104 635 136 q 653 38 644 72 l 725 44 l 728 31 z "},"ý":{"ha":736,"x_min":7,"x_max":729,"o":"m 276 -196 l 422 61 l 306 8 l 79 625 l 7 633 l 7 647 l 310 647 l 310 633 l 231 625 l 429 79 l 622 625 l 528 633 l 528 647 l 729 647 l 729 633 l 649 625 l 446 53 l 274 -326 l 122 -326 l 122 -196 l 276 -196 m 453 1004 l 579 1004 l 390 761 l 372 761 l 453 1004 z "},"þ":{"ha":732,"x_min":22,"x_max":694,"o":"m 550 307 q 540 413 550 364 q 509 499 529 463 q 459 558 489 536 q 390 579 429 579 q 331 566 354 579 q 271 529 307 553 l 246 514 l 246 69 q 294 24 264 42 q 364 8 324 7 q 499 90 449 10 q 550 307 550 169 m 379 -319 l 25 -319 l 25 -306 l 114 -297 l 114 947 l 25 928 l 22 942 l 232 990 l 246 990 l 246 531 l 446 668 q 546 645 500 668 q 624 581 592 622 q 676 485 657 540 q 694 367 694 431 q 677 234 694 296 q 622 122 660 172 q 526 35 585 72 q 385 -21 468 -1 q 312 -12 349 -21 q 246 21 275 -3 l 246 -297 l 379 -306 l 379 -319 z "},"ÿ":{"ha":736,"x_min":7,"x_max":729,"o":"m 276 -196 l 422 61 l 306 8 l 79 625 l 7 633 l 7 647 l 310 647 l 310 633 l 231 625 l 429 79 l 622 625 l 528 633 l 528 647 l 729 647 l 729 633 l 649 625 l 446 53 l 274 -326 l 122 -326 l 122 -196 l 276 -196 m 478 947 l 557 954 l 589 947 l 596 886 l 583 831 l 504 824 l 472 831 l 467 896 l 478 947 m 242 947 l 321 954 l 353 947 l 360 886 l 347 831 l 268 824 l 236 831 l 231 896 l 242 947 z "},"Ā":{"ha":968,"x_min":7,"x_max":961,"o":"m 864 22 l 961 14 l 961 0 l 583 0 l 583 13 l 700 22 l 592 351 l 247 351 l 132 22 l 250 13 l 250 0 l 7 0 l 7 14 l 107 22 l 433 940 l 538 990 l 864 22 m 256 372 l 585 372 l 426 860 l 256 372 m 292 1156 l 688 1156 l 688 1107 l 292 1107 l 292 1156 z "},"ā":{"ha":656,"x_min":40,"x_max":649,"o":"m 107 914 l 503 914 l 503 865 l 107 865 l 107 914 m 322 668 q 439 658 397 668 q 508 621 481 647 q 542 556 533 596 q 550 460 550 515 l 550 160 q 556 96 550 126 q 574 33 563 65 l 647 43 l 649 31 l 447 -10 l 418 110 l 225 -21 q 92 22 143 -21 q 40 144 40 64 q 55 216 40 179 q 115 288 69 253 l 415 385 l 415 479 q 413 535 415 508 q 399 580 410 561 q 364 610 388 599 q 297 621 340 621 q 260 617 276 621 q 215 606 244 614 l 183 447 l 63 447 l 63 554 l 322 668 m 415 371 l 244 306 q 199 251 217 282 q 182 178 182 221 q 208 92 182 125 q 276 60 235 60 q 333 73 306 60 q 379 100 361 86 l 415 125 l 415 371 z "},"Ă":{"ha":968,"x_min":7,"x_max":961,"o":"m 864 22 l 961 14 l 961 0 l 583 0 l 583 13 l 700 22 l 592 351 l 247 351 l 132 22 l 250 13 l 250 0 l 7 0 l 7 14 l 107 22 l 433 940 l 538 990 l 864 22 m 256 372 l 585 372 l 426 860 l 256 372 m 485 1124 q 545 1134 518 1124 q 593 1160 572 1144 q 628 1194 614 1176 q 654 1226 643 1211 l 665 1218 q 614 1134 650 1178 q 501 1051 578 1090 q 428 1067 460 1051 q 371 1106 396 1082 q 328 1158 346 1129 q 301 1217 311 1188 l 313 1225 q 336 1192 321 1210 q 373 1160 351 1175 q 422 1134 394 1144 q 485 1124 450 1124 z "},"ă":{"ha":656,"x_min":40,"x_max":649,"o":"m 311 847 q 372 860 346 847 q 419 890 399 872 q 455 927 440 907 q 481 964 469 947 l 492 956 q 440 863 476 911 q 328 769 404 814 q 255 786 288 769 q 197 830 222 803 q 155 889 172 857 q 128 953 138 921 l 139 963 q 163 926 147 946 q 200 889 178 907 q 250 859 222 871 q 311 847 278 847 m 322 668 q 439 658 397 668 q 508 621 481 647 q 542 556 533 596 q 550 460 550 515 l 550 160 q 556 96 550 126 q 574 33 563 65 l 647 43 l 649 31 l 447 -10 l 418 110 l 225 -21 q 92 22 143 -21 q 40 144 40 64 q 55 216 40 179 q 115 288 69 253 l 415 385 l 415 479 q 413 535 415 508 q 399 580 410 561 q 364 610 388 599 q 297 621 340 621 q 260 617 276 621 q 215 606 244 614 l 183 447 l 63 447 l 63 554 l 322 668 m 415 371 l 244 306 q 199 251 217 282 q 182 178 182 221 q 208 92 182 125 q 276 60 235 60 q 333 73 306 60 q 379 100 361 86 l 415 125 l 415 371 z "},"Ą":{"ha":968,"x_min":7,"x_max":961,"o":"m 254 372 l 586 372 l 426 860 l 254 372 m 789 -337 q 602 -302 657 -337 q 547 -197 547 -267 l 547 -136 l 700 21 l 592 351 l 249 351 l 132 22 l 250 13 l 250 0 l 7 0 l 7 14 l 107 22 l 433 940 l 538 990 l 864 22 l 961 14 l 961 0 l 707 0 l 628 -167 l 628 -229 q 789 -325 628 -325 l 789 -337 z "},"ą":{"ha":656,"x_min":40,"x_max":649,"o":"m 557 -337 q 371 -303 425 -337 q 317 -197 317 -268 l 317 -136 l 446 -3 l 418 110 l 225 -21 q 92 22 143 -21 q 40 144 40 64 q 55 216 40 179 q 115 288 69 253 l 415 385 l 415 479 q 413 535 415 508 q 399 580 410 561 q 364 610 388 599 q 297 621 340 621 q 260 617 276 621 q 215 606 244 614 l 183 447 l 63 447 l 63 554 l 322 668 q 439 658 397 668 q 508 621 481 647 q 542 556 533 596 q 550 460 550 515 l 550 160 q 556 96 550 126 q 574 33 563 65 l 647 43 l 649 31 l 472 -4 l 397 -167 l 397 -229 q 557 -325 397 -325 l 557 -337 m 415 371 l 244 306 q 199 251 217 282 q 182 178 182 221 q 208 92 182 125 q 276 60 235 60 q 333 73 306 60 q 379 100 361 86 l 415 125 l 415 371 z "},"Ć":{"ha":940,"x_min":53,"x_max":875,"o":"m 586 1253 l 721 1253 l 539 1067 l 522 1067 l 586 1253 m 875 297 l 875 65 q 797 35 835 49 q 720 10 760 21 q 636 -9 681 -1 q 540 -22 592 -17 q 356 10 444 -22 q 201 103 268 42 q 93 257 133 165 q 53 468 53 349 q 89 678 53 585 q 190 838 125 771 q 349 944 256 904 q 554 994 442 983 q 733 974 656 994 q 874 922 810 954 l 874 692 l 860 692 l 772 886 q 686 949 736 924 q 556 975 636 975 q 427 944 488 975 q 321 853 367 914 q 249 702 275 793 q 222 490 222 611 q 242 304 222 393 q 305 148 263 215 q 413 41 347 81 q 571 1 479 1 q 686 26 633 1 q 774 88 739 51 l 861 297 l 875 297 z "},"ć":{"ha":610,"x_min":46,"x_max":575,"o":"m 403 1004 l 529 1004 l 340 761 l 322 761 l 403 1004 m 403 631 q 351 640 375 640 q 281 626 314 640 q 222 582 247 613 q 182 503 197 551 q 167 386 167 454 q 183 265 167 321 q 231 169 200 210 q 306 106 263 129 q 403 82 350 82 q 490 97 451 82 q 569 144 529 113 l 575 135 q 469 47 522 83 q 354 -21 417 11 q 233 1 289 -21 q 135 64 176 22 q 69 165 93 106 q 46 299 46 224 q 74 447 46 382 q 147 557 101 511 q 253 630 193 603 q 376 668 313 657 q 424 662 399 668 q 475 645 450 656 q 524 622 500 635 q 564 596 547 610 l 564 469 l 457 469 l 403 631 z "},"Ĉ":{"ha":940,"x_min":53,"x_max":875,"o":"m 368 1067 l 351 1067 l 528 1261 l 560 1261 l 738 1067 l 721 1067 l 547 1182 l 542 1182 l 368 1067 m 875 297 l 875 65 q 797 35 835 49 q 720 10 760 21 q 636 -9 681 -1 q 540 -22 592 -17 q 356 10 444 -22 q 201 103 268 42 q 93 257 133 165 q 53 468 53 349 q 89 678 53 585 q 190 838 125 771 q 349 944 256 904 q 554 994 442 983 q 733 974 656 994 q 874 922 810 954 l 874 692 l 860 692 l 772 886 q 686 949 736 924 q 556 975 636 975 q 427 944 488 975 q 321 853 367 914 q 249 702 275 793 q 222 490 222 611 q 242 304 222 393 q 305 148 263 215 q 413 41 347 81 q 571 1 479 1 q 686 26 633 1 q 774 88 739 51 l 861 297 l 875 297 z "},"ĉ":{"ha":610,"x_min":46,"x_max":575,"o":"m 182 761 l 165 761 l 338 1017 l 367 1017 l 539 761 l 524 761 l 354 911 l 350 911 l 182 761 m 403 631 q 351 640 375 640 q 281 626 314 640 q 222 582 247 613 q 182 503 197 551 q 167 386 167 454 q 183 265 167 321 q 231 169 200 210 q 306 106 263 129 q 403 82 350 82 q 490 97 451 82 q 569 144 529 113 l 575 135 q 469 47 522 83 q 354 -21 417 11 q 233 1 289 -21 q 135 64 176 22 q 69 165 93 106 q 46 299 46 224 q 74 447 46 382 q 147 557 101 511 q 253 630 193 603 q 376 668 313 657 q 424 662 399 668 q 475 645 450 656 q 524 622 500 635 q 564 596 547 610 l 564 469 l 457 469 l 403 631 z "},"Ċ":{"ha":940,"x_min":53,"x_max":875,"o":"m 486 1233 l 579 1240 l 613 1233 l 619 1167 l 607 1106 l 514 1099 l 481 1106 l 474 1176 l 486 1233 m 875 297 l 875 65 q 797 35 835 49 q 720 10 760 21 q 636 -9 681 -1 q 540 -22 592 -17 q 356 10 444 -22 q 201 103 268 42 q 93 257 133 165 q 53 468 53 349 q 89 678 53 585 q 190 838 125 771 q 349 944 256 904 q 554 994 442 983 q 733 974 656 994 q 874 922 810 954 l 874 692 l 860 692 l 772 886 q 686 949 736 924 q 556 975 636 975 q 427 944 488 975 q 321 853 367 914 q 249 702 275 793 q 222 490 222 611 q 242 304 222 393 q 305 148 263 215 q 413 41 347 81 q 571 1 479 1 q 686 26 633 1 q 774 88 739 51 l 861 297 l 875 297 z "},"ċ":{"ha":610,"x_min":46,"x_max":575,"o":"m 283 974 l 376 981 l 411 974 l 418 907 l 406 846 l 313 839 l 278 846 l 272 917 l 283 974 m 403 631 q 351 640 375 640 q 281 626 314 640 q 222 582 247 613 q 182 503 197 551 q 167 386 167 454 q 183 265 167 321 q 231 169 200 210 q 306 106 263 129 q 403 82 350 82 q 490 97 451 82 q 569 144 529 113 l 575 135 q 469 47 522 83 q 354 -21 417 11 q 233 1 289 -21 q 135 64 176 22 q 69 165 93 106 q 46 299 46 224 q 74 447 46 382 q 147 557 101 511 q 253 630 193 603 q 376 668 313 657 q 424 662 399 668 q 475 645 450 656 q 524 622 500 635 q 564 596 547 610 l 564 469 l 457 469 l 403 631 z "},"Č":{"ha":940,"x_min":53,"x_max":875,"o":"m 540 1139 l 714 1253 l 732 1253 l 554 1058 l 522 1058 l 344 1253 l 363 1253 l 535 1139 l 540 1139 m 875 297 l 875 65 q 797 35 835 49 q 720 10 760 21 q 636 -9 681 -1 q 540 -22 592 -17 q 356 10 444 -22 q 201 103 268 42 q 93 257 133 165 q 53 468 53 349 q 89 678 53 585 q 190 838 125 771 q 349 944 256 904 q 554 994 442 983 q 733 974 656 994 q 874 922 810 954 l 874 692 l 860 692 l 772 886 q 686 949 736 924 q 556 975 636 975 q 427 944 488 975 q 321 853 367 914 q 249 702 275 793 q 222 490 222 611 q 242 304 222 393 q 305 148 263 215 q 413 41 347 81 q 571 1 479 1 q 686 26 633 1 q 774 88 739 51 l 861 297 l 875 297 z "},"č":{"ha":610,"x_min":46,"x_max":575,"o":"m 351 864 l 521 1013 l 536 1013 l 364 758 l 335 758 l 163 1013 l 179 1013 l 347 864 l 351 864 m 403 631 q 351 640 375 640 q 281 626 314 640 q 222 582 247 613 q 182 503 197 551 q 167 386 167 454 q 183 265 167 321 q 231 169 200 210 q 306 106 263 129 q 403 82 350 82 q 490 97 451 82 q 569 144 529 113 l 575 135 q 469 47 522 83 q 354 -21 417 11 q 233 1 289 -21 q 135 64 176 22 q 69 165 93 106 q 46 299 46 224 q 74 447 46 382 q 147 557 101 511 q 253 630 193 603 q 376 668 313 657 q 424 662 399 668 q 475 645 450 656 q 524 622 500 635 q 564 596 547 610 l 564 469 l 457 469 l 403 631 z "},"Ď":{"ha":1003,"x_min":39,"x_max":951,"o":"m 485 1139 l 660 1253 l 676 1253 l 499 1058 l 467 1058 l 289 1253 l 307 1253 l 479 1139 l 485 1139 m 469 14 q 599 49 540 14 q 700 147 658 83 q 765 299 742 210 q 788 499 788 389 q 769 684 788 600 q 710 829 750 768 q 606 924 669 890 q 454 958 543 958 l 308 950 l 308 22 l 469 14 m 39 0 l 39 14 l 158 22 l 158 950 l 39 958 l 39 972 l 481 972 q 676 941 589 972 q 825 850 764 910 q 919 703 886 790 q 951 504 951 615 q 922 306 951 397 q 834 149 893 215 q 687 43 775 82 q 481 0 599 4 l 39 0 z "},"ď":{"ha":858,"x_min":46,"x_max":851,"o":"m 706 625 l 796 838 l 738 835 l 700 842 l 693 919 l 706 982 l 804 988 l 844 982 l 851 908 l 838 842 l 715 621 l 706 625 m 189 349 q 200 239 189 290 q 232 150 211 188 q 283 90 253 113 q 350 68 313 68 q 401 78 381 68 q 463 117 422 88 l 493 138 l 493 586 q 448 624 476 607 q 379 640 419 640 q 236 560 283 639 q 189 349 189 482 m 303 -21 q 199 4 246 -21 q 118 72 153 29 q 65 171 83 114 q 46 292 46 228 q 64 423 46 361 q 119 534 82 485 q 215 618 157 583 q 354 668 274 653 q 426 660 392 668 q 493 632 461 651 l 493 947 l 407 932 l 404 946 l 611 992 l 625 992 l 625 163 q 629 100 625 126 q 647 39 633 74 l 736 49 l 739 36 l 528 -10 l 496 121 l 303 -21 z "},"Đ":{"ha":1003,"x_min":39,"x_max":951,"o":"m 39 0 l 39 14 l 158 22 l 158 496 l 53 496 l 53 513 l 158 513 l 158 950 l 39 958 l 39 972 l 481 972 q 676 941 589 972 q 825 850 764 910 q 919 703 886 790 q 951 504 951 615 q 922 306 951 397 q 834 149 893 215 q 687 43 775 82 q 481 0 599 4 l 39 0 m 469 14 q 599 49 540 14 q 700 147 658 83 q 765 299 742 210 q 788 499 788 389 q 769 684 788 600 q 710 829 750 768 q 606 924 669 890 q 454 958 543 958 l 308 950 l 308 513 l 497 513 l 497 496 l 308 496 l 308 22 l 469 14 z "},"đ":{"ha":765,"x_min":46,"x_max":739,"o":"m 303 -21 q 199 4 246 -21 q 118 72 153 29 q 65 171 83 114 q 46 292 46 228 q 64 423 46 361 q 119 534 82 485 q 215 618 157 583 q 354 668 274 653 q 426 660 392 668 q 493 632 461 651 l 493 806 l 343 806 l 343 818 l 493 818 l 493 947 l 407 932 l 404 946 l 611 992 l 625 992 l 625 818 l 719 818 l 719 806 l 625 806 l 625 163 q 629 100 625 126 q 647 39 633 74 l 736 49 l 739 36 l 528 -10 l 496 121 l 303 -21 m 189 349 q 200 239 189 290 q 232 150 211 188 q 283 90 253 113 q 350 68 313 68 q 401 78 381 68 q 463 117 422 88 l 493 138 l 493 586 q 448 624 476 607 q 379 640 419 640 q 236 560 283 639 q 189 349 189 482 z "},"Ē":{"ha":835,"x_min":39,"x_max":792,"o":"m 260 1156 l 656 1156 l 656 1107 l 260 1107 l 260 1156 m 39 14 l 149 22 l 149 950 l 39 958 l 39 972 l 785 972 l 785 719 l 771 719 l 678 953 l 297 953 l 297 518 l 517 518 l 578 683 l 592 683 l 592 336 l 578 336 l 517 500 l 297 500 l 297 19 l 688 19 l 778 260 l 792 260 l 792 0 l 39 0 l 39 14 z "},"ē":{"ha":646,"x_min":46,"x_max":599,"o":"m 361 -21 q 242 0 299 -21 q 141 61 185 21 q 72 160 97 101 q 46 297 46 219 q 70 441 46 378 q 137 550 94 504 q 235 625 179 596 q 354 668 292 654 q 534 601 475 668 q 593 418 593 533 l 593 379 l 167 379 l 167 378 q 186 252 167 307 q 240 160 206 197 q 319 103 274 122 q 418 85 365 85 q 508 102 465 85 q 590 144 550 119 l 599 135 q 540 85 567 107 q 485 46 513 64 q 427 12 457 28 q 361 -21 397 -4 m 318 633 q 205 567 240 633 q 167 393 169 501 l 449 393 l 449 418 q 443 505 449 465 q 423 573 438 544 q 383 617 408 601 q 318 633 358 633 m 153 914 l 549 914 l 549 865 l 153 865 l 153 914 z "},"Ĕ":{"ha":835,"x_min":39,"x_max":792,"o":"m 463 1124 q 523 1134 496 1124 q 571 1160 550 1144 q 606 1194 592 1176 q 632 1226 621 1211 l 643 1218 q 592 1134 628 1178 q 479 1051 556 1090 q 406 1067 438 1051 q 349 1106 374 1082 q 306 1158 324 1129 q 279 1217 289 1188 l 290 1225 q 314 1192 299 1210 q 351 1160 329 1175 q 400 1134 372 1144 q 463 1124 428 1124 m 39 14 l 149 22 l 149 950 l 39 958 l 39 972 l 785 972 l 785 719 l 771 719 l 678 953 l 297 953 l 297 518 l 517 518 l 578 683 l 592 683 l 592 336 l 578 336 l 517 500 l 297 500 l 297 19 l 688 19 l 778 260 l 792 260 l 792 0 l 39 0 l 39 14 z "},"ĕ":{"ha":646,"x_min":46,"x_max":599,"o":"m 361 -21 q 242 0 299 -21 q 141 61 185 21 q 72 160 97 101 q 46 297 46 219 q 70 441 46 378 q 137 550 94 504 q 235 625 179 596 q 354 668 292 654 q 534 601 475 668 q 593 418 593 533 l 593 379 l 167 379 l 167 378 q 186 252 167 307 q 240 160 206 197 q 319 103 274 122 q 418 85 365 85 q 508 102 465 85 q 590 144 550 119 l 599 135 q 540 85 567 107 q 485 46 513 64 q 427 12 457 28 q 361 -21 397 -4 m 318 633 q 205 567 240 633 q 167 393 169 501 l 449 393 l 449 418 q 443 505 449 465 q 423 573 438 544 q 383 617 408 601 q 318 633 358 633 m 338 847 q 399 858 372 847 q 446 883 425 868 q 481 914 467 897 q 507 944 496 931 l 518 936 q 467 853 503 896 q 354 769 431 810 q 281 785 314 769 q 224 824 249 800 q 181 878 199 849 q 154 936 164 907 l 165 944 q 189 913 174 931 q 226 881 204 896 q 276 857 249 867 q 338 847 304 847 z "},"Ė":{"ha":835,"x_min":39,"x_max":792,"o":"m 411 1233 l 504 1240 l 538 1233 l 544 1167 l 532 1106 l 439 1099 l 406 1106 l 399 1176 l 411 1233 m 39 14 l 149 22 l 149 950 l 39 958 l 39 972 l 785 972 l 785 719 l 771 719 l 678 953 l 297 953 l 297 518 l 517 518 l 578 683 l 592 683 l 592 336 l 578 336 l 517 500 l 297 500 l 297 19 l 688 19 l 778 260 l 792 260 l 792 0 l 39 0 l 39 14 z "},"ė":{"ha":646,"x_min":46,"x_max":599,"o":"m 361 -21 q 242 0 299 -21 q 141 61 185 21 q 72 160 97 101 q 46 297 46 219 q 70 441 46 378 q 137 550 94 504 q 235 625 179 596 q 354 668 292 654 q 534 601 475 668 q 593 418 593 533 l 593 379 l 167 379 l 167 378 q 186 252 167 307 q 240 160 206 197 q 319 103 274 122 q 418 85 365 85 q 508 102 465 85 q 590 144 550 119 l 599 135 q 540 85 567 107 q 485 46 513 64 q 427 12 457 28 q 361 -21 397 -4 m 318 633 q 205 567 240 633 q 167 393 169 501 l 449 393 l 449 418 q 443 505 449 465 q 423 573 438 544 q 383 617 408 601 q 318 633 358 633 m 278 974 l 371 981 l 404 974 l 411 907 l 399 846 l 306 839 l 272 846 l 265 917 l 278 974 z "},"Ę":{"ha":835,"x_min":39,"x_max":792,"o":"m 39 14 l 149 22 l 149 950 l 39 958 l 39 972 l 785 972 l 785 719 l 771 719 l 678 953 l 297 953 l 297 518 l 517 518 l 578 683 l 592 683 l 592 336 l 578 336 l 517 500 l 297 500 l 297 19 l 688 19 l 778 260 l 792 260 l 792 0 l 696 0 l 618 -167 l 618 -229 q 658 -301 618 -278 q 776 -325 699 -325 l 776 -337 q 665 -328 711 -337 q 591 -302 619 -319 q 550 -258 563 -285 q 538 -197 538 -232 l 538 -136 l 668 0 l 39 0 l 39 14 z "},"ę":{"ha":646,"x_min":46,"x_max":599,"o":"m 361 -21 q 242 0 299 -21 q 141 61 185 21 q 72 160 97 101 q 46 297 46 219 q 70 441 46 378 q 137 550 94 504 q 235 625 179 596 q 354 668 292 654 q 534 601 475 668 q 593 418 593 533 l 593 379 l 167 379 l 167 378 q 186 252 167 307 q 240 160 206 197 q 319 103 274 122 q 418 85 365 85 q 508 102 465 85 q 590 144 550 119 l 599 135 q 522 72 557 99 q 449 22 488 44 l 353 -167 l 353 -229 q 514 -325 353 -325 l 514 -337 q 327 -302 382 -337 q 272 -197 272 -267 l 272 -143 l 413 4 q 388 -8 401 -3 q 361 -21 375 -14 m 318 633 q 205 567 240 633 q 167 393 169 501 l 449 393 l 449 418 q 443 505 449 465 q 423 573 438 544 q 383 617 408 601 q 318 633 358 633 z "},"Ě":{"ha":835,"x_min":39,"x_max":792,"o":"m 479 1139 l 653 1253 l 671 1253 l 493 1058 l 461 1058 l 283 1253 l 301 1253 l 474 1139 l 479 1139 m 39 14 l 149 22 l 149 950 l 39 958 l 39 972 l 785 972 l 785 719 l 771 719 l 678 953 l 297 953 l 297 518 l 517 518 l 578 683 l 592 683 l 592 336 l 578 336 l 517 500 l 297 500 l 297 19 l 688 19 l 778 260 l 792 260 l 792 0 l 39 0 l 39 14 z "},"ě":{"ha":646,"x_min":46,"x_max":599,"o":"m 361 -21 q 242 0 299 -21 q 141 61 185 21 q 72 160 97 101 q 46 297 46 219 q 70 441 46 378 q 137 550 94 504 q 235 625 179 596 q 354 668 292 654 q 534 601 475 668 q 593 418 593 533 l 593 379 l 167 379 l 167 378 q 186 252 167 307 q 240 160 206 197 q 319 103 274 122 q 418 85 365 85 q 508 102 465 85 q 590 144 550 119 l 599 135 q 540 85 567 107 q 485 46 513 64 q 427 12 457 28 q 361 -21 397 -4 m 318 633 q 205 567 240 633 q 167 393 169 501 l 449 393 l 449 418 q 443 505 449 465 q 423 573 438 544 q 383 617 408 601 q 318 633 358 633 m 347 865 l 515 1014 l 532 1014 l 358 760 l 331 760 l 158 1014 l 174 1014 l 342 865 l 347 865 z "},"Ĝ":{"ha":1001,"x_min":53,"x_max":969,"o":"m 369 1067 l 353 1067 l 529 1261 l 561 1261 l 739 1067 l 722 1067 l 549 1182 l 543 1182 l 369 1067 m 888 64 q 728 6 817 32 q 529 -22 639 -19 q 345 10 432 -22 q 194 104 258 42 q 91 258 129 167 q 53 469 53 350 q 88 676 53 583 q 190 837 124 769 q 350 944 256 904 q 563 994 444 985 q 746 972 667 994 q 874 921 825 949 l 874 692 l 860 692 l 772 886 q 688 949 738 922 q 561 975 638 975 q 419 939 482 975 q 313 837 357 903 q 246 680 269 771 q 222 481 222 589 q 242 297 222 385 q 303 143 263 210 q 404 37 343 76 q 547 -3 465 -3 q 663 23 614 -3 q 739 81 713 49 l 739 411 l 629 422 l 629 438 l 969 438 l 969 422 l 888 411 l 888 64 z "},"ĝ":{"ha":690,"x_min":26,"x_max":683,"o":"m 147 761 l 132 761 l 304 1017 l 332 1017 l 506 761 l 490 761 l 321 911 l 315 911 l 147 761 m 324 250 q 406 297 378 250 q 433 431 433 343 q 427 508 433 469 q 406 576 421 546 q 365 624 390 606 q 301 642 340 642 q 219 594 247 642 q 190 460 190 547 q 197 383 190 421 q 218 316 203 346 q 259 268 233 286 q 324 250 285 250 m 646 -35 q 620 -131 646 -86 q 549 -212 594 -175 q 440 -281 503 -250 q 303 -336 376 -311 q 96 -297 165 -336 q 26 -162 26 -258 l 26 -137 l 185 -21 q 85 33 114 -4 q 57 117 57 69 l 57 138 l 194 242 q 94 313 132 265 q 57 428 57 361 q 123 574 57 517 q 324 668 189 632 q 464 634 404 668 q 550 543 524 600 l 622 668 l 683 668 l 683 536 l 564 536 l 554 526 q 568 465 568 500 q 503 317 567 375 q 301 222 439 258 q 254 226 278 222 q 210 236 231 229 l 153 181 q 177 117 153 136 q 239 97 201 97 l 497 97 q 563 86 535 97 q 609 57 590 75 q 637 15 628 39 q 646 -35 646 -8 m 200 -21 q 152 -84 164 -51 q 140 -144 140 -117 q 183 -239 140 -203 q 296 -274 226 -275 l 353 -274 q 435 -260 396 -274 q 503 -223 474 -246 q 549 -171 532 -200 q 565 -110 565 -142 q 540 -45 565 -69 q 456 -21 514 -21 l 200 -21 z "},"Ğ":{"ha":1001,"x_min":53,"x_max":969,"o":"m 544 1124 q 605 1134 578 1124 q 653 1160 632 1144 q 688 1194 674 1176 q 714 1226 703 1211 l 725 1218 q 673 1134 708 1178 q 561 1051 638 1090 q 487 1067 519 1051 q 430 1106 454 1082 q 388 1158 406 1129 q 361 1217 371 1188 l 371 1225 q 394 1192 379 1210 q 432 1160 410 1175 q 482 1134 454 1144 q 544 1124 510 1124 m 888 64 q 728 6 817 32 q 529 -22 639 -19 q 345 10 432 -22 q 194 104 258 42 q 91 258 129 167 q 53 469 53 350 q 88 676 53 583 q 190 837 124 769 q 350 944 256 904 q 563 994 444 985 q 746 972 667 994 q 874 921 825 949 l 874 692 l 860 692 l 772 886 q 688 949 738 922 q 561 975 638 975 q 419 939 482 975 q 313 837 357 903 q 246 680 269 771 q 222 481 222 589 q 242 297 222 385 q 303 143 263 210 q 404 37 343 76 q 547 -3 465 -3 q 663 23 614 -3 q 739 81 713 49 l 739 411 l 629 422 l 629 438 l 969 438 l 969 422 l 888 411 l 888 64 z "},"ğ":{"ha":690,"x_min":26,"x_max":683,"o":"m 313 849 q 374 859 347 849 q 421 884 400 869 q 456 915 442 899 q 482 946 471 932 l 493 938 q 442 854 478 897 q 329 771 406 811 q 256 786 289 771 q 199 825 224 801 q 156 878 174 849 q 129 936 139 907 l 140 944 q 164 914 149 931 q 201 883 179 897 q 251 858 224 868 q 313 849 279 849 m 324 250 q 406 297 378 250 q 433 431 433 343 q 427 508 433 469 q 406 576 421 546 q 365 624 390 606 q 301 642 340 642 q 219 594 247 642 q 190 460 190 547 q 197 383 190 421 q 218 316 203 346 q 259 268 233 286 q 324 250 285 250 m 646 -35 q 620 -131 646 -86 q 549 -212 594 -175 q 440 -281 503 -250 q 303 -336 376 -311 q 96 -297 165 -336 q 26 -162 26 -258 l 26 -137 l 185 -21 q 85 33 114 -4 q 57 117 57 69 l 57 138 l 194 242 q 94 313 132 265 q 57 428 57 361 q 123 574 57 517 q 324 668 189 632 q 464 634 404 668 q 550 543 524 600 l 622 668 l 683 668 l 683 536 l 564 536 l 554 526 q 568 465 568 500 q 503 317 567 375 q 301 222 439 258 q 254 226 278 222 q 210 236 231 229 l 153 181 q 177 117 153 136 q 239 97 201 97 l 497 97 q 563 86 535 97 q 609 57 590 75 q 637 15 628 39 q 646 -35 646 -8 m 200 -21 q 152 -84 164 -51 q 140 -144 140 -117 q 183 -239 140 -203 q 296 -274 226 -275 l 353 -274 q 435 -260 396 -274 q 503 -223 474 -246 q 549 -171 532 -200 q 565 -110 565 -142 q 540 -45 565 -69 q 456 -21 514 -21 l 200 -21 z "},"Ġ":{"ha":1001,"x_min":53,"x_max":969,"o":"m 490 1233 l 583 1240 l 618 1233 l 625 1167 l 613 1106 l 518 1099 l 485 1106 l 478 1176 l 490 1233 m 888 64 q 728 6 817 32 q 529 -22 639 -19 q 345 10 432 -22 q 194 104 258 42 q 91 258 129 167 q 53 469 53 350 q 88 676 53 583 q 190 837 124 769 q 350 944 256 904 q 563 994 444 985 q 746 972 667 994 q 874 921 825 949 l 874 692 l 860 692 l 772 886 q 688 949 738 922 q 561 975 638 975 q 419 939 482 975 q 313 837 357 903 q 246 680 269 771 q 222 481 222 589 q 242 297 222 385 q 303 143 263 210 q 404 37 343 76 q 547 -3 465 -3 q 663 23 614 -3 q 739 81 713 49 l 739 411 l 629 422 l 629 438 l 969 438 l 969 422 l 888 411 l 888 64 z "},"ġ":{"ha":690,"x_min":26,"x_max":683,"o":"m 250 974 l 343 981 l 378 974 l 385 907 l 372 846 l 278 839 l 244 846 l 238 917 l 250 974 m 324 250 q 406 297 378 250 q 433 431 433 343 q 427 508 433 469 q 406 576 421 546 q 365 624 390 606 q 301 642 340 642 q 219 594 247 642 q 190 460 190 547 q 197 383 190 421 q 218 316 203 346 q 259 268 233 286 q 324 250 285 250 m 646 -35 q 620 -131 646 -86 q 549 -212 594 -175 q 440 -281 503 -250 q 303 -336 376 -311 q 96 -297 165 -336 q 26 -162 26 -258 l 26 -137 l 185 -21 q 85 33 114 -4 q 57 117 57 69 l 57 138 l 194 242 q 94 313 132 265 q 57 428 57 361 q 123 574 57 517 q 324 668 189 632 q 464 634 404 668 q 550 543 524 600 l 622 668 l 683 668 l 683 536 l 564 536 l 554 526 q 568 465 568 500 q 503 317 567 375 q 301 222 439 258 q 254 226 278 222 q 210 236 231 229 l 153 181 q 177 117 153 136 q 239 97 201 97 l 497 97 q 563 86 535 97 q 609 57 590 75 q 637 15 628 39 q 646 -35 646 -8 m 200 -21 q 152 -84 164 -51 q 140 -144 140 -117 q 183 -239 140 -203 q 296 -274 226 -275 l 353 -274 q 435 -260 396 -274 q 503 -223 474 -246 q 549 -171 532 -200 q 565 -110 565 -142 q 540 -45 565 -69 q 456 -21 514 -21 l 200 -21 z "},"Ģ":{"ha":1001,"x_min":53,"x_max":969,"o":"m 542 -178 l 482 -136 l 482 -69 l 614 -69 l 614 -175 l 482 -324 l 469 -321 l 542 -178 m 888 64 q 728 6 817 32 q 529 -22 639 -19 q 345 10 432 -22 q 194 104 258 42 q 91 258 129 167 q 53 469 53 350 q 88 676 53 583 q 190 837 124 769 q 350 944 256 904 q 563 994 444 985 q 746 972 667 994 q 874 921 825 949 l 874 692 l 860 692 l 772 886 q 688 949 738 922 q 561 975 638 975 q 419 939 482 975 q 313 837 357 903 q 246 680 269 771 q 222 481 222 589 q 242 297 222 385 q 303 143 263 210 q 404 37 343 76 q 547 -3 465 -3 q 663 23 614 -3 q 739 81 713 49 l 739 411 l 629 422 l 629 438 l 969 438 l 969 422 l 888 411 l 888 64 z "},"ģ":{"ha":690,"x_min":26,"x_max":683,"o":"m 310 885 l 369 840 l 369 772 l 238 772 l 238 882 l 369 1035 l 383 1032 l 310 885 m 324 250 q 406 297 378 250 q 433 431 433 343 q 427 508 433 469 q 406 576 421 546 q 365 624 390 606 q 301 642 340 642 q 219 594 247 642 q 190 460 190 547 q 197 383 190 421 q 218 316 203 346 q 259 268 233 286 q 324 250 285 250 m 646 -35 q 620 -131 646 -86 q 549 -212 594 -175 q 440 -281 503 -250 q 303 -336 376 -311 q 96 -297 165 -336 q 26 -162 26 -258 l 26 -137 l 185 -21 q 85 33 114 -4 q 57 117 57 69 l 57 138 l 194 242 q 94 313 132 265 q 57 428 57 361 q 123 574 57 517 q 324 668 189 632 q 464 634 404 668 q 550 543 524 600 l 622 668 l 683 668 l 683 536 l 564 536 l 554 526 q 568 465 568 500 q 503 317 567 375 q 301 222 439 258 q 254 226 278 222 q 210 236 231 229 l 153 181 q 177 117 153 136 q 239 97 201 97 l 497 97 q 563 86 535 97 q 609 57 590 75 q 637 15 628 39 q 646 -35 646 -8 m 200 -21 q 152 -84 164 -51 q 140 -144 140 -117 q 183 -239 140 -203 q 296 -274 226 -275 l 353 -274 q 435 -260 396 -274 q 503 -223 474 -246 q 549 -171 532 -200 q 565 -110 565 -142 q 540 -45 565 -69 q 456 -21 514 -21 l 200 -21 z "},"Ĥ":{"ha":1028,"x_min":39,"x_max":989,"o":"m 297 515 l 731 515 l 731 950 l 622 958 l 622 972 l 989 972 l 989 958 l 879 950 l 879 22 l 989 14 l 989 0 l 622 0 l 622 14 l 731 22 l 731 494 l 297 494 l 297 22 l 406 14 l 406 0 l 39 0 l 39 14 l 149 22 l 149 950 l 39 958 l 39 972 l 406 972 l 406 958 l 297 950 l 297 515 m 350 1067 l 333 1067 l 510 1261 l 542 1261 l 721 1067 l 703 1067 l 529 1182 l 524 1182 l 350 1067 z "},"ĥ":{"ha":793,"x_min":19,"x_max":785,"o":"m 36 1067 l 19 1067 l 196 1261 l 228 1261 l 407 1067 l 389 1067 l 215 1182 l 210 1182 l 36 1067 m 58 0 l 58 14 l 146 22 l 146 947 l 60 932 l 57 946 l 264 992 l 278 992 l 278 513 l 529 668 q 602 658 576 668 q 643 632 628 647 q 663 608 656 621 q 676 576 671 594 q 684 531 682 557 q 686 465 686 504 l 686 22 l 785 14 l 785 0 l 486 0 l 486 14 l 550 22 l 550 472 q 529 560 550 536 q 467 583 508 583 q 399 568 429 583 q 329 528 369 553 l 278 497 l 278 22 l 343 14 l 343 0 l 58 0 z "},"Ħ":{"ha":1028,"x_min":39,"x_max":989,"o":"m 297 686 l 731 686 l 731 950 l 622 958 l 622 972 l 989 972 l 989 958 l 879 950 l 879 22 l 989 14 l 989 0 l 622 0 l 622 14 l 731 22 l 731 494 l 297 494 l 297 22 l 406 14 l 406 0 l 39 0 l 39 14 l 149 22 l 149 950 l 39 958 l 39 972 l 406 972 l 406 958 l 297 950 l 297 686 m 297 515 l 731 515 l 731 674 l 297 674 l 297 515 z "},"ħ":{"ha":793,"x_min":42,"x_max":769,"o":"m 43 0 l 43 14 l 131 22 l 131 799 l 44 799 l 44 810 l 131 810 l 131 947 l 44 932 l 42 946 l 249 992 l 263 992 l 263 810 l 438 810 l 438 799 l 263 799 l 263 513 l 514 668 q 587 658 561 668 q 628 632 613 647 q 648 608 640 621 q 661 576 656 594 q 669 531 667 557 q 671 465 671 504 l 671 22 l 769 14 l 769 0 l 471 0 l 471 14 l 535 22 l 535 472 q 514 560 535 536 q 451 583 493 583 q 384 568 414 583 q 314 528 354 553 l 263 497 l 263 22 l 328 14 l 328 0 l 43 0 z "},"Ĩ":{"ha":446,"x_min":8,"x_max":464,"o":"m 47 1214 l 125 1240 l 407 1129 l 453 1244 l 464 1244 l 426 1092 l 349 1067 l 65 1179 l 21 1064 l 8 1064 l 47 1214 m 297 22 l 407 14 l 407 0 l 39 0 l 39 14 l 149 22 l 149 950 l 39 958 l 39 972 l 407 972 l 407 958 l 297 950 l 297 22 z "},"ĩ":{"ha":381,"x_min":-36,"x_max":421,"o":"m 3 951 l 81 978 l 363 867 l 408 981 l 421 981 l 382 829 l 304 803 l 21 917 l -24 800 l -36 800 l 3 951 m 47 0 l 47 14 l 133 22 l 133 615 l 44 594 l 42 608 l 251 661 l 265 661 l 265 22 l 353 14 l 353 0 l 47 0 z "},"Ī":{"ha":446,"x_min":25,"x_max":421,"o":"m 25 1156 l 421 1156 l 421 1107 l 25 1107 l 25 1156 m 297 22 l 407 14 l 407 0 l 39 0 l 39 14 l 149 22 l 149 950 l 39 958 l 39 972 l 407 972 l 407 958 l 297 950 l 297 22 z "},"ī":{"ha":381,"x_min":-7,"x_max":389,"o":"m -7 914 l 389 914 l 389 865 l -7 865 l -7 914 m 47 0 l 47 14 l 133 22 l 133 615 l 44 594 l 42 608 l 251 661 l 265 661 l 265 22 l 353 14 l 353 0 l 47 0 z "},"Ĭ":{"ha":446,"x_min":39,"x_max":411,"o":"m 231 1128 q 291 1138 264 1128 q 339 1163 318 1149 q 374 1195 360 1178 q 400 1226 389 1213 l 411 1218 q 359 1134 394 1178 q 247 1051 324 1090 q 173 1067 206 1051 q 116 1106 140 1082 q 74 1158 92 1129 q 47 1217 57 1188 l 57 1225 q 81 1194 65 1211 q 118 1162 96 1176 q 168 1138 140 1147 q 231 1128 196 1128 m 297 22 l 407 14 l 407 0 l 39 0 l 39 14 l 149 22 l 149 950 l 39 958 l 39 972 l 407 972 l 407 958 l 297 950 l 297 22 z "},"ĭ":{"ha":381,"x_min":6,"x_max":369,"o":"m 189 849 q 249 859 222 849 q 297 884 276 869 q 333 915 318 899 q 358 946 347 932 l 369 938 q 317 854 353 897 q 206 771 282 811 q 131 786 164 771 q 74 825 99 801 q 33 878 50 849 q 6 936 15 907 l 15 944 q 39 914 24 931 q 76 883 54 897 q 126 858 99 868 q 189 849 154 849 m 47 0 l 47 14 l 133 22 l 133 615 l 44 594 l 42 608 l 251 661 l 265 661 l 265 22 l 353 14 l 353 0 l 47 0 z "},"Į":{"ha":446,"x_min":39,"x_max":407,"o":"m 297 22 l 407 14 l 407 0 l 251 0 l 181 -167 l 181 -229 q 342 -325 181 -325 l 342 -337 q 155 -302 210 -337 q 100 -197 100 -267 l 100 -143 l 225 0 l 39 0 l 39 14 l 149 22 l 149 950 l 39 958 l 39 972 l 407 972 l 407 958 l 297 950 l 297 22 z "},"į":{"ha":381,"x_min":42,"x_max":353,"o":"m 140 964 l 235 971 l 272 964 l 279 893 l 267 828 l 169 821 l 135 828 l 128 904 l 140 964 m 307 -337 q 120 -302 175 -337 q 65 -197 65 -267 l 65 -136 l 193 0 l 47 0 l 47 14 l 133 22 l 133 615 l 44 594 l 42 608 l 251 661 l 265 661 l 265 22 l 353 14 l 353 0 l 222 0 l 146 -167 l 146 -229 q 307 -325 146 -325 l 307 -337 z "},"İ":{"ha":446,"x_min":39,"x_max":407,"o":"m 167 1233 l 260 1240 l 294 1233 l 301 1167 l 289 1106 l 194 1099 l 161 1106 l 154 1176 l 167 1233 m 297 22 l 407 14 l 407 0 l 39 0 l 39 14 l 149 22 l 149 950 l 39 958 l 39 972 l 407 972 l 407 958 l 297 950 l 297 22 z "},"ı":{"ha":381,"x_min":42,"x_max":353,"o":"m 47 0 l 47 14 l 133 22 l 133 615 l 44 594 l 42 608 l 251 661 l 265 661 l 265 22 l 353 14 l 353 0 l 47 0 z "},"Ĳ":{"ha":824,"x_min":39,"x_max":788,"o":"m 678 168 q 647 31 678 93 q 575 -81 617 -32 l 444 -243 l 358 -243 l 358 -104 l 515 -104 l 521 -74 q 524 -47 522 -62 q 526 -8 525 -32 q 528 51 528 17 q 528 138 528 86 l 528 950 l 428 958 l 428 972 l 788 972 l 788 958 l 678 950 l 678 168 m 297 22 l 404 14 l 404 0 l 39 0 l 39 14 l 149 22 l 149 950 l 39 958 l 39 972 l 383 972 l 383 958 l 297 950 l 297 22 z "},"ĳ":{"ha":689,"x_min":42,"x_max":610,"o":"m 140 964 l 235 971 l 272 964 l 279 893 l 267 828 l 169 821 l 135 828 l 128 904 l 140 964 m 47 0 l 47 14 l 133 22 l 133 615 l 44 594 l 42 608 l 251 661 l 265 661 l 265 22 l 353 14 l 353 0 l 47 0 m 471 964 l 565 971 l 603 964 l 610 893 l 597 828 l 500 821 l 465 828 l 458 904 l 471 964 m 301 -329 l 301 -206 l 451 -206 l 454 -185 q 461 -131 457 -168 q 465 -37 465 -93 l 465 615 l 375 594 l 374 608 l 582 661 l 597 661 l 597 -3 q 594 -54 597 -32 q 583 -95 590 -76 q 562 -132 575 -114 q 529 -171 549 -150 l 394 -329 l 301 -329 z "},"Ĵ":{"ha":463,"x_min":1,"x_max":444,"o":"m 75 1067 l 57 1067 l 235 1261 l 267 1261 l 444 1067 l 426 1067 l 253 1182 l 247 1182 l 75 1067 m 321 157 q 292 6 321 65 q 218 -101 263 -53 l 93 -243 l 1 -243 l 1 -117 l 160 -117 l 164 -86 q 167 -58 165 -74 q 170 -19 169 -43 q 172 39 171 4 q 172 125 172 74 l 172 950 l 35 958 l 35 972 l 431 972 l 431 958 l 321 950 l 321 157 z "},"ĵ":{"ha":360,"x_min":-28,"x_max":382,"o":"m -28 -329 l -28 -206 l 122 -206 l 125 -185 q 132 -131 128 -168 q 136 -37 136 -93 l 136 615 l 46 594 l 44 608 l 253 661 l 268 661 l 268 -3 q 265 -54 268 -32 q 253 -95 261 -76 q 233 -132 246 -114 q 200 -171 219 -150 l 65 -329 l -28 -329 m 25 761 l 10 761 l 181 1017 l 210 1017 l 382 761 l 367 761 l 197 911 l 193 911 l 25 761 z "},"Ķ":{"ha":965,"x_min":39,"x_max":951,"o":"m 297 504 l 767 950 l 642 958 l 642 972 l 911 972 l 911 958 l 794 950 l 329 511 l 442 543 l 868 22 l 951 14 l 951 0 l 700 0 l 297 490 l 297 22 l 406 14 l 406 0 l 39 0 l 39 14 l 149 22 l 149 950 l 39 958 l 39 972 l 406 972 l 406 958 l 297 950 l 297 504 m 503 -178 l 443 -136 l 443 -69 l 575 -69 l 575 -175 l 443 -324 l 429 -321 l 503 -178 z "},"ķ":{"ha":750,"x_min":42,"x_max":743,"o":"m 263 364 l 582 625 l 483 633 l 483 647 l 708 647 l 708 633 l 614 625 l 294 368 l 397 388 l 683 22 l 743 14 l 743 0 l 529 0 l 263 351 l 263 22 l 349 14 l 349 0 l 43 0 l 43 14 l 131 22 l 131 947 l 44 932 l 42 946 l 249 992 l 263 992 l 263 364 m 394 -178 l 335 -136 l 335 -69 l 467 -69 l 467 -175 l 335 -324 l 321 -321 l 394 -178 z "},"ĸ":{"ha":739,"x_min":42,"x_max":732,"o":"m 263 367 l 586 625 l 489 633 l 489 647 l 714 647 l 714 633 l 621 625 l 367 421 l 674 22 l 732 14 l 732 0 l 518 0 l 263 346 l 263 22 l 349 14 l 349 0 l 43 0 l 43 14 l 131 22 l 131 603 l 44 588 l 42 601 l 249 651 l 263 651 l 263 367 z "},"Ĺ":{"ha":778,"x_min":39,"x_max":764,"o":"m 281 1253 l 414 1253 l 233 1067 l 215 1067 l 281 1253 m 39 0 l 39 14 l 149 22 l 149 950 l 39 958 l 39 972 l 407 972 l 407 958 l 297 950 l 297 22 l 649 22 l 750 267 l 764 267 l 764 0 l 39 0 z "},"ĺ":{"ha":369,"x_min":42,"x_max":368,"o":"m 233 1253 l 368 1253 l 186 1067 l 169 1067 l 233 1253 m 43 0 l 43 14 l 131 22 l 131 947 l 44 932 l 42 946 l 249 992 l 263 992 l 263 22 l 349 14 l 349 0 l 43 0 z "},"Ļ":{"ha":778,"x_min":39,"x_max":764,"o":"m 453 -178 l 393 -136 l 393 -69 l 525 -69 l 525 -175 l 393 -324 l 379 -321 l 453 -178 m 39 0 l 39 14 l 149 22 l 149 950 l 39 958 l 39 972 l 407 972 l 407 958 l 297 950 l 297 22 l 649 22 l 750 267 l 764 267 l 764 0 l 39 0 z "},"ļ":{"ha":369,"x_min":42,"x_max":349,"o":"m 193 -178 l 133 -136 l 133 -69 l 265 -69 l 265 -175 l 133 -324 l 119 -321 l 193 -178 m 43 0 l 43 14 l 131 22 l 131 947 l 44 932 l 42 946 l 249 992 l 263 992 l 263 22 l 349 14 l 349 0 l 43 0 z "},"Ľ":{"ha":778,"x_min":39,"x_max":764,"o":"m 575 624 l 665 836 l 607 833 l 569 840 l 563 918 l 575 979 l 674 986 l 714 979 l 721 907 l 708 840 l 585 619 l 575 624 m 39 0 l 39 14 l 149 22 l 149 950 l 39 958 l 39 972 l 407 972 l 407 958 l 297 950 l 297 22 l 649 22 l 750 267 l 764 267 l 764 0 l 39 0 z "},"ľ":{"ha":508,"x_min":42,"x_max":500,"o":"m 354 624 l 444 836 l 386 833 l 349 840 l 342 918 l 354 979 l 453 986 l 493 979 l 500 907 l 486 840 l 364 619 l 354 624 m 43 0 l 43 14 l 131 22 l 131 947 l 44 932 l 42 946 l 249 992 l 263 992 l 263 22 l 349 14 l 349 0 l 43 0 z "},"Ŀ":{"ha":778,"x_min":39,"x_max":764,"o":"m 469 626 l 563 633 l 596 626 l 603 558 l 590 499 l 497 492 l 464 499 l 457 569 l 469 626 m 39 0 l 39 14 l 149 22 l 149 950 l 39 958 l 39 972 l 407 972 l 407 958 l 297 950 l 297 22 l 649 22 l 750 267 l 764 267 l 764 0 l 39 0 z "},"ŀ":{"ha":510,"x_min":42,"x_max":499,"o":"m 365 625 l 456 633 l 490 625 l 499 558 l 488 497 l 396 490 l 363 497 l 356 568 l 365 625 m 43 0 l 43 14 l 131 22 l 131 947 l 44 932 l 42 946 l 249 992 l 263 992 l 263 22 l 349 14 l 349 0 l 43 0 z "},"Ł":{"ha":778,"x_min":39,"x_max":764,"o":"m 39 0 l 39 14 l 149 22 l 149 475 l 44 424 l 44 443 l 149 494 l 149 950 l 39 958 l 39 972 l 407 972 l 407 958 l 297 950 l 297 568 l 453 646 l 453 626 l 297 549 l 297 22 l 649 22 l 750 267 l 764 267 l 764 0 l 39 0 z "},"ł":{"ha":369,"x_min":33,"x_max":356,"o":"m 43 0 l 43 14 l 131 22 l 131 493 l 33 444 l 33 465 l 131 514 l 131 947 l 44 932 l 42 946 l 249 992 l 263 992 l 263 579 l 356 626 l 356 606 l 263 558 l 263 22 l 349 14 l 349 0 l 43 0 z "},"Ń":{"ha":956,"x_min":39,"x_max":942,"o":"m 553 1253 l 688 1253 l 506 1067 l 489 1067 l 553 1253 m 763 -7 l 169 928 l 169 22 l 283 14 l 283 0 l 39 0 l 39 14 l 149 22 l 149 950 l 39 958 l 39 972 l 321 972 l 811 207 l 811 950 l 697 958 l 697 972 l 942 972 l 942 958 l 832 950 l 832 -7 l 763 -7 z "},"ń":{"ha":796,"x_min":42,"x_max":774,"o":"m 425 1004 l 553 1004 l 363 761 l 346 761 l 425 1004 m 47 0 l 47 14 l 133 22 l 133 615 l 44 594 l 42 608 l 251 661 l 265 661 l 265 513 l 517 668 q 590 658 564 668 q 631 632 615 647 q 651 607 643 619 q 665 576 660 594 q 672 531 669 557 q 674 465 674 504 l 674 22 l 774 14 l 774 0 l 474 0 l 474 14 l 539 22 l 539 472 q 517 560 539 536 q 456 583 496 583 q 388 568 417 583 q 317 528 358 553 l 265 497 l 265 22 l 332 14 l 332 0 l 47 0 z "},"Ņ":{"ha":956,"x_min":39,"x_max":942,"o":"m 494 -178 l 435 -136 l 435 -69 l 567 -69 l 567 -175 l 435 -324 l 421 -321 l 494 -178 m 763 -7 l 169 928 l 169 22 l 283 14 l 283 0 l 39 0 l 39 14 l 149 22 l 149 950 l 39 958 l 39 972 l 321 972 l 811 207 l 811 950 l 697 958 l 697 972 l 942 972 l 942 958 l 832 950 l 832 -7 l 763 -7 z "},"ņ":{"ha":796,"x_min":42,"x_max":774,"o":"m 404 -178 l 344 -136 l 344 -69 l 476 -69 l 476 -175 l 344 -324 l 332 -321 l 404 -178 m 47 0 l 47 14 l 133 22 l 133 615 l 44 594 l 42 608 l 251 661 l 265 661 l 265 513 l 517 668 q 590 658 564 668 q 631 632 615 647 q 651 607 643 619 q 665 576 660 594 q 672 531 669 557 q 674 465 674 504 l 674 22 l 774 14 l 774 0 l 474 0 l 474 14 l 539 22 l 539 472 q 517 560 539 536 q 456 583 496 583 q 388 568 417 583 q 317 528 358 553 l 265 497 l 265 22 l 332 14 l 332 0 l 47 0 z "},"Ň":{"ha":956,"x_min":39,"x_max":942,"o":"m 532 1139 l 706 1253 l 724 1253 l 546 1058 l 514 1058 l 336 1253 l 354 1253 l 526 1139 l 532 1139 m 763 -7 l 169 928 l 169 22 l 283 14 l 283 0 l 39 0 l 39 14 l 149 22 l 149 950 l 39 958 l 39 972 l 321 972 l 811 207 l 811 950 l 697 958 l 697 972 l 942 972 l 942 958 l 832 950 l 832 -7 l 763 -7 z "},"ň":{"ha":796,"x_min":42,"x_max":774,"o":"m 415 865 l 583 1014 l 600 1014 l 426 760 l 399 760 l 226 1014 l 242 1014 l 410 865 l 415 865 m 47 0 l 47 14 l 133 22 l 133 615 l 44 594 l 42 608 l 251 661 l 265 661 l 265 513 l 517 668 q 590 658 564 668 q 631 632 615 647 q 651 607 643 619 q 665 576 660 594 q 672 531 669 557 q 674 465 674 504 l 674 22 l 774 14 l 774 0 l 474 0 l 474 14 l 539 22 l 539 472 q 517 560 539 536 q 456 583 496 583 q 388 568 417 583 q 317 528 358 553 l 265 497 l 265 22 l 332 14 l 332 0 l 47 0 z "},"ŉ":{"ha":796,"x_min":42,"x_max":774,"o":"m 65 654 l 149 846 l 96 843 l 63 850 l 56 925 l 67 981 l 163 986 l 199 981 l 206 915 l 193 854 l 74 649 l 65 654 m 47 0 l 47 14 l 133 22 l 133 615 l 44 594 l 42 608 l 251 661 l 265 661 l 265 513 l 517 668 q 590 658 564 668 q 631 632 615 647 q 651 607 643 619 q 665 576 660 594 q 672 531 669 557 q 674 465 674 504 l 674 22 l 774 14 l 774 0 l 474 0 l 474 14 l 539 22 l 539 472 q 517 560 539 536 q 456 583 496 583 q 388 568 417 583 q 317 528 358 553 l 265 497 l 265 22 l 332 14 l 332 0 l 47 0 z "},"Ŋ":{"ha":956,"x_min":39,"x_max":942,"o":"m 642 -326 l 504 -326 l 504 -207 l 625 -207 l 749 -50 l 818 -7 l 763 -7 l 169 928 l 169 22 l 283 14 l 283 0 l 39 0 l 39 14 l 149 22 l 149 950 l 39 958 l 39 972 l 321 972 l 811 207 l 811 950 l 697 958 l 697 972 l 942 972 l 942 958 l 832 950 l 832 -7 l 642 -326 z "},"ŋ":{"ha":757,"x_min":42,"x_max":674,"o":"m 375 -328 l 375 -197 l 526 -197 l 529 -176 q 535 -120 532 -158 q 539 -24 539 -82 l 539 472 q 517 560 539 536 q 456 583 496 583 q 388 568 417 583 q 317 528 358 553 l 265 497 l 265 22 l 332 14 l 332 0 l 47 0 l 47 14 l 133 22 l 133 615 l 44 594 l 42 608 l 251 661 l 265 661 l 265 513 l 517 668 q 590 658 564 668 q 631 632 615 647 q 651 607 643 619 q 665 576 660 594 q 672 531 669 557 q 674 465 674 504 l 674 4 q 669 -47 674 -26 q 655 -87 665 -68 q 628 -128 644 -107 q 588 -178 613 -149 l 474 -328 l 375 -328 z "},"Ō":{"ha":1056,"x_min":53,"x_max":1004,"o":"m 319 1156 l 715 1156 l 715 1107 l 319 1107 l 319 1156 m 557 8 q 675 43 624 8 q 762 140 726 78 q 815 284 797 201 q 833 463 833 367 q 808 663 833 571 q 739 822 783 754 q 633 926 694 889 q 500 964 572 964 q 382 929 433 964 q 295 833 331 894 q 241 690 260 772 q 222 511 222 607 q 247 310 222 403 q 317 151 272 218 q 424 46 363 83 q 557 8 485 8 m 514 -22 q 326 15 411 -22 q 181 118 242 53 q 86 273 119 183 q 53 467 53 363 q 173 822 53 689 q 542 994 293 956 q 729 957 644 994 q 875 854 814 919 q 970 699 936 789 q 1004 506 1004 610 q 884 150 1004 283 q 514 -22 764 17 z "},"ō":{"ha":726,"x_min":46,"x_max":682,"o":"m 171 914 l 567 914 l 567 865 l 171 865 l 171 914 m 346 636 q 227 560 267 636 q 188 350 188 485 q 202 212 188 275 q 242 104 217 149 q 302 35 267 60 q 379 10 338 10 q 499 87 458 10 q 539 296 539 164 q 524 441 539 378 q 483 548 510 504 q 422 614 457 592 q 346 636 388 636 m 343 -21 q 224 3 278 -21 q 130 72 169 28 q 68 176 90 115 q 46 308 46 236 q 70 449 46 389 q 139 553 94 510 q 246 624 183 596 q 383 668 308 651 q 503 644 449 668 q 598 576 558 619 q 660 472 638 532 q 682 340 682 411 q 658 199 682 260 q 588 95 633 139 q 481 24 543 51 q 343 -21 418 -4 z "},"Ŏ":{"ha":1056,"x_min":53,"x_max":1004,"o":"m 529 1128 q 590 1138 564 1128 q 638 1163 617 1149 q 673 1195 658 1178 q 699 1226 688 1213 l 710 1218 q 658 1134 694 1178 q 546 1051 622 1090 q 473 1067 506 1051 q 415 1106 440 1082 q 373 1158 390 1129 q 346 1217 356 1188 l 357 1225 q 381 1194 365 1211 q 418 1162 396 1176 q 468 1138 440 1147 q 529 1128 496 1128 m 557 8 q 675 43 624 8 q 762 140 726 78 q 815 284 797 201 q 833 463 833 367 q 808 663 833 571 q 739 822 783 754 q 633 926 694 889 q 500 964 572 964 q 382 929 433 964 q 295 833 331 894 q 241 690 260 772 q 222 511 222 607 q 247 310 222 403 q 317 151 272 218 q 424 46 363 83 q 557 8 485 8 m 514 -22 q 326 15 411 -22 q 181 118 242 53 q 86 273 119 183 q 53 467 53 363 q 173 822 53 689 q 542 994 293 956 q 729 957 644 994 q 875 854 814 919 q 970 699 936 789 q 1004 506 1004 610 q 884 150 1004 283 q 514 -22 764 17 z "},"ŏ":{"ha":726,"x_min":46,"x_max":682,"o":"m 368 849 q 428 859 401 849 q 476 884 456 869 q 512 915 497 899 q 538 946 526 932 l 549 938 q 497 854 532 897 q 385 771 461 811 q 310 786 343 771 q 253 825 278 801 q 212 878 229 849 q 185 936 194 907 l 194 944 q 218 914 203 931 q 256 883 233 897 q 306 858 278 868 q 368 849 333 849 m 346 636 q 227 560 267 636 q 188 350 188 485 q 202 212 188 275 q 242 104 217 149 q 302 35 267 60 q 379 10 338 10 q 499 87 458 10 q 539 296 539 164 q 524 441 539 378 q 483 548 510 504 q 422 614 457 592 q 346 636 388 636 m 343 -21 q 224 3 278 -21 q 130 72 169 28 q 68 176 90 115 q 46 308 46 236 q 70 449 46 389 q 139 553 94 510 q 246 624 183 596 q 383 668 308 651 q 503 644 449 668 q 598 576 558 619 q 660 472 638 532 q 682 340 682 411 q 658 199 682 260 q 588 95 633 139 q 481 24 543 51 q 343 -21 418 -4 z "},"Ő":{"ha":1056,"x_min":53,"x_max":1004,"o":"m 704 1253 l 857 1253 l 636 1067 l 618 1067 l 704 1253 m 488 1253 l 640 1253 l 419 1067 l 403 1067 l 488 1253 m 557 8 q 675 43 624 8 q 762 140 726 78 q 815 284 797 201 q 833 463 833 367 q 808 663 833 571 q 739 822 783 754 q 633 926 694 889 q 500 964 572 964 q 382 929 433 964 q 295 833 331 894 q 241 690 260 772 q 222 511 222 607 q 247 310 222 403 q 317 151 272 218 q 424 46 363 83 q 557 8 485 8 m 514 -22 q 326 15 411 -22 q 181 118 242 53 q 86 273 119 183 q 53 467 53 363 q 173 822 53 689 q 542 994 293 956 q 729 957 644 994 q 875 854 814 919 q 970 699 936 789 q 1004 506 1004 610 q 884 150 1004 283 q 514 -22 764 17 z "},"ő":{"ha":726,"x_min":46,"x_max":686,"o":"m 535 1000 l 686 1000 l 471 761 l 453 761 l 535 1000 m 322 1000 l 472 1000 l 257 761 l 240 761 l 322 1000 m 346 636 q 227 560 267 636 q 188 350 188 485 q 202 212 188 275 q 242 104 217 149 q 302 35 267 60 q 379 10 338 10 q 499 87 458 10 q 539 296 539 164 q 524 441 539 378 q 483 548 510 504 q 422 614 457 592 q 346 636 388 636 m 343 -21 q 224 3 278 -21 q 130 72 169 28 q 68 176 90 115 q 46 308 46 236 q 70 449 46 389 q 139 553 94 510 q 246 624 183 596 q 383 668 308 651 q 503 644 449 668 q 598 576 558 619 q 660 472 638 532 q 682 340 682 411 q 658 199 682 260 q 588 95 633 139 q 481 24 543 51 q 343 -21 418 -4 z "},"Œ":{"ha":1321,"x_min":53,"x_max":1283,"o":"m 669 22 l 669 950 l 513 964 q 389 929 443 964 q 298 833 335 894 q 242 689 261 772 q 222 508 222 606 q 248 308 222 400 q 319 151 274 217 q 428 48 365 85 q 564 11 490 11 l 669 22 m 525 -17 q 334 19 421 -17 q 185 120 247 56 q 88 274 122 185 q 53 467 53 363 q 175 820 53 690 q 553 989 297 950 l 742 972 l 1276 972 l 1276 719 l 1263 719 l 1168 953 l 818 953 l 818 518 l 1008 518 l 1068 683 l 1082 683 l 1082 336 l 1068 336 l 1008 500 l 818 500 l 818 19 l 1178 19 l 1269 260 l 1283 260 l 1283 0 l 671 0 l 525 -17 z "},"œ":{"ha":1154,"x_min":46,"x_max":1107,"o":"m 1107 135 q 1048 85 1075 107 q 993 46 1021 64 q 935 12 965 28 q 869 -21 906 -4 q 717 17 789 -21 q 604 129 644 54 q 497 35 564 71 q 343 -21 431 -1 q 224 3 278 -21 q 130 72 169 28 q 68 176 90 115 q 46 308 46 236 q 70 449 46 389 q 139 553 94 510 q 246 624 183 596 q 383 668 308 651 q 531 628 467 668 q 631 517 594 588 q 731 616 671 579 q 863 668 792 653 q 1042 601 983 668 q 1101 418 1101 533 l 1101 379 l 678 379 q 676 364 676 369 q 676 351 676 358 q 700 238 679 288 q 754 153 721 188 q 832 102 788 119 q 926 85 876 85 q 1017 102 974 85 q 1100 144 1060 119 l 1107 135 m 346 636 q 226 560 267 636 q 185 350 185 485 q 199 212 185 275 q 239 104 214 149 q 299 35 264 60 q 376 10 335 10 q 497 87 456 10 q 539 296 539 164 q 524 441 539 378 q 483 548 510 504 q 422 614 457 592 q 346 636 388 636 m 826 633 q 718 571 754 633 q 676 404 682 508 l 676 393 l 957 393 q 952 491 957 447 q 933 567 947 535 q 893 616 918 599 q 826 633 868 633 z "},"Ŕ":{"ha":906,"x_min":39,"x_max":899,"o":"m 482 1253 l 615 1253 l 435 1067 l 417 1067 l 482 1253 m 297 461 l 297 22 l 400 14 l 400 0 l 39 0 l 39 14 l 149 22 l 149 950 l 39 958 l 39 972 l 486 972 q 592 960 540 972 q 683 919 643 947 q 749 845 724 890 q 774 733 774 800 q 744 623 774 669 q 665 544 715 576 q 548 492 615 511 q 404 463 481 472 l 583 424 l 832 22 l 899 14 l 899 0 l 674 0 l 397 461 l 297 461 m 297 481 l 374 481 q 552 547 492 481 q 613 722 613 614 q 597 823 613 779 q 556 897 582 867 q 495 942 531 926 q 418 958 460 958 l 297 950 l 297 481 z "},"ŕ":{"ha":514,"x_min":42,"x_max":493,"o":"m 331 1004 l 458 1004 l 268 761 l 251 761 l 331 1004 m 47 0 l 47 14 l 133 22 l 133 615 l 44 596 l 42 608 l 246 661 l 260 661 l 265 444 l 401 661 l 493 661 l 493 519 l 333 519 l 265 425 l 265 24 l 392 14 l 392 0 l 47 0 z "},"Ŗ":{"ha":906,"x_min":39,"x_max":899,"o":"m 482 -178 l 422 -136 l 422 -69 l 554 -69 l 554 -175 l 422 -324 l 408 -321 l 482 -178 m 297 461 l 297 22 l 400 14 l 400 0 l 39 0 l 39 14 l 149 22 l 149 950 l 39 958 l 39 972 l 486 972 q 592 960 540 972 q 683 919 643 947 q 749 845 724 890 q 774 733 774 800 q 744 623 774 669 q 665 544 715 576 q 548 492 615 511 q 404 463 481 472 l 583 424 l 832 22 l 899 14 l 899 0 l 674 0 l 397 461 l 297 461 m 297 481 l 374 481 q 552 547 492 481 q 613 722 613 614 q 597 823 613 779 q 556 897 582 867 q 495 942 531 926 q 418 958 460 958 l 297 950 l 297 481 z "},"ŗ":{"ha":514,"x_min":42,"x_max":493,"o":"m 194 -178 l 135 -136 l 135 -69 l 267 -69 l 267 -175 l 135 -324 l 121 -321 l 194 -178 m 47 0 l 47 14 l 133 22 l 133 615 l 44 596 l 42 608 l 246 661 l 260 661 l 265 444 l 401 661 l 493 661 l 493 519 l 333 519 l 265 425 l 265 24 l 392 14 l 392 0 l 47 0 z "},"Ř":{"ha":906,"x_min":39,"x_max":899,"o":"m 432 1139 l 607 1253 l 624 1253 l 446 1058 l 414 1058 l 236 1253 l 254 1253 l 426 1139 l 432 1139 m 297 461 l 297 22 l 400 14 l 400 0 l 39 0 l 39 14 l 149 22 l 149 950 l 39 958 l 39 972 l 486 972 q 592 960 540 972 q 683 919 643 947 q 749 845 724 890 q 774 733 774 800 q 744 623 774 669 q 665 544 715 576 q 548 492 615 511 q 404 463 481 472 l 583 424 l 832 22 l 899 14 l 899 0 l 674 0 l 397 461 l 297 461 m 297 481 l 374 481 q 552 547 492 481 q 613 722 613 614 q 597 823 613 779 q 556 897 582 867 q 495 942 531 926 q 418 958 460 958 l 297 950 l 297 481 z "},"ř":{"ha":518,"x_min":42,"x_max":493,"o":"m 303 865 l 472 1014 l 488 1014 l 315 760 l 286 760 l 115 1014 l 131 1014 l 299 865 l 303 865 m 47 0 l 47 14 l 133 22 l 133 615 l 44 596 l 42 608 l 246 661 l 260 661 l 265 444 l 401 661 l 493 661 l 493 519 l 333 519 l 265 425 l 265 24 l 392 14 l 392 0 l 47 0 z "},"Ś":{"ha":728,"x_min":58,"x_max":672,"o":"m 449 1253 l 582 1253 l 401 1067 l 383 1067 l 449 1253 m 136 132 q 234 52 178 86 q 363 18 290 18 q 501 66 449 18 q 554 194 554 114 q 518 309 554 260 q 397 407 482 358 l 228 508 q 164 550 193 529 q 114 597 135 571 q 81 654 93 622 q 68 728 68 686 q 146 898 68 829 q 379 994 224 967 q 642 938 524 994 l 642 713 l 628 713 l 556 890 q 472 947 518 926 q 372 967 426 967 q 240 922 289 967 q 190 804 190 876 q 228 701 190 742 q 333 622 267 661 l 500 522 q 630 415 588 471 q 672 278 672 360 q 656 188 672 232 q 601 106 639 144 q 498 34 563 67 q 338 -22 433 1 q 184 -1 249 -22 q 58 60 119 21 l 58 289 l 72 289 l 136 132 z "},"ś":{"ha":528,"x_min":43,"x_max":490,"o":"m 315 1004 l 443 1004 l 253 761 l 236 761 l 315 1004 m 379 592 q 318 633 347 624 q 253 643 289 643 q 179 617 207 643 q 151 551 151 592 q 181 481 151 507 q 258 425 210 456 l 376 350 q 465 274 440 311 q 489 183 490 236 q 431 59 488 113 q 258 -22 374 6 q 142 -4 200 -22 q 43 38 83 14 l 43 219 l 57 219 l 131 72 q 191 26 160 44 q 265 8 222 8 q 353 38 325 8 q 382 104 382 67 q 375 149 382 131 q 355 184 368 168 q 320 215 342 200 q 269 249 299 229 l 156 321 q 116 348 136 333 q 80 381 96 363 q 54 423 64 399 q 44 479 44 447 q 100 593 44 547 q 264 668 156 639 q 381 654 333 668 q 467 619 428 640 l 467 442 l 453 442 l 379 592 z "},"Ŝ":{"ha":728,"x_min":58,"x_max":672,"o":"m 206 1067 l 188 1067 l 365 1261 l 397 1261 l 575 1067 l 557 1067 l 383 1182 l 378 1182 l 206 1067 m 136 132 q 234 52 178 86 q 363 18 290 18 q 501 66 449 18 q 554 194 554 114 q 518 309 554 260 q 397 407 482 358 l 228 508 q 164 550 193 529 q 114 597 135 571 q 81 654 93 622 q 68 728 68 686 q 146 898 68 829 q 379 994 224 967 q 642 938 524 994 l 642 713 l 628 713 l 556 890 q 472 947 518 926 q 372 967 426 967 q 240 922 289 967 q 190 804 190 876 q 228 701 190 742 q 333 622 267 661 l 500 522 q 630 415 588 471 q 672 278 672 360 q 656 188 672 232 q 601 106 639 144 q 498 34 563 67 q 338 -22 433 1 q 184 -1 249 -22 q 58 60 119 21 l 58 289 l 72 289 l 136 132 z "},"ŝ":{"ha":528,"x_min":43,"x_max":490,"o":"m 104 761 l 89 761 l 261 1017 l 289 1017 l 463 761 l 446 761 l 278 911 l 272 911 l 104 761 m 379 592 q 318 633 347 624 q 253 643 289 643 q 179 617 207 643 q 151 551 151 592 q 181 481 151 507 q 258 425 210 456 l 376 350 q 465 274 440 311 q 489 183 490 236 q 431 59 488 113 q 258 -22 374 6 q 142 -4 200 -22 q 43 38 83 14 l 43 219 l 57 219 l 131 72 q 191 26 160 44 q 265 8 222 8 q 353 38 325 8 q 382 104 382 67 q 375 149 382 131 q 355 184 368 168 q 320 215 342 200 q 269 249 299 229 l 156 321 q 116 348 136 333 q 80 381 96 363 q 54 423 64 399 q 44 479 44 447 q 100 593 44 547 q 264 668 156 639 q 381 654 333 668 q 467 619 428 640 l 467 442 l 453 442 l 379 592 z "},"Ş":{"ha":728,"x_min":58,"x_max":672,"o":"m 136 132 q 234 52 178 86 q 363 18 290 18 q 501 66 449 18 q 554 194 554 114 q 518 309 554 260 q 397 407 482 358 l 228 508 q 164 550 193 529 q 114 597 135 571 q 81 654 93 622 q 68 728 68 686 q 146 898 68 829 q 379 994 224 967 q 642 938 524 994 l 642 713 l 628 713 l 556 890 q 472 947 518 926 q 372 967 426 967 q 240 922 289 967 q 190 804 190 876 q 228 701 190 742 q 333 622 267 661 l 500 522 q 630 415 588 471 q 672 278 672 360 q 656 188 672 232 q 601 106 639 144 q 499 34 563 67 q 340 -21 435 1 l 311 -68 q 394 -100 361 -72 q 428 -172 428 -128 q 416 -219 428 -199 q 386 -253 404 -239 q 346 -278 368 -268 q 304 -297 324 -289 l 203 -337 l 168 -337 l 204 -283 l 313 -283 q 343 -244 332 -268 q 354 -196 354 -221 q 327 -137 354 -154 q 264 -117 300 -119 l 325 -22 q 179 1 242 -19 q 58 60 117 22 l 58 289 l 72 289 l 136 132 z "},"ş":{"ha":528,"x_min":43,"x_max":490,"o":"m 379 592 q 318 633 347 624 q 253 643 289 643 q 179 617 207 643 q 151 551 151 592 q 181 481 151 507 q 258 425 210 456 l 376 350 q 465 274 440 311 q 489 183 490 236 q 431 60 488 113 q 263 -21 375 7 l 235 -68 q 317 -100 283 -72 q 350 -172 350 -128 q 338 -219 350 -199 q 308 -253 326 -239 q 269 -278 290 -268 q 226 -297 247 -289 l 125 -337 l 90 -337 l 126 -283 l 235 -283 q 266 -244 256 -268 q 276 -196 276 -221 q 249 -137 276 -154 q 188 -117 222 -119 l 247 -22 q 136 -2 192 -19 q 43 38 81 15 l 43 219 l 57 219 l 131 72 q 191 26 160 44 q 265 8 222 8 q 353 38 325 8 q 382 104 382 67 q 375 149 382 131 q 355 184 368 168 q 320 215 342 200 q 269 249 299 229 l 156 321 q 116 348 136 333 q 80 381 96 363 q 54 423 64 399 q 44 479 44 447 q 100 593 44 547 q 264 668 156 639 q 381 654 333 668 q 467 619 428 640 l 467 442 l 453 442 l 379 592 z "},"Š":{"ha":728,"x_min":58,"x_max":672,"o":"m 383 1139 l 557 1253 l 575 1253 l 397 1058 l 365 1058 l 188 1253 l 206 1253 l 378 1139 l 383 1139 m 136 132 q 234 52 178 86 q 363 18 290 18 q 501 66 449 18 q 554 194 554 114 q 518 309 554 260 q 397 407 482 358 l 228 508 q 164 550 193 529 q 114 597 135 571 q 81 654 93 622 q 68 728 68 686 q 146 898 68 829 q 379 994 224 967 q 642 938 524 994 l 642 713 l 628 713 l 556 890 q 472 947 518 926 q 372 967 426 967 q 240 922 289 967 q 190 804 190 876 q 228 701 190 742 q 333 622 267 661 l 500 522 q 630 415 588 471 q 672 278 672 360 q 656 188 672 232 q 601 106 639 144 q 498 34 563 67 q 338 -22 433 1 q 184 -1 249 -22 q 58 60 119 21 l 58 289 l 72 289 l 136 132 z "},"š":{"ha":528,"x_min":43,"x_max":490,"o":"m 272 865 l 442 1014 l 457 1014 l 285 760 l 256 760 l 83 1014 l 100 1014 l 268 865 l 272 865 m 379 592 q 318 633 347 624 q 253 643 289 643 q 179 617 207 643 q 151 551 151 592 q 181 481 151 507 q 258 425 210 456 l 376 350 q 465 274 440 311 q 489 183 490 236 q 431 59 488 113 q 258 -22 374 6 q 142 -4 200 -22 q 43 38 83 14 l 43 219 l 57 219 l 131 72 q 191 26 160 44 q 265 8 222 8 q 353 38 325 8 q 382 104 382 67 q 375 149 382 131 q 355 184 368 168 q 320 215 342 200 q 269 249 299 229 l 156 321 q 116 348 136 333 q 80 381 96 363 q 54 423 64 399 q 44 479 44 447 q 100 593 44 547 q 264 668 156 639 q 381 654 333 668 q 467 619 428 640 l 467 442 l 453 442 l 379 592 z "},"Ţ":{"ha":796,"x_min":14,"x_max":782,"o":"m 394 -178 l 335 -136 l 335 -69 l 467 -69 l 467 -175 l 335 -324 l 321 -321 l 394 -178 m 596 0 l 200 0 l 200 14 l 324 22 l 324 953 l 128 953 l 28 699 l 14 699 l 14 972 l 782 972 l 782 699 l 768 699 l 668 953 l 472 953 l 472 22 l 596 14 l 596 0 z "},"ţ":{"ha":463,"x_min":7,"x_max":453,"o":"m 247 -178 l 188 -136 l 188 -69 l 319 -69 l 319 -175 l 188 -324 l 174 -321 l 247 -178 m 7 626 l 7 640 l 110 640 l 110 746 l 242 822 l 242 640 l 436 640 l 436 626 l 242 626 l 242 156 q 263 85 242 107 q 324 63 285 63 q 388 72 360 63 q 447 97 415 81 l 453 85 l 258 -21 q 184 -8 213 -21 q 139 28 156 6 q 116 83 122 51 q 110 153 110 115 l 110 626 l 7 626 z "},"Ť":{"ha":796,"x_min":14,"x_max":782,"o":"m 400 1139 l 575 1253 l 592 1253 l 414 1058 l 382 1058 l 204 1253 l 222 1253 l 394 1139 l 400 1139 m 596 0 l 200 0 l 200 14 l 324 22 l 324 953 l 128 953 l 28 699 l 14 699 l 14 972 l 782 972 l 782 699 l 768 699 l 668 953 l 472 953 l 472 22 l 596 14 l 596 0 z "},"ť":{"ha":581,"x_min":7,"x_max":574,"o":"m 453 671 l 529 847 l 471 844 l 438 851 l 432 921 l 443 976 l 532 981 l 565 976 l 574 910 l 561 851 l 463 667 l 453 671 m 7 626 l 7 640 l 110 640 l 110 746 l 242 822 l 242 640 l 436 640 l 436 626 l 242 626 l 242 156 q 263 85 242 107 q 324 63 285 63 q 388 72 360 63 q 447 97 415 81 l 453 85 l 258 -21 q 184 -8 213 -21 q 139 28 156 6 q 116 83 122 51 q 110 153 110 115 l 110 626 l 7 626 z "},"Ŧ":{"ha":796,"x_min":14,"x_max":782,"o":"m 596 0 l 200 0 l 200 14 l 324 22 l 324 593 l 178 593 l 178 606 l 324 606 l 324 953 l 128 953 l 28 699 l 14 699 l 14 972 l 782 972 l 782 699 l 768 699 l 668 953 l 472 953 l 472 606 l 618 606 l 618 593 l 472 593 l 472 22 l 596 14 l 596 0 z "},"ŧ":{"ha":463,"x_min":7,"x_max":453,"o":"m 7 626 l 7 640 l 110 640 l 110 746 l 242 822 l 242 640 l 436 640 l 436 626 l 242 626 l 242 438 l 418 438 l 418 425 l 242 425 l 242 156 q 263 85 242 107 q 324 63 285 63 q 388 72 360 63 q 447 97 415 81 l 453 85 l 258 -21 q 184 -8 213 -21 q 139 28 156 6 q 116 83 122 51 q 110 153 110 115 l 110 425 l 7 425 l 7 438 l 110 438 l 110 626 l 7 626 z "},"Ũ":{"ha":921,"x_min":14,"x_max":907,"o":"m 343 1214 l 421 1240 l 703 1129 l 749 1244 l 761 1244 l 722 1092 l 644 1067 l 361 1179 l 317 1064 l 304 1064 l 343 1214 m 656 958 l 656 972 l 907 972 l 907 958 l 797 950 l 797 331 q 783 210 797 267 q 734 106 769 153 q 638 27 699 60 q 481 -22 576 -6 q 317 4 385 -22 q 206 78 249 31 q 142 193 163 126 q 122 340 122 260 l 122 950 l 14 958 l 14 972 l 382 972 l 382 958 l 272 950 l 272 328 q 289 212 272 265 q 338 118 306 158 q 419 55 371 78 q 531 32 467 32 q 628 55 585 32 q 702 118 671 78 q 750 212 733 158 q 767 328 767 265 l 767 950 l 656 958 z "},"ũ":{"ha":760,"x_min":15,"x_max":728,"o":"m 189 951 l 265 978 l 549 867 l 593 981 l 606 981 l 567 829 l 490 803 l 207 917 l 163 800 l 150 800 l 189 951 m 728 31 l 528 -8 l 504 126 l 267 -21 q 194 -10 222 -21 q 150 14 165 0 q 129 40 138 26 q 115 72 121 53 q 108 117 110 90 q 106 183 106 144 l 106 617 l 17 606 l 15 619 l 228 657 l 242 657 l 242 176 q 263 88 242 114 q 324 61 285 61 q 381 73 356 61 q 442 107 406 85 l 503 143 l 503 617 l 413 606 l 413 619 l 621 657 l 635 657 l 635 179 q 640 104 635 136 q 653 38 644 72 l 725 44 l 728 31 z "},"Ū":{"ha":921,"x_min":14,"x_max":907,"o":"m 319 1156 l 715 1156 l 715 1107 l 319 1107 l 319 1156 m 656 958 l 656 972 l 907 972 l 907 958 l 797 950 l 797 331 q 783 210 797 267 q 734 106 769 153 q 638 27 699 60 q 481 -22 576 -6 q 317 4 385 -22 q 206 78 249 31 q 142 193 163 126 q 122 340 122 260 l 122 950 l 14 958 l 14 972 l 382 972 l 382 958 l 272 950 l 272 328 q 289 212 272 265 q 338 118 306 158 q 419 55 371 78 q 531 32 467 32 q 628 55 585 32 q 702 118 671 78 q 750 212 733 158 q 767 328 767 265 l 767 950 l 656 958 z "},"ū":{"ha":760,"x_min":15,"x_max":728,"o":"m 172 914 l 568 914 l 568 865 l 172 865 l 172 914 m 728 31 l 528 -8 l 504 126 l 267 -21 q 194 -10 222 -21 q 150 14 165 0 q 129 40 138 26 q 115 72 121 53 q 108 117 110 90 q 106 183 106 144 l 106 617 l 17 606 l 15 619 l 228 657 l 242 657 l 242 176 q 263 88 242 114 q 324 61 285 61 q 381 73 356 61 q 442 107 406 85 l 503 143 l 503 617 l 413 606 l 413 619 l 621 657 l 635 657 l 635 179 q 640 104 635 136 q 653 38 644 72 l 725 44 l 728 31 z "},"Ŭ":{"ha":921,"x_min":14,"x_max":907,"o":"m 521 1128 q 581 1138 554 1128 q 629 1163 608 1149 q 665 1195 650 1178 q 690 1226 679 1213 l 701 1218 q 650 1134 686 1178 q 538 1051 614 1090 q 464 1067 496 1051 q 407 1106 432 1082 q 365 1158 382 1129 q 338 1217 347 1188 l 349 1225 q 372 1194 357 1211 q 409 1162 388 1176 q 458 1138 431 1147 q 521 1128 486 1128 m 656 958 l 656 972 l 907 972 l 907 958 l 797 950 l 797 331 q 783 210 797 267 q 734 106 769 153 q 638 27 699 60 q 481 -22 576 -6 q 317 4 385 -22 q 206 78 249 31 q 142 193 163 126 q 122 340 122 260 l 122 950 l 14 958 l 14 972 l 382 972 l 382 958 l 272 950 l 272 328 q 289 212 272 265 q 338 118 306 158 q 419 55 371 78 q 531 32 467 32 q 628 55 585 32 q 702 118 671 78 q 750 212 733 158 q 767 328 767 265 l 767 950 l 656 958 z "},"ŭ":{"ha":760,"x_min":15,"x_max":728,"o":"m 378 849 q 438 859 411 849 q 486 884 465 869 q 522 915 507 899 q 547 946 536 932 l 558 938 q 507 854 543 897 q 394 771 471 811 q 321 786 353 771 q 264 825 289 801 q 222 878 239 849 q 194 936 204 907 l 206 944 q 229 914 214 931 q 266 883 244 897 q 315 858 288 868 q 378 849 343 849 m 728 31 l 528 -8 l 504 126 l 267 -21 q 194 -10 222 -21 q 150 14 165 0 q 129 40 138 26 q 115 72 121 53 q 108 117 110 90 q 106 183 106 144 l 106 617 l 17 606 l 15 619 l 228 657 l 242 657 l 242 176 q 263 88 242 114 q 324 61 285 61 q 381 73 356 61 q 442 107 406 85 l 503 143 l 503 617 l 413 606 l 413 619 l 621 657 l 635 657 l 635 179 q 640 104 635 136 q 653 38 644 72 l 725 44 l 728 31 z "},"Ů":{"ha":921,"x_min":14,"x_max":907,"o":"m 422 1153 q 451 1075 422 1104 q 525 1046 479 1046 q 600 1075 571 1046 q 629 1153 629 1104 q 600 1231 629 1201 q 525 1260 571 1260 q 451 1231 479 1260 q 422 1153 422 1201 m 671 1154 q 659 1099 671 1121 q 627 1063 647 1078 q 581 1037 607 1047 q 526 1017 556 1026 q 473 1024 499 1017 q 426 1047 447 1031 q 393 1088 406 1063 q 381 1150 381 1114 q 392 1205 381 1183 q 424 1242 404 1226 q 470 1267 444 1257 q 525 1288 496 1278 q 579 1281 553 1288 q 626 1258 606 1274 q 658 1217 646 1242 q 671 1154 671 1192 m 656 958 l 656 972 l 907 972 l 907 958 l 797 950 l 797 331 q 783 210 797 267 q 734 106 769 153 q 638 27 699 60 q 481 -22 576 -6 q 317 4 385 -22 q 206 78 249 31 q 142 193 163 126 q 122 340 122 260 l 122 950 l 14 958 l 14 972 l 382 972 l 382 958 l 272 950 l 272 328 q 289 212 272 265 q 338 118 306 158 q 419 55 371 78 q 531 32 467 32 q 628 55 585 32 q 702 118 671 78 q 750 212 733 158 q 767 328 767 265 l 767 950 l 656 958 z "},"ů":{"ha":760,"x_min":15,"x_max":728,"o":"m 271 889 q 299 811 271 840 q 374 782 328 782 q 449 811 419 782 q 478 889 478 840 q 449 967 478 938 q 374 996 419 996 q 299 967 328 996 q 271 889 271 938 m 519 890 q 508 835 519 857 q 476 799 496 814 q 430 773 456 783 q 375 753 404 763 q 322 760 347 753 q 275 783 296 767 q 242 824 254 799 q 229 886 229 850 q 241 941 229 919 q 273 978 253 963 q 319 1003 293 993 q 374 1024 344 1014 q 428 1017 401 1024 q 474 994 454 1010 q 507 953 494 978 q 519 890 519 928 m 728 31 l 528 -8 l 504 126 l 267 -21 q 194 -10 222 -21 q 150 14 165 0 q 129 40 138 26 q 115 72 121 53 q 108 117 110 90 q 106 183 106 144 l 106 617 l 17 606 l 15 619 l 228 657 l 242 657 l 242 176 q 263 88 242 114 q 324 61 285 61 q 381 73 356 61 q 442 107 406 85 l 503 143 l 503 617 l 413 606 l 413 619 l 621 657 l 635 657 l 635 179 q 640 104 635 136 q 653 38 644 72 l 725 44 l 728 31 z "},"Ű":{"ha":921,"x_min":14,"x_max":907,"o":"m 672 1253 l 825 1253 l 604 1067 l 588 1067 l 672 1253 m 457 1253 l 610 1253 l 389 1067 l 371 1067 l 457 1253 m 656 958 l 656 972 l 907 972 l 907 958 l 797 950 l 797 331 q 783 210 797 267 q 734 106 769 153 q 638 27 699 60 q 481 -22 576 -6 q 317 4 385 -22 q 206 78 249 31 q 142 193 163 126 q 122 340 122 260 l 122 950 l 14 958 l 14 972 l 382 972 l 382 958 l 272 950 l 272 328 q 289 212 272 265 q 338 118 306 158 q 419 55 371 78 q 531 32 467 32 q 628 55 585 32 q 702 118 671 78 q 750 212 733 158 q 767 328 767 265 l 767 950 l 656 958 z "},"ű":{"ha":760,"x_min":15,"x_max":728,"o":"m 526 1000 l 678 1000 l 463 761 l 444 761 l 526 1000 m 314 1000 l 464 1000 l 249 761 l 232 761 l 314 1000 m 728 31 l 528 -8 l 504 126 l 267 -21 q 194 -10 222 -21 q 150 14 165 0 q 129 40 138 26 q 115 72 121 53 q 108 117 110 90 q 106 183 106 144 l 106 617 l 17 606 l 15 619 l 228 657 l 242 657 l 242 176 q 263 88 242 114 q 324 61 285 61 q 381 73 356 61 q 442 107 406 85 l 503 143 l 503 617 l 413 606 l 413 619 l 621 657 l 635 657 l 635 179 q 640 104 635 136 q 653 38 644 72 l 725 44 l 728 31 z "},"Ų":{"ha":921,"x_min":14,"x_max":907,"o":"m 656 958 l 656 972 l 907 972 l 907 958 l 797 950 l 797 331 q 790 235 797 281 q 763 151 782 190 q 710 78 743 111 q 628 22 678 46 l 532 -167 l 532 -229 q 693 -325 532 -325 l 693 -337 q 506 -302 561 -337 q 451 -197 451 -267 l 451 -143 l 597 8 q 543 -8 572 -1 q 481 -22 514 -15 q 317 4 385 -22 q 206 78 249 31 q 142 193 163 126 q 122 340 122 260 l 122 950 l 14 958 l 14 972 l 382 972 l 382 958 l 272 950 l 272 328 q 289 212 272 265 q 338 118 306 158 q 419 55 371 78 q 531 32 467 32 q 628 55 585 32 q 702 118 671 78 q 750 212 733 158 q 767 328 767 265 l 767 950 l 656 958 z "},"ų":{"ha":760,"x_min":15,"x_max":728,"o":"m 650 -337 q 463 -302 518 -337 q 408 -197 408 -267 l 408 -136 l 528 -8 l 504 126 l 267 -21 q 194 -10 222 -21 q 150 14 165 0 q 129 40 138 26 q 115 72 121 53 q 108 117 110 90 q 106 183 106 144 l 106 617 l 17 606 l 15 619 l 228 657 l 242 657 l 242 176 q 263 88 242 114 q 324 61 285 61 q 381 73 356 61 q 442 107 406 85 l 503 143 l 503 617 l 413 606 l 413 619 l 621 657 l 635 657 l 635 179 q 640 104 635 136 q 653 38 644 72 l 725 44 l 728 31 l 565 -1 l 489 -167 l 489 -229 q 650 -325 489 -325 l 650 -337 l 650 -337 z "},"Ŵ":{"ha":1393,"x_min":14,"x_max":1379,"o":"m 413 -7 l 99 950 l 14 958 l 14 972 l 374 972 l 374 958 l 261 950 l 508 169 l 678 731 l 607 950 l 522 958 l 522 972 l 882 972 l 882 958 l 769 950 l 1017 169 l 1263 950 l 1142 958 l 1142 972 l 1379 972 l 1379 958 l 1288 950 l 990 10 l 921 -7 l 690 693 l 483 10 l 413 -7 m 524 1067 l 507 1067 l 683 1261 l 715 1261 l 893 1067 l 876 1067 l 703 1182 l 697 1182 l 524 1067 z "},"ŵ":{"ha":1143,"x_min":7,"x_max":1136,"o":"m 1033 625 l 938 633 l 938 647 l 1136 647 l 1136 633 l 1060 625 l 864 25 l 744 -24 l 571 469 l 426 25 l 307 -24 l 79 625 l 7 633 l 7 647 l 304 647 l 304 633 l 226 625 l 415 67 l 557 507 l 517 625 l 444 633 l 444 647 l 742 647 l 742 633 l 663 625 l 853 67 l 1033 625 m 414 761 l 397 761 l 569 1017 l 599 1017 l 771 761 l 756 761 l 586 911 l 582 911 l 414 761 z "},"Ŷ":{"ha":956,"x_min":7,"x_max":949,"o":"m 360 1067 l 343 1067 l 519 1261 l 551 1261 l 729 1067 l 713 1067 l 539 1182 l 533 1182 l 360 1067 m 265 0 l 265 14 l 414 22 l 414 379 l 106 950 l 7 958 l 7 972 l 399 972 l 399 958 l 278 950 l 553 428 l 828 950 l 694 958 l 694 972 l 949 972 l 949 958 l 850 950 l 564 400 l 564 22 l 711 14 l 711 0 l 265 0 z "},"ŷ":{"ha":736,"x_min":7,"x_max":729,"o":"m 276 -196 l 422 61 l 306 8 l 79 625 l 7 633 l 7 647 l 310 647 l 310 633 l 231 625 l 429 79 l 622 625 l 528 633 l 528 647 l 729 647 l 729 633 l 649 625 l 446 53 l 274 -326 l 122 -326 l 122 -196 l 276 -196 m 242 761 l 225 761 l 397 1017 l 426 1017 l 599 761 l 583 761 l 414 911 l 410 911 l 242 761 z "},"Ÿ":{"ha":956,"x_min":7,"x_max":949,"o":"m 328 1217 l 406 1224 l 438 1217 l 446 1156 l 433 1101 l 354 1094 l 322 1101 l 315 1165 l 328 1217 m 632 1217 l 710 1224 l 742 1217 l 750 1156 l 738 1101 l 658 1094 l 626 1101 l 619 1165 l 632 1217 m 265 0 l 265 14 l 414 22 l 414 379 l 106 950 l 7 958 l 7 972 l 399 972 l 399 958 l 278 950 l 553 428 l 828 950 l 694 958 l 694 972 l 949 972 l 949 958 l 850 950 l 564 400 l 564 22 l 711 14 l 711 0 l 265 0 z "},"Ź":{"ha":786,"x_min":25,"x_max":751,"o":"m 461 1253 l 594 1253 l 414 1067 l 396 1067 l 461 1253 m 718 276 l 729 276 l 729 0 l 25 0 l 25 11 l 575 953 l 190 953 l 76 703 l 63 703 l 63 972 l 751 972 l 751 963 l 201 19 l 596 19 l 718 276 z "},"ź":{"ha":636,"x_min":46,"x_max":601,"o":"m 383 1004 l 511 1004 l 321 761 l 304 761 l 383 1004 m 46 0 l 46 11 l 446 633 l 199 633 l 97 432 l 83 432 l 83 647 l 601 647 l 601 636 l 208 14 l 478 14 l 575 218 l 589 218 l 589 0 l 46 0 z "},"Ż":{"ha":786,"x_min":25,"x_max":751,"o":"m 347 1233 l 440 1240 l 475 1233 l 482 1167 l 469 1106 l 376 1099 l 342 1106 l 336 1176 l 347 1233 m 718 276 l 729 276 l 729 0 l 25 0 l 25 11 l 575 953 l 190 953 l 76 703 l 63 703 l 63 972 l 751 972 l 751 963 l 201 19 l 596 19 l 718 276 z "},"ż":{"ha":636,"x_min":46,"x_max":601,"o":"m 283 974 l 376 981 l 411 974 l 418 907 l 406 846 l 313 839 l 278 846 l 272 917 l 283 974 m 46 0 l 46 11 l 446 633 l 199 633 l 97 432 l 83 432 l 83 647 l 601 647 l 601 636 l 208 14 l 478 14 l 575 218 l 589 218 l 589 0 l 46 0 z "},"Ž":{"ha":786,"x_min":25,"x_max":751,"o":"m 419 1139 l 593 1253 l 611 1253 l 432 1058 l 400 1058 l 224 1253 l 240 1253 l 414 1139 l 419 1139 m 718 276 l 729 276 l 729 0 l 25 0 l 25 11 l 575 953 l 190 953 l 76 703 l 63 703 l 63 972 l 751 972 l 751 963 l 201 19 l 596 19 l 718 276 z "},"ž":{"ha":636,"x_min":46,"x_max":601,"o":"m 354 865 l 524 1014 l 539 1014 l 365 760 l 338 760 l 165 1014 l 181 1014 l 349 865 l 354 865 m 46 0 l 46 11 l 446 633 l 199 633 l 97 432 l 83 432 l 83 647 l 601 647 l 601 636 l 208 14 l 478 14 l 575 218 l 589 218 l 589 0 l 46 0 z "},"ſ":{"ha":443,"x_min":35,"x_max":478,"o":"m 257 22 l 403 14 l 403 0 l 35 0 l 35 14 l 125 22 l 125 626 l 35 626 l 35 640 l 125 640 l 125 656 q 138 765 125 724 q 188 843 151 807 l 329 986 l 478 986 l 478 882 l 274 882 l 269 864 q 263 836 265 850 q 258 804 260 822 q 257 760 257 786 q 257 699 257 735 l 257 22 z "},"ƒ":{"ha":429,"x_min":-28,"x_max":464,"o":"m 65 -326 l -28 -326 l -28 -222 l 121 -222 l 125 -204 q 132 -176 129 -190 q 136 -144 135 -162 q 138 -101 138 -126 q 138 -39 138 -75 l 138 626 l 47 626 l 47 640 l 138 640 l 138 656 q 151 765 138 724 q 200 843 164 807 l 342 986 l 464 986 l 464 882 l 286 882 l 281 864 q 274 836 276 850 q 271 804 272 822 q 269 760 269 786 q 269 699 269 735 l 269 640 l 415 640 l 415 626 l 269 626 l 269 4 q 256 -106 269 -64 q 207 -183 243 -147 l 65 -326 z "},"Ǻ":{"ha":968,"x_min":7,"x_max":961,"o":"m 864 22 l 961 14 l 961 0 l 583 0 l 583 13 l 700 22 l 592 351 l 247 351 l 132 22 l 250 13 l 250 0 l 7 0 l 7 14 l 107 22 l 433 940 l 538 990 l 864 22 m 256 372 l 585 372 l 426 860 l 256 372 m 490 1015 q 441 1022 465 1015 q 397 1044 417 1029 q 366 1082 378 1058 q 354 1139 354 1106 q 365 1188 354 1168 q 395 1223 376 1208 q 438 1247 414 1238 q 489 1267 463 1257 l 557 1357 l 657 1357 l 517 1264 q 592 1231 560 1258 q 625 1143 625 1203 q 614 1092 625 1113 q 585 1058 603 1072 q 542 1035 567 1044 q 490 1015 517 1025 m 396 1142 q 422 1071 396 1097 q 489 1044 449 1044 q 557 1071 531 1044 q 583 1142 583 1097 q 557 1211 583 1185 q 489 1238 531 1238 q 422 1211 449 1238 q 396 1142 396 1185 z "},"ǻ":{"ha":656,"x_min":40,"x_max":649,"o":"m 208 889 q 237 811 208 840 q 311 782 265 782 q 387 811 357 782 q 417 889 417 840 q 387 967 417 938 q 311 996 357 996 q 237 967 265 996 q 208 889 208 938 m 313 753 q 259 760 285 753 q 213 783 233 767 q 179 824 192 799 q 167 886 167 850 q 178 941 167 919 q 210 978 190 963 q 257 1003 231 993 q 311 1024 283 1014 l 357 1083 l 488 1083 l 354 1019 q 427 981 397 1011 q 457 890 457 950 q 445 835 457 857 q 414 799 433 814 q 368 773 394 783 q 313 753 342 763 m 322 668 q 439 658 397 668 q 508 621 481 647 q 542 556 533 596 q 550 460 550 515 l 550 160 q 556 96 550 126 q 574 33 563 65 l 647 43 l 649 31 l 447 -10 l 418 110 l 225 -21 q 92 22 143 -21 q 40 144 40 64 q 55 216 40 179 q 115 288 69 253 l 415 385 l 415 479 q 413 535 415 508 q 399 580 410 561 q 364 610 388 599 q 297 621 340 621 q 260 617 276 621 q 215 606 244 614 l 183 447 l 63 447 l 63 554 l 322 668 m 415 371 l 244 306 q 199 251 217 282 q 182 178 182 221 q 208 92 182 125 q 276 60 235 60 q 333 73 306 60 q 379 100 361 86 l 415 125 l 415 371 z "},"Ǽ":{"ha":1332,"x_min":7,"x_max":1296,"o":"m 815 1253 l 950 1253 l 768 1067 l 751 1067 l 815 1253 m 689 935 l 414 478 l 689 478 l 689 935 m 253 0 l 7 0 l 7 14 l 107 22 l 690 972 l 1289 972 l 1289 719 l 1275 719 l 1181 953 l 838 953 l 838 478 l 1019 478 l 1081 643 l 1094 643 l 1094 296 l 1081 296 l 1019 458 l 838 458 l 838 19 l 1190 19 l 1282 260 l 1296 260 l 1296 0 l 579 0 l 579 14 l 689 22 l 689 458 l 401 458 l 135 22 l 253 13 l 253 0 z "},"ǽ":{"ha":1003,"x_min":40,"x_max":957,"o":"m 563 1004 l 690 1004 l 500 761 l 483 761 l 563 1004 m 686 633 q 579 569 613 633 q 542 400 546 506 q 543 388 542 392 l 806 388 q 801 487 806 442 q 783 565 796 532 q 747 615 771 597 q 686 633 724 633 m 957 132 q 897 83 925 104 q 840 44 868 61 q 781 11 811 26 q 713 -21 750 -4 q 551 18 626 -21 q 439 139 476 57 l 225 -21 q 92 22 143 -21 q 40 144 40 64 q 55 216 40 179 q 115 288 69 253 l 407 385 l 407 479 q 405 533 407 507 q 392 578 403 558 q 361 609 382 597 q 301 621 340 621 q 278 620 288 621 q 260 617 269 619 q 241 613 251 615 q 217 606 231 610 l 186 447 l 64 447 l 64 554 l 319 668 q 403 664 368 668 q 462 649 438 660 q 501 617 486 638 q 524 564 515 597 q 616 631 564 607 q 726 668 668 654 q 894 601 838 668 q 950 418 950 533 l 950 374 l 544 374 q 543 360 543 367 q 543 346 543 353 q 565 230 546 279 q 613 149 583 181 q 683 101 643 117 q 769 85 724 85 q 863 102 818 85 q 947 144 907 119 l 957 132 m 275 60 q 326 74 304 60 q 372 107 349 89 l 422 146 q 415 172 418 156 q 410 205 413 188 q 408 240 408 222 q 407 269 407 257 l 407 371 l 244 306 q 199 251 217 282 q 182 179 182 221 q 208 92 182 125 q 275 60 235 60 z "},"Ǿ":{"ha":1056,"x_min":53,"x_max":1004,"o":"m 514 -22 q 356 3 428 -22 q 226 75 285 29 l 150 -21 l 121 -21 l 210 90 q 94 253 135 157 q 53 467 53 349 q 173 822 53 689 q 542 994 293 956 q 708 966 632 994 q 843 885 783 938 l 929 993 l 956 993 l 858 871 q 966 710 928 804 q 1004 506 1004 617 q 884 150 1004 283 q 514 -22 764 17 m 222 511 q 240 338 222 418 q 292 193 258 257 l 761 783 q 650 915 717 867 q 500 964 583 964 q 382 929 433 964 q 295 833 331 894 q 241 690 260 772 q 222 511 222 607 m 557 8 q 675 43 624 8 q 762 140 726 78 q 815 284 797 201 q 833 463 833 367 q 817 624 833 549 q 772 763 801 700 l 303 172 q 413 51 347 94 q 557 8 478 8 m 567 1253 l 701 1253 l 519 1067 l 503 1067 l 567 1253 z "},"ǿ":{"ha":726,"x_min":46,"x_max":682,"o":"m 343 -21 q 233 -1 283 -21 q 144 56 183 19 l 85 -14 l 61 -14 l 132 68 q 69 174 92 113 q 46 308 46 235 q 70 449 46 389 q 139 553 94 510 q 246 624 183 596 q 383 668 308 651 q 492 649 442 668 q 581 593 542 629 l 649 671 l 669 671 l 593 581 q 658 476 635 536 q 682 340 682 415 q 658 199 682 260 q 588 95 633 139 q 481 24 543 51 q 343 -21 418 -4 m 539 296 q 511 486 539 407 l 221 146 q 288 46 247 82 q 379 10 328 10 q 499 87 458 10 q 539 296 539 164 m 346 636 q 227 560 267 636 q 188 350 188 485 q 194 251 188 297 q 214 165 201 204 l 504 503 q 438 602 479 568 q 346 636 396 636 m 407 1004 l 533 1004 l 344 761 l 326 761 l 407 1004 z "},"Ș":{"ha":728,"x_min":58,"x_max":672,"o":"m 389 -178 l 329 -136 l 329 -69 l 461 -69 l 461 -175 l 329 -324 l 317 -321 l 389 -178 m 136 132 q 234 52 178 86 q 363 18 290 18 q 501 66 449 18 q 554 194 554 114 q 518 309 554 260 q 397 407 482 358 l 228 508 q 164 550 193 529 q 114 597 135 571 q 81 654 93 622 q 68 728 68 686 q 146 898 68 829 q 379 994 224 967 q 642 938 524 994 l 642 713 l 628 713 l 556 890 q 472 947 518 926 q 372 967 426 967 q 240 922 289 967 q 190 804 190 876 q 228 701 190 742 q 333 622 267 661 l 500 522 q 630 415 588 471 q 672 278 672 360 q 656 188 672 232 q 601 106 639 144 q 498 34 563 67 q 338 -22 433 1 q 184 -1 249 -22 q 58 60 119 21 l 58 289 l 72 289 l 136 132 z "},"ș":{"ha":528,"x_min":43,"x_max":490,"o":"m 271 -178 l 211 -136 l 211 -69 l 343 -69 l 343 -175 l 211 -324 l 197 -321 l 271 -178 m 379 592 q 318 633 347 624 q 253 643 289 643 q 179 617 207 643 q 151 551 151 592 q 181 481 151 507 q 258 425 210 456 l 376 350 q 465 274 440 311 q 489 183 490 236 q 431 59 488 113 q 258 -22 374 6 q 142 -4 200 -22 q 43 38 83 14 l 43 219 l 57 219 l 131 72 q 191 26 160 44 q 265 8 222 8 q 353 38 325 8 q 382 104 382 67 q 375 149 382 131 q 355 184 368 168 q 320 215 342 200 q 269 249 299 229 l 156 321 q 116 348 136 333 q 80 381 96 363 q 54 423 64 399 q 44 479 44 447 q 100 593 44 547 q 264 668 156 639 q 381 654 333 668 q 467 619 428 640 l 467 442 l 453 442 l 379 592 z "},"Ț":{"ha":796,"x_min":14,"x_max":782,"o":"m 394 -178 l 335 -136 l 335 -69 l 467 -69 l 467 -175 l 335 -324 l 321 -321 l 394 -178 m 596 0 l 200 0 l 200 14 l 324 22 l 324 953 l 128 953 l 28 699 l 14 699 l 14 972 l 782 972 l 782 699 l 768 699 l 668 953 l 472 953 l 472 22 l 596 14 l 596 0 z "},"ț":{"ha":463,"x_min":7,"x_max":453,"o":"m 247 -178 l 188 -136 l 188 -69 l 319 -69 l 319 -175 l 188 -324 l 174 -321 l 247 -178 m 7 626 l 7 640 l 110 640 l 110 746 l 242 822 l 242 640 l 436 640 l 436 626 l 242 626 l 242 156 q 263 85 242 107 q 324 63 285 63 q 388 72 360 63 q 447 97 415 81 l 453 85 l 258 -21 q 184 -8 213 -21 q 139 28 156 6 q 116 83 122 51 q 110 153 110 115 l 110 626 l 7 626 z "},"ʰ":{"ha":492,"x_min":28,"x_max":478,"o":"m 29 556 l 29 567 l 76 572 l 76 1072 l 29 1065 l 28 1078 l 167 1100 l 178 1100 l 178 842 l 326 928 q 374 922 357 928 q 400 906 390 915 q 419 875 414 893 q 425 815 425 857 l 425 572 l 478 567 l 478 556 l 285 556 l 285 567 l 319 572 l 319 819 q 308 860 319 849 q 276 871 297 871 q 240 864 256 871 q 204 846 225 857 l 178 831 l 178 572 l 213 567 l 213 556 l 29 556 z "},"ʲ":{"ha":228,"x_min":-21,"x_max":178,"o":"m 81 1088 l 149 1092 l 174 1088 l 178 1043 l 169 1001 l 101 997 l 78 1001 l 72 1050 l 81 1088 m -21 375 l -21 457 l 65 457 l 67 471 q 71 503 68 482 q 74 556 74 524 l 74 892 l 25 883 l 22 894 l 161 924 l 174 924 l 174 581 q 172 544 174 560 q 163 514 169 528 q 146 488 157 500 q 118 460 135 475 l 33 375 l -21 375 z "},"ʷ":{"ha":701,"x_min":7,"x_max":694,"o":"m 635 900 l 583 906 l 583 915 l 694 915 l 694 906 l 656 900 l 542 569 l 447 542 l 350 807 l 269 569 l 175 542 l 44 900 l 7 906 l 7 915 l 199 915 l 199 906 l 156 900 l 261 601 l 340 835 l 317 900 l 279 906 l 279 915 l 471 915 l 471 906 l 426 900 l 532 601 l 635 900 z "},"ʸ":{"ha":456,"x_min":7,"x_max":449,"o":"m 179 463 l 268 594 l 179 563 l 44 900 l 7 906 l 7 915 l 206 915 l 206 906 l 160 900 l 274 608 l 386 900 l 335 906 l 335 915 l 449 915 l 449 906 l 406 900 l 286 589 l 178 376 l 72 376 l 72 463 l 179 463 z "},"ʼ":{"ha":256,"x_min":56,"x_max":214,"o":"m 68 624 l 158 836 l 100 833 l 63 840 l 56 918 l 68 979 l 167 986 l 207 979 l 214 907 l 201 840 l 78 619 l 68 624 z "},"ˆ":{"ha":694,"x_min":156,"x_max":528,"o":"m 171 761 l 156 761 l 326 1017 l 356 1017 l 528 761 l 513 761 l 343 911 l 339 911 l 171 761 z "},"ˇ":{"ha":694,"x_min":154,"x_max":528,"o":"m 343 867 l 513 1017 l 528 1017 l 356 761 l 326 761 l 154 1017 l 171 1017 l 339 867 l 343 867 z "},"˘":{"ha":694,"x_min":167,"x_max":531,"o":"m 350 849 q 410 861 383 849 q 458 891 438 874 q 494 928 479 908 q 519 965 508 949 l 531 957 q 479 864 515 913 q 367 771 443 815 q 293 788 325 771 q 236 831 261 804 q 194 890 211 858 q 167 954 176 922 l 178 964 q 201 928 186 947 q 238 890 217 908 q 288 860 260 872 q 350 849 315 849 z "},"˙":{"ha":694,"x_min":279,"x_max":426,"o":"m 292 982 l 385 988 l 419 982 l 426 914 l 414 854 l 319 847 l 286 854 l 279 924 l 292 982 z "},"˚":{"ha":694,"x_min":196,"x_max":486,"o":"m 238 889 q 266 811 238 840 q 340 782 294 782 q 415 811 386 782 q 444 889 444 840 q 415 967 444 938 q 340 996 386 996 q 266 967 294 996 q 238 889 238 938 m 486 890 q 474 835 486 857 q 442 799 463 814 q 397 773 422 783 q 342 753 371 763 q 288 760 314 753 q 242 783 263 767 q 208 824 221 799 q 196 886 196 850 q 208 941 196 919 q 240 978 219 963 q 285 1003 260 993 q 340 1024 311 1014 q 394 1017 368 1024 q 441 994 421 1010 q 474 953 461 978 q 486 890 486 928 z "},"˛":{"ha":694,"x_min":247,"x_max":489,"o":"m 328 -168 l 328 -231 q 489 -326 328 -326 l 489 -337 q 302 -302 357 -337 q 247 -197 247 -267 l 247 -136 l 411 43 l 421 43 l 328 -168 z "},"˜":{"ha":694,"x_min":118,"x_max":574,"o":"m 157 951 l 233 978 l 517 867 l 561 981 l 574 981 l 535 829 l 458 803 l 175 917 l 131 800 l 118 800 l 157 951 z "},"˝":{"ha":694,"x_min":82,"x_max":528,"o":"m 376 1000 l 528 1000 l 313 761 l 294 761 l 376 1000 m 164 1000 l 315 1000 l 99 761 l 82 761 l 164 1000 z "},"ˣ":{"ha":467,"x_min":17,"x_max":460,"o":"m 154 556 l 17 556 l 17 567 l 71 572 l 194 714 l 60 900 l 22 906 l 22 915 l 218 915 l 218 906 l 186 900 l 274 776 l 375 900 l 317 906 l 317 915 l 449 915 l 449 906 l 393 900 l 283 764 l 421 572 l 460 567 l 460 556 l 261 556 l 261 567 l 296 572 l 203 701 l 90 572 l 154 567 l 154 556 z "},"Δ":{"ha":967,"x_min":28,"x_max":939,"o":"m 28 0 l 28 14 l 451 969 l 521 990 l 939 15 l 939 0 l 28 0 m 58 25 l 767 25 l 422 861 l 58 25 z "},"Ω":{"ha":961,"x_min":42,"x_max":919,"o":"m 51 0 l 51 240 l 65 240 l 114 92 l 383 92 l 383 206 q 257 240 318 214 q 148 312 196 267 q 71 422 100 357 q 42 569 42 486 q 147 834 42 728 q 494 993 253 940 q 667 963 589 993 q 802 878 746 932 q 889 753 858 825 q 919 601 919 682 q 894 447 919 513 q 824 333 869 381 q 715 256 778 286 q 578 207 653 225 l 578 92 l 844 92 l 897 240 l 911 240 l 911 0 l 549 0 l 549 221 q 614 246 579 226 q 678 306 649 265 q 728 411 708 346 q 747 574 747 476 q 726 730 747 660 q 668 850 706 800 q 579 928 631 900 q 465 956 528 956 q 360 928 407 956 q 281 855 314 901 q 231 744 249 808 q 214 607 214 681 q 231 454 214 522 q 275 336 247 386 q 339 257 303 286 q 414 222 375 228 l 414 0 l 51 0 z "},"μ":{"ha":861,"x_min":121,"x_max":739,"o":"m 647 647 l 647 22 l 739 14 l 739 0 l 576 0 l 535 78 l 517 128 l 279 -21 q 210 -11 239 -21 q 164 14 181 -1 q 151 29 157 21 q 140 49 144 38 l 140 -42 l 261 -319 l 121 -319 l 121 647 l 257 647 l 257 176 q 278 89 257 114 q 338 64 300 64 q 394 75 369 64 q 453 107 418 86 l 515 143 l 515 647 l 647 647 z "},"π":{"ha":861,"x_min":50,"x_max":811,"o":"m 672 22 l 765 14 l 765 0 l 603 0 l 540 111 l 540 629 l 339 629 l 339 0 l 207 0 l 207 629 l 142 629 l 63 444 l 50 444 l 50 647 l 811 647 l 811 629 l 672 629 l 672 22 z "},"Ẁ":{"ha":1393,"x_min":14,"x_max":1379,"o":"m 413 -7 l 99 950 l 14 958 l 14 972 l 374 972 l 374 958 l 261 950 l 508 169 l 678 731 l 607 950 l 522 958 l 522 972 l 882 972 l 882 958 l 769 950 l 1017 169 l 1263 950 l 1142 958 l 1142 972 l 1379 972 l 1379 958 l 1288 950 l 990 10 l 921 -7 l 690 693 l 483 10 l 413 -7 m 706 1067 l 525 1253 l 658 1253 l 724 1067 l 706 1067 z "},"ẁ":{"ha":1143,"x_min":7,"x_max":1136,"o":"m 1033 625 l 938 633 l 938 647 l 1136 647 l 1136 633 l 1060 625 l 864 25 l 744 -24 l 571 469 l 426 25 l 307 -24 l 79 625 l 7 633 l 7 647 l 304 647 l 304 633 l 226 625 l 415 67 l 557 507 l 517 625 l 444 633 l 444 647 l 742 647 l 742 633 l 663 625 l 853 67 l 1033 625 m 597 761 l 407 1004 l 535 1004 l 614 761 l 597 761 z "},"Ẃ":{"ha":1393,"x_min":14,"x_max":1379,"o":"m 413 -7 l 99 950 l 14 958 l 14 972 l 374 972 l 374 958 l 261 950 l 508 169 l 678 731 l 607 950 l 522 958 l 522 972 l 882 972 l 882 958 l 769 950 l 1017 169 l 1263 950 l 1142 958 l 1142 972 l 1379 972 l 1379 958 l 1288 950 l 990 10 l 921 -7 l 690 693 l 483 10 l 413 -7 m 782 1253 l 917 1253 l 735 1067 l 718 1067 l 782 1253 z "},"ẃ":{"ha":1143,"x_min":7,"x_max":1136,"o":"m 1033 625 l 938 633 l 938 647 l 1136 647 l 1136 633 l 1060 625 l 864 25 l 744 -24 l 571 469 l 426 25 l 307 -24 l 79 625 l 7 633 l 7 647 l 304 647 l 304 633 l 226 625 l 415 67 l 557 507 l 517 625 l 444 633 l 444 647 l 742 647 l 742 633 l 663 625 l 853 67 l 1033 625 m 649 1004 l 775 1004 l 586 761 l 568 761 l 649 1004 z "},"Ẅ":{"ha":1393,"x_min":14,"x_max":1379,"o":"m 413 -7 l 99 950 l 14 958 l 14 972 l 374 972 l 374 958 l 261 950 l 508 169 l 678 731 l 607 950 l 522 958 l 522 972 l 882 972 l 882 958 l 769 950 l 1017 169 l 1263 950 l 1142 958 l 1142 972 l 1379 972 l 1379 958 l 1288 950 l 990 10 l 921 -7 l 690 693 l 483 10 l 413 -7 m 796 1217 l 875 1224 l 907 1217 l 914 1156 l 901 1101 l 822 1094 l 790 1101 l 785 1165 l 796 1217 m 492 1217 l 571 1224 l 603 1217 l 610 1156 l 597 1101 l 518 1094 l 486 1101 l 481 1165 l 492 1217 z "},"ẅ":{"ha":1143,"x_min":7,"x_max":1136,"o":"m 1033 625 l 938 633 l 938 647 l 1136 647 l 1136 633 l 1060 625 l 864 25 l 744 -24 l 571 469 l 426 25 l 307 -24 l 79 625 l 7 633 l 7 647 l 304 647 l 304 633 l 226 625 l 415 67 l 557 507 l 517 625 l 444 633 l 444 647 l 742 647 l 742 633 l 663 625 l 853 67 l 1033 625 m 657 947 l 735 954 l 767 947 l 775 886 l 763 831 l 683 824 l 651 831 l 644 896 l 657 947 m 421 947 l 499 954 l 531 947 l 539 886 l 526 831 l 447 824 l 415 831 l 408 896 l 421 947 z "},"Ỳ":{"ha":956,"x_min":7,"x_max":949,"o":"m 529 1067 l 347 1253 l 482 1253 l 546 1067 l 529 1067 m 265 0 l 265 14 l 414 22 l 414 379 l 106 950 l 7 958 l 7 972 l 399 972 l 399 958 l 278 950 l 553 428 l 828 950 l 694 958 l 694 972 l 949 972 l 949 958 l 850 950 l 564 400 l 564 22 l 711 14 l 711 0 l 265 0 z "},"ỳ":{"ha":736,"x_min":7,"x_max":729,"o":"m 276 -196 l 422 61 l 306 8 l 79 625 l 7 633 l 7 647 l 310 647 l 310 633 l 231 625 l 429 79 l 622 625 l 528 633 l 528 647 l 729 647 l 729 633 l 649 625 l 446 53 l 274 -326 l 122 -326 l 122 -196 l 276 -196 m 421 761 l 231 1004 l 358 1004 l 438 761 l 421 761 z "},"–":{"ha":667,"x_min":56,"x_max":611,"o":"m 56 403 l 611 403 l 611 369 l 56 369 l 56 403 z "},"—":{"ha":1208,"x_min":49,"x_max":1160,"o":"m 1160 369 l 49 369 l 49 403 l 1160 403 l 1160 369 z "},"‘":{"ha":318,"x_min":90,"x_max":249,"o":"m 236 983 l 146 769 l 204 774 l 242 767 l 249 689 l 236 626 l 138 619 l 97 626 l 90 700 l 103 767 l 226 986 l 236 983 z "},"’":{"ha":311,"x_min":69,"x_max":228,"o":"m 82 624 l 172 836 l 114 833 l 76 840 l 69 918 l 82 979 l 181 986 l 221 979 l 228 907 l 215 840 l 92 619 l 82 624 z "},"‚":{"ha":256,"x_min":56,"x_max":214,"o":"m 68 -193 l 158 19 l 100 17 l 63 24 l 56 101 l 68 163 l 167 169 l 207 163 l 214 90 l 201 24 l 78 -197 l 68 -193 z "},"“":{"ha":488,"x_min":63,"x_max":446,"o":"m 433 982 l 343 769 l 401 774 l 439 767 l 446 688 l 433 626 l 335 619 l 294 626 l 288 699 l 300 767 l 424 986 l 433 982 m 208 982 l 118 769 l 176 774 l 214 767 l 221 688 l 208 626 l 110 619 l 69 626 l 63 699 l 75 767 l 199 986 l 208 982 z "},"”":{"ha":488,"x_min":63,"x_max":446,"o":"m 75 626 l 165 839 l 107 835 l 69 842 l 63 921 l 75 982 l 174 989 l 214 982 l 221 910 l 208 842 l 85 622 l 75 626 m 300 626 l 390 839 l 332 835 l 294 842 l 288 921 l 300 982 l 399 989 l 439 982 l 446 910 l 433 842 l 310 622 l 300 626 z "},"„":{"ha":488,"x_min":63,"x_max":446,"o":"m 300 -193 l 390 19 l 332 17 l 294 24 l 288 101 l 300 163 l 399 169 l 439 163 l 446 90 l 433 24 l 310 -197 l 300 -193 m 75 -193 l 165 19 l 107 17 l 69 24 l 63 101 l 75 163 l 174 169 l 214 163 l 221 90 l 208 24 l 85 -197 l 75 -193 z "},"†":{"ha":606,"x_min":35,"x_max":571,"o":"m 306 -83 l 299 -83 l 269 311 l 204 454 l 263 514 l 297 689 l 35 619 l 35 772 l 297 701 l 225 986 l 378 986 l 304 701 l 571 772 l 571 619 l 306 689 l 340 514 l 399 454 l 333 311 l 306 -83 z "},"‡":{"ha":619,"x_min":42,"x_max":578,"o":"m 385 -75 l 232 -75 l 304 210 l 42 139 l 42 293 l 304 222 l 269 397 l 211 456 l 269 514 l 304 689 l 42 619 l 42 772 l 304 701 l 232 986 l 385 986 l 311 701 l 578 772 l 578 619 l 313 689 l 347 514 l 406 456 l 347 397 l 313 222 l 578 293 l 578 139 l 311 210 l 385 -75 z "},"•":{"ha":301,"x_min":69,"x_max":232,"o":"m 82 496 l 182 503 l 225 496 l 232 418 l 221 347 l 119 340 l 76 347 l 69 429 l 82 496 z "},"…":{"ha":1064,"x_min":104,"x_max":960,"o":"m 813 146 l 914 153 l 953 146 l 960 69 l 947 0 l 844 -7 l 807 0 l 800 81 l 813 146 m 465 146 l 567 153 l 604 146 l 613 69 l 599 0 l 497 -7 l 460 0 l 453 81 l 465 146 m 117 146 l 218 153 l 257 146 l 264 69 l 251 0 l 149 -7 l 111 0 l 104 81 l 117 146 z "},"‰":{"ha":1651,"x_min":69,"x_max":1582,"o":"m 290 957 q 204 902 232 957 q 176 757 176 847 q 208 580 176 644 q 310 515 240 515 q 397 569 369 515 q 425 715 425 624 q 392 892 425 826 q 290 957 360 957 m 279 494 q 192 512 231 494 q 126 560 154 529 q 84 633 99 590 q 69 728 69 676 q 133 897 69 838 q 321 979 196 956 q 408 962 368 979 q 474 914 447 944 q 517 840 501 883 q 532 744 532 796 q 469 574 532 635 q 279 494 406 514 m 822 456 q 736 401 764 456 q 708 256 708 346 q 740 80 708 144 q 842 15 772 15 q 929 69 901 15 q 957 214 957 124 q 925 390 957 325 q 822 456 893 456 m 813 -7 q 725 10 764 -7 q 659 58 686 28 q 617 132 632 89 q 601 226 601 175 q 665 396 601 338 q 853 478 728 454 q 940 460 901 478 q 1007 413 979 443 q 1049 339 1035 382 q 1064 244 1064 296 q 1001 74 1064 135 q 813 -7 938 14 m 1340 456 q 1254 401 1282 456 q 1226 256 1226 346 q 1258 80 1226 144 q 1360 15 1290 15 q 1447 69 1419 15 q 1475 214 1475 124 q 1443 390 1475 325 q 1340 456 1411 456 m 1331 -7 q 1243 10 1282 -7 q 1177 58 1204 28 q 1135 132 1150 89 q 1119 226 1119 175 q 1183 396 1119 338 q 1371 478 1246 454 q 1458 460 1419 478 q 1525 413 1497 443 q 1567 339 1553 382 q 1582 244 1582 296 q 1519 74 1582 135 q 1331 -7 1456 14 m 901 979 l 940 979 l 257 -7 l 215 -7 l 901 979 z "},"‹":{"ha":396,"x_min":69,"x_max":340,"o":"m 321 21 l 69 326 l 322 632 l 340 632 l 158 326 l 340 21 l 321 21 z "},"›":{"ha":396,"x_min":69,"x_max":340,"o":"m 251 326 l 69 632 l 88 632 l 340 326 l 89 21 l 69 21 l 251 326 z "},"⁄":{"ha":132,"x_min":-222,"x_max":354,"o":"m -181 -69 l -222 -69 l 315 986 l 354 986 l -181 -69 z "},"⁰":{"ha":514,"x_min":35,"x_max":479,"o":"m 275 1103 q 362 1083 324 1103 q 426 1027 400 1063 q 465 942 451 992 q 479 833 479 893 q 424 640 479 713 q 242 543 368 568 q 153 563 192 543 q 88 619 114 583 q 49 704 63 654 q 35 813 35 754 q 91 1006 35 935 q 275 1103 147 1078 m 358 808 q 353 920 358 869 q 334 1007 347 971 q 301 1063 321 1043 q 251 1083 281 1083 q 207 1065 225 1083 q 178 1015 189 1047 q 162 938 167 982 q 157 839 157 893 q 163 726 157 778 q 181 639 168 675 q 213 583 193 603 q 263 563 233 563 q 307 581 289 563 q 336 631 325 599 q 353 709 347 664 q 358 808 358 754 z "},"⁴":{"ha":461,"x_min":7,"x_max":454,"o":"m 344 739 l 454 739 l 454 726 l 344 726 l 344 556 l 243 556 l 243 726 l 15 726 l 7 738 l 258 1090 l 388 1090 l 388 1081 l 25 739 l 243 739 l 243 858 l 344 913 l 344 739 z "},"⁵":{"ha":417,"x_min":35,"x_max":382,"o":"m 88 1011 l 65 822 l 244 910 q 349 875 317 910 q 382 797 382 840 q 369 738 382 764 q 333 692 356 713 q 282 654 311 671 q 222 622 253 638 l 82 554 l 35 554 l 35 636 l 200 636 q 253 693 236 664 q 271 763 271 722 q 251 822 271 794 q 182 850 231 850 q 138 845 157 850 q 88 825 119 840 l 56 810 l 49 813 l 83 1090 l 379 1090 l 363 1011 l 88 1011 z "},"⁶":{"ha":476,"x_min":42,"x_max":442,"o":"m 304 900 q 368 887 342 900 q 410 853 394 874 q 434 806 426 832 q 442 756 442 781 q 392 624 442 678 q 233 544 342 569 q 151 561 186 544 q 91 607 115 578 q 54 675 67 636 q 42 758 42 714 q 59 865 42 813 q 115 963 76 917 q 216 1047 154 1010 q 365 1106 278 1083 l 369 1097 q 260 1041 301 1072 q 197 974 219 1010 q 167 896 175 938 q 157 808 158 854 l 157 800 l 304 900 m 331 719 q 313 813 331 782 q 263 843 294 843 q 223 831 243 843 q 178 801 203 819 l 158 789 q 183 622 161 681 q 250 564 206 564 q 310 601 290 564 q 331 719 331 638 z "},"⁷":{"ha":401,"x_min":14,"x_max":388,"o":"m 14 1090 l 379 1090 l 388 1082 l 144 556 l 68 556 l 68 565 l 342 1008 l 14 1008 l 14 1090 z "},"⁸":{"ha":468,"x_min":42,"x_max":426,"o":"m 226 544 q 157 552 190 544 q 98 576 124 560 q 57 616 72 592 q 42 672 42 640 q 53 718 42 697 q 82 756 64 739 q 124 785 100 772 q 174 811 147 799 l 133 842 q 78 895 101 865 q 54 961 54 925 q 104 1051 54 1018 q 246 1103 154 1085 q 374 1074 328 1103 q 421 997 421 1046 q 388 923 421 956 q 288 861 356 890 l 351 815 q 404 763 382 792 q 426 697 426 735 q 378 599 426 635 q 226 544 329 564 m 271 874 q 308 933 300 903 q 317 993 317 963 q 292 1061 317 1038 q 228 1085 268 1085 q 178 1069 199 1085 q 157 1021 157 1054 q 181 955 157 985 q 250 890 204 925 l 271 874 m 242 563 q 269 566 256 563 q 294 578 283 569 q 313 603 306 588 q 321 643 321 619 q 303 703 321 678 q 246 758 285 728 l 194 796 q 156 746 169 772 q 142 685 142 719 q 151 630 142 653 q 174 592 160 607 q 207 569 189 576 q 242 563 225 563 z "},"⁹":{"ha":456,"x_min":14,"x_max":414,"o":"m 86 553 q 188 608 147 578 q 252 674 228 638 q 287 753 276 711 q 299 842 297 794 l 299 847 l 156 749 q 91 762 118 749 q 47 796 64 775 q 22 843 31 817 q 14 896 14 869 q 65 1025 14 972 q 222 1104 117 1078 q 305 1087 269 1104 q 365 1040 340 1069 q 401 972 389 1011 q 414 890 414 933 q 395 784 414 836 q 338 686 376 732 q 238 603 299 640 q 92 544 176 567 l 86 553 m 125 938 q 145 837 125 869 q 199 804 165 804 q 215 806 208 804 q 229 811 222 807 q 247 822 236 815 q 272 840 257 829 l 299 858 q 274 1025 296 965 q 207 1085 251 1085 q 125 938 125 1085 z "},"⁺":{"ha":569,"x_min":69,"x_max":500,"o":"m 274 625 l 274 810 l 69 810 l 69 831 l 274 831 l 274 1018 l 296 1018 l 296 831 l 500 831 l 500 810 l 296 810 l 296 625 l 274 625 z "},"⁻":{"ha":578,"x_min":69,"x_max":508,"o":"m 69 849 l 508 849 l 508 828 l 69 828 l 69 849 z "},"⁼":{"ha":572,"x_min":69,"x_max":503,"o":"m 69 750 l 503 750 l 503 729 l 69 729 l 69 750 m 69 896 l 503 896 l 503 876 l 69 876 l 69 896 z "},"⁽":{"ha":300,"x_min":69,"x_max":272,"o":"m 69 811 q 80 913 69 865 q 114 1003 90 960 q 175 1090 138 1047 q 265 1176 213 1132 l 272 1171 q 168 1007 197 1099 q 139 811 139 915 q 168 615 139 707 q 272 451 197 522 l 265 446 q 175 533 213 490 q 114 618 138 575 q 80 708 90 661 q 69 811 69 756 z "},"⁾":{"ha":300,"x_min":28,"x_max":231,"o":"m 231 811 q 220 708 231 756 q 186 618 210 661 q 125 533 163 575 q 33 446 88 490 l 28 451 q 131 615 101 522 q 160 811 160 707 q 131 1007 160 915 q 28 1171 101 1099 l 33 1176 q 125 1090 88 1132 q 186 1003 163 1047 q 220 913 210 960 q 231 811 231 865 z "},"ⁿ":{"ha":493,"x_min":28,"x_max":479,"o":"m 31 556 l 31 567 l 78 572 l 78 892 l 29 883 l 28 894 l 168 924 l 179 924 l 179 843 l 328 928 q 374 922 358 928 q 400 906 390 915 q 420 874 415 892 q 425 815 425 857 l 425 572 l 479 567 l 479 556 l 286 556 l 286 567 l 321 572 l 321 819 q 310 860 321 849 q 278 871 299 871 q 242 864 258 871 q 206 846 226 857 l 179 831 l 179 572 l 214 567 l 214 556 l 31 556 z "},"₀":{"ha":514,"x_min":35,"x_max":479,"o":"m 275 339 q 362 319 324 339 q 426 263 400 299 q 465 178 451 228 q 479 69 479 129 q 424 -124 479 -53 q 242 -221 368 -196 q 153 -201 192 -221 q 88 -145 114 -181 q 49 -60 63 -110 q 35 49 35 -11 q 91 242 35 171 q 275 339 147 314 m 358 44 q 353 156 358 106 q 334 243 347 207 q 301 299 321 279 q 251 319 281 319 q 207 301 225 319 q 178 251 189 283 q 162 174 167 218 q 157 75 157 129 q 163 -37 157 14 q 181 -125 168 -89 q 213 -181 193 -161 q 263 -201 233 -201 q 336 -133 314 -201 q 358 44 358 -64 z "},"₁":{"ha":363,"x_min":28,"x_max":356,"o":"m 32 249 l 28 258 l 233 333 l 244 333 l 244 -193 l 356 -199 l 356 -208 l 35 -208 l 35 -199 l 143 -193 l 143 285 l 32 249 z "},"₂":{"ha":478,"x_min":14,"x_max":436,"o":"m 100 -126 l 436 -126 l 436 -137 l 407 -208 l 22 -208 l 14 -200 l 111 -103 q 255 66 211 -6 q 299 203 299 138 q 274 283 299 254 q 215 311 250 311 q 158 301 185 311 l 126 176 l 32 176 l 32 267 l 236 339 q 319 328 285 339 q 375 299 353 317 q 407 257 397 281 q 417 208 417 233 q 358 67 417 131 q 186 -74 300 3 l 100 -126 z "},"₃":{"ha":436,"x_min":28,"x_max":388,"o":"m 31 -211 l 31 -131 l 233 -131 q 267 -89 256 -110 q 279 -39 279 -68 q 240 38 279 6 q 126 68 201 69 l 124 79 l 172 107 q 219 135 201 121 q 247 163 238 149 q 259 193 256 178 q 263 226 263 208 q 242 286 263 264 q 190 308 221 308 q 167 305 179 308 q 147 299 154 301 l 114 194 l 28 194 l 28 274 l 238 339 q 301 331 275 339 q 342 309 326 322 q 364 279 357 296 q 371 247 371 263 q 364 213 371 231 q 339 180 357 196 q 290 149 321 164 q 213 121 260 133 q 344 81 300 118 q 388 0 388 43 q 351 -85 388 -51 q 240 -150 314 -118 l 97 -211 l 31 -211 z "},"₄":{"ha":461,"x_min":7,"x_max":454,"o":"m 344 -25 l 454 -25 l 454 -39 l 344 -39 l 344 -208 l 243 -208 l 243 -39 l 15 -39 l 7 -28 l 258 326 l 388 326 l 388 317 l 25 -25 l 243 -25 l 243 94 l 344 149 l 344 -25 z "},"₅":{"ha":417,"x_min":35,"x_max":382,"o":"m 88 247 l 65 58 l 244 146 q 349 111 317 146 q 382 33 382 76 q 369 -26 382 0 q 333 -72 356 -51 q 282 -110 311 -93 q 222 -142 253 -126 l 82 -211 l 35 -211 l 35 -129 l 200 -129 q 253 -72 236 -101 q 271 -1 271 -42 q 251 58 271 31 q 182 86 231 86 q 138 81 157 86 q 88 61 119 76 l 56 46 l 49 49 l 83 326 l 379 326 l 363 247 l 88 247 z "},"₆":{"ha":476,"x_min":42,"x_max":442,"o":"m 304 136 q 368 123 342 136 q 410 89 394 110 q 434 42 426 68 q 442 -10 442 17 q 392 -140 442 -86 q 233 -219 342 -194 q 151 -203 186 -219 q 91 -157 115 -186 q 54 -89 67 -128 q 42 -7 42 -50 q 59 100 42 47 q 115 199 76 153 q 216 283 154 246 q 365 342 278 319 l 369 333 q 260 277 301 308 q 197 210 219 246 q 167 132 175 174 q 157 44 158 90 l 157 36 l 304 136 m 331 -44 q 313 49 331 18 q 263 79 294 79 q 223 67 243 79 q 178 38 203 56 l 158 25 q 183 -142 160 -83 q 250 -201 206 -201 q 310 -164 290 -201 q 331 -44 331 -126 z "},"₇":{"ha":401,"x_min":14,"x_max":388,"o":"m 14 326 l 379 326 l 388 318 l 144 -208 l 68 -208 l 68 -200 l 342 244 l 14 244 l 14 326 z "},"₈":{"ha":468,"x_min":42,"x_max":426,"o":"m 226 -219 q 157 -212 190 -219 q 98 -188 124 -204 q 57 -149 72 -172 q 42 -92 42 -125 q 53 -46 42 -67 q 82 -8 64 -25 q 124 22 100 8 q 174 47 147 35 l 133 78 q 78 131 101 101 q 54 197 54 161 q 104 288 54 254 q 246 339 154 321 q 374 310 328 339 q 421 233 421 282 q 388 159 421 192 q 288 97 356 126 l 351 51 q 404 -1 382 28 q 426 -67 426 -29 q 378 -165 426 -129 q 226 -219 329 -200 m 271 110 q 308 169 300 139 q 317 229 317 199 q 292 297 317 274 q 228 321 268 321 q 178 306 199 321 q 157 257 157 290 q 181 191 157 221 q 250 126 204 161 l 271 110 m 242 -203 q 269 -199 256 -203 q 294 -186 283 -196 q 313 -160 306 -176 q 321 -121 321 -144 q 303 -62 321 -86 q 246 -6 285 -37 l 194 32 q 156 -18 169 8 q 142 -79 142 -44 q 151 -134 142 -111 q 174 -172 160 -157 q 207 -195 189 -187 q 242 -203 225 -203 z "},"₉":{"ha":456,"x_min":14,"x_max":414,"o":"m 86 -212 q 188 -157 147 -187 q 252 -90 228 -126 q 287 -11 276 -53 q 299 78 297 31 l 299 83 l 156 -15 q 91 -2 118 -15 q 47 32 64 11 q 22 79 31 53 q 14 132 14 106 q 65 261 14 208 q 222 340 117 314 q 305 323 269 340 q 365 276 340 306 q 401 208 389 247 q 414 126 414 169 q 395 20 414 72 q 338 -78 376 -32 q 238 -161 299 -124 q 92 -221 176 -199 l 86 -212 m 125 174 q 145 73 125 106 q 199 40 165 40 q 215 42 208 40 q 229 47 222 43 q 247 58 236 51 q 272 76 257 65 l 299 94 q 274 261 296 201 q 207 321 251 321 q 125 174 125 321 z "},"₍":{"ha":300,"x_min":69,"x_max":272,"o":"m 69 47 q 80 149 69 101 q 114 240 90 196 q 175 326 138 283 q 265 413 213 368 l 272 407 q 168 243 197 335 q 139 47 139 151 q 168 -150 139 -58 q 272 -314 197 -242 l 265 -319 q 175 -232 213 -274 q 114 -147 138 -190 q 80 -56 90 -103 q 69 47 69 -8 z "},"₎":{"ha":300,"x_min":28,"x_max":231,"o":"m 231 47 q 220 -56 231 -8 q 186 -147 210 -103 q 125 -232 163 -190 q 33 -319 88 -274 l 28 -314 q 131 -150 101 -242 q 160 47 160 -58 q 131 243 160 151 q 28 407 101 335 l 33 413 q 125 326 88 368 q 186 240 163 283 q 220 149 210 196 q 231 47 231 101 z "},"€":{"ha":914,"x_min":63,"x_max":858,"o":"m 63 421 l 131 421 q 129 446 129 433 q 129 472 129 458 q 133 553 129 513 l 63 553 l 63 571 l 136 571 q 188 735 150 661 q 283 863 225 808 q 417 951 342 917 q 583 996 493 985 q 738 975 667 996 q 854 922 810 954 l 854 676 l 840 676 l 742 896 q 575 978 681 978 q 472 953 521 978 q 385 876 424 928 q 323 749 347 825 q 293 571 299 672 l 703 571 l 690 553 l 293 553 l 293 524 q 294 472 293 497 q 299 421 296 446 l 613 421 l 599 401 l 301 401 q 334 267 311 331 q 394 158 357 204 q 485 84 432 111 q 611 57 539 57 q 674 65 642 57 q 738 85 707 72 q 798 113 769 97 q 849 144 826 128 l 858 128 q 733 42 808 83 q 568 -21 658 0 q 415 4 489 -21 q 281 81 340 29 q 181 213 221 133 q 132 401 142 293 l 63 401 l 63 421 z "},"ℓ":{"ha":628,"x_min":56,"x_max":572,"o":"m 176 8 l 176 331 q 117 305 151 319 q 56 279 83 290 l 56 310 q 115 334 79 319 q 176 361 150 349 l 176 861 l 406 1000 q 485 980 453 999 q 536 933 517 961 q 564 870 556 904 q 572 804 572 836 q 552 674 572 736 q 495 559 532 613 q 409 461 458 506 q 301 385 360 417 l 301 36 l 553 136 l 560 126 l 274 -24 l 176 8 m 301 415 q 404 531 368 454 q 440 739 440 608 q 437 809 440 774 q 424 874 433 844 q 399 921 414 903 q 358 939 383 939 q 326 933 342 939 q 301 919 311 926 l 301 415 z "},"№":{"ha":1339,"x_min":39,"x_max":1283,"o":"m 715 0 l 590 0 l 179 911 l 179 0 l 42 0 l 42 14 l 158 22 l 158 950 l 39 958 l 39 972 l 310 972 l 694 119 l 694 972 l 835 972 l 835 958 l 715 950 l 715 0 m 806 0 l 806 33 l 1282 33 l 1282 0 l 806 0 m 1029 125 q 940 143 981 125 q 869 194 899 161 q 822 272 839 226 q 806 369 806 317 q 824 476 806 431 q 876 555 843 522 q 956 608 910 588 q 1058 642 1003 629 q 1149 624 1108 642 q 1220 573 1190 606 q 1267 495 1250 540 q 1283 396 1283 450 q 1265 289 1283 335 q 1213 210 1246 243 q 1132 156 1179 176 q 1029 125 1085 135 m 1175 361 q 1135 549 1175 483 q 1033 614 1094 614 q 944 558 975 614 q 914 404 914 503 q 924 300 914 347 q 954 219 935 253 q 999 167 974 186 q 1057 149 1025 149 q 1145 206 1115 149 q 1175 361 1175 264 z "},"™":{"ha":1344,"x_min":69,"x_max":1275,"o":"m 431 438 l 172 438 l 172 449 l 246 454 l 246 960 l 147 960 l 81 818 l 69 818 l 69 972 l 535 972 l 535 818 l 524 818 l 456 960 l 358 960 l 358 454 l 431 449 l 431 438 m 1101 929 l 903 433 l 847 433 l 636 942 l 636 454 l 694 449 l 694 438 l 563 438 l 563 449 l 619 454 l 619 957 l 563 963 l 563 972 l 743 972 l 929 544 l 1103 972 l 1275 972 l 1275 963 l 1215 957 l 1215 454 l 1275 449 l 1275 438 l 1051 438 l 1051 449 l 1101 454 l 1101 929 z "},"Ω":{"ha":1017,"x_min":69,"x_max":947,"o":"m 79 0 l 79 240 l 93 240 l 142 92 l 411 92 l 411 206 q 285 240 346 214 q 176 312 224 267 q 99 422 128 357 q 69 569 69 486 q 175 834 69 728 q 522 993 281 940 q 695 963 617 993 q 830 878 774 932 q 917 753 886 825 q 947 601 947 682 q 922 447 947 513 q 851 333 897 381 q 743 256 806 286 q 606 207 681 225 l 606 92 l 872 92 l 925 240 l 939 240 l 939 0 l 576 0 l 576 221 q 642 246 607 226 q 706 306 676 265 q 756 411 736 346 q 775 574 775 476 q 754 730 775 660 q 696 850 733 800 q 607 928 658 900 q 493 956 556 956 q 388 928 435 956 q 309 855 342 901 q 259 744 276 808 q 242 607 242 681 q 258 454 242 522 q 303 336 275 386 q 367 257 331 286 q 442 222 403 228 l 442 0 l 79 0 z "},"℮":{"ha":1143,"x_min":69,"x_max":1074,"o":"m 1056 306 q 989 180 1031 232 q 886 90 947 128 q 744 26 825 53 q 563 -21 664 0 q 362 16 453 -21 q 206 118 271 53 q 106 272 142 183 q 69 465 69 361 q 97 661 69 579 q 185 803 124 743 q 345 909 247 864 q 585 993 443 954 q 778 960 690 993 q 931 866 867 926 q 1032 720 994 806 q 1074 532 1069 635 l 1074 461 l 253 461 l 253 340 q 369 107 288 193 q 568 21 450 21 q 684 42 632 21 q 776 100 736 63 q 842 190 815 138 q 883 306 868 242 l 1056 306 m 253 535 l 885 535 l 885 640 q 772 866 854 783 q 569 949 689 949 q 365 880 442 949 q 253 700 289 811 l 253 535 z "},"←":{"ha":847,"x_min":69,"x_max":778,"o":"m 149 389 l 444 118 l 444 63 l 69 410 l 444 757 l 444 701 l 149 431 l 778 431 l 778 389 l 149 389 z "},"↑":{"ha":833,"x_min":69,"x_max":764,"o":"m 396 685 l 125 389 l 69 389 l 417 764 l 764 389 l 708 389 l 438 685 l 438 56 l 396 56 l 396 685 z "},"→":{"ha":847,"x_min":69,"x_max":778,"o":"m 69 431 l 699 431 l 403 701 l 403 757 l 778 410 l 403 63 l 403 118 l 699 389 l 69 389 l 69 431 z "},"↓":{"ha":833,"x_min":69,"x_max":764,"o":"m 438 764 l 438 135 l 708 431 l 764 431 l 417 56 l 69 431 l 125 431 l 396 135 l 396 764 l 438 764 z "},"↖":{"ha":654,"x_min":69,"x_max":585,"o":"m 556 144 l 108 589 l 108 188 l 69 149 l 69 660 l 582 660 l 542 621 l 140 621 l 585 174 l 556 144 z "},"↗":{"ha":654,"x_min":69,"x_max":585,"o":"m 514 621 l 113 621 l 72 660 l 585 660 l 585 149 l 546 188 l 546 589 l 99 144 l 69 174 l 514 621 z "},"↘":{"ha":654,"x_min":69,"x_max":585,"o":"m 99 639 l 546 194 l 546 597 l 585 636 l 585 125 l 72 125 l 113 164 l 514 164 l 69 610 l 99 639 z "},"↙":{"ha":654,"x_min":69,"x_max":585,"o":"m 140 164 l 542 164 l 582 125 l 69 125 l 69 636 l 108 597 l 108 194 l 556 639 l 585 610 l 140 164 z "},"∂":{"ha":861,"x_min":111,"x_max":751,"o":"m 446 -21 q 294 41 357 1 q 190 131 231 81 q 130 243 149 182 q 111 371 111 304 q 124 471 111 421 q 166 561 138 521 q 240 626 194 601 q 347 651 285 651 l 586 519 q 556 665 578 596 q 492 793 533 733 q 386 901 450 853 q 231 988 322 950 l 236 1000 q 471 894 374 961 q 631 742 568 826 q 722 563 693 658 q 751 371 751 467 q 732 225 751 296 q 674 99 713 154 q 578 12 636 44 q 446 -21 521 -21 m 415 15 q 491 48 458 15 q 546 138 524 81 q 579 274 568 196 q 590 442 590 351 q 590 469 590 456 q 588 497 589 483 l 549 518 q 471 552 504 542 q 401 563 438 563 q 301 498 340 563 q 263 310 263 433 q 299 87 263 158 q 415 15 336 15 z "},"∆":{"ha":988,"x_min":39,"x_max":950,"o":"m 39 0 l 39 14 l 463 969 l 532 990 l 950 15 l 950 0 l 39 0 m 69 25 l 778 25 l 433 861 l 69 25 z "},"∏":{"ha":1003,"x_min":28,"x_max":975,"o":"m 28 958 l 28 972 l 975 972 l 975 958 l 858 950 l 858 -200 l 968 -208 l 968 -222 l 603 -222 l 603 -208 l 713 -200 l 713 953 l 283 953 l 283 -200 l 393 -208 l 393 -222 l 28 -222 l 28 -208 l 138 -200 l 138 950 l 28 958 z "},"∑":{"ha":861,"x_min":85,"x_max":776,"o":"m 92 -222 l 85 -210 l 506 335 l 104 953 l 111 972 l 771 972 l 771 750 l 757 750 l 654 953 l 272 953 l 604 438 l 604 425 l 196 -104 l 683 -104 l 763 46 l 776 46 l 776 -222 l 92 -222 z "},"−":{"ha":861,"x_min":65,"x_max":796,"o":"m 65 401 l 796 401 l 796 368 l 65 368 l 65 401 z "},"√":{"ha":861,"x_min":-99,"x_max":960,"o":"m 229 -22 l -22 619 l -99 629 l -99 643 l 125 643 l 333 79 l 733 1213 l 960 1213 l 950 1182 l 744 1182 l 333 22 l 229 -22 z "},"∞":{"ha":1125,"x_min":83,"x_max":1042,"o":"m 828 179 q 749 194 788 179 q 678 231 711 208 q 615 281 644 253 q 563 333 586 308 l 536 364 l 458 278 q 377 208 422 238 q 282 179 332 179 q 199 196 236 179 q 137 242 163 213 q 97 312 111 272 q 83 397 83 351 q 131 533 83 472 q 299 653 179 594 q 381 638 342 653 q 453 598 419 622 q 517 545 488 574 q 572 490 547 517 l 593 468 l 668 546 q 756 622 708 590 q 861 653 804 653 q 938 636 904 653 q 995 591 972 619 q 1030 524 1018 563 q 1042 440 1042 485 q 1031 359 1042 394 q 994 294 1019 324 q 928 236 969 264 q 828 179 888 208 m 617 443 l 628 432 q 677 385 649 410 q 736 342 706 361 q 798 309 767 322 q 857 296 829 296 q 913 303 886 296 q 962 328 940 311 q 997 370 983 344 q 1010 433 1010 396 q 969 529 1010 494 q 844 564 929 564 q 751 542 800 564 q 657 478 701 519 l 617 443 m 290 267 q 380 286 335 267 q 467 346 425 306 l 511 389 l 510 390 q 459 441 486 415 q 402 488 432 467 q 341 522 372 508 q 278 536 310 536 q 160 503 203 536 q 117 406 117 469 q 161 307 117 347 q 290 267 206 267 z "},"∫":{"ha":861,"x_min":165,"x_max":696,"o":"m 271 -326 l 165 -326 l 165 -222 l 326 -222 l 332 -204 q 339 -176 336 -190 q 342 -144 342 -162 q 344 -101 343 -126 q 344 -39 344 -75 l 344 656 q 358 765 344 724 q 407 843 371 807 l 549 986 l 696 986 l 696 882 l 493 882 l 488 864 q 481 836 483 850 q 478 804 479 822 q 476 760 476 786 q 476 699 476 735 l 476 4 q 463 -106 476 -64 q 413 -183 449 -147 l 271 -326 z "},"≈":{"ha":861,"x_min":36,"x_max":825,"o":"m 115 235 l 50 128 l 36 128 l 89 239 l 221 264 l 747 181 l 811 283 l 825 283 l 772 178 l 640 147 l 115 235 m 115 490 l 50 383 l 36 383 l 89 494 l 221 519 l 747 436 l 811 539 l 825 539 l 772 433 l 640 403 l 115 490 z "},"≠":{"ha":861,"x_min":71,"x_max":790,"o":"m 592 490 l 790 490 l 790 457 l 564 457 l 369 224 l 790 224 l 790 192 l 343 192 l 183 0 l 140 0 l 300 192 l 71 192 l 71 224 l 326 224 l 522 457 l 71 457 l 71 490 l 550 490 l 697 667 l 739 667 l 592 490 z "},"≤":{"ha":861,"x_min":69,"x_max":792,"o":"m 69 508 l 792 842 l 792 806 l 114 499 l 792 193 l 792 157 l 69 488 l 69 508 m 69 33 l 792 33 l 792 0 l 69 0 l 69 33 z "},"≥":{"ha":861,"x_min":69,"x_max":792,"o":"m 69 0 l 69 33 l 792 33 l 792 0 l 69 0 m 69 157 l 69 193 l 747 499 l 69 806 l 69 842 l 792 508 l 792 488 l 69 157 z "},"◊":{"ha":861,"x_min":65,"x_max":796,"o":"m 456 -1 l 390 -26 l 65 458 l 414 972 l 472 994 l 796 510 l 456 -1 m 394 903 l 156 543 l 469 67 l 708 422 l 394 903 z "},"":{"ha":694,"x_min":271,"x_max":415,"o":"m 339 -179 l 283 -137 l 283 -76 l 415 -76 l 415 -178 l 283 -331 l 271 -328 l 339 -179 z "},"":{"ha":422,"x_min":28,"x_max":415,"o":"m 210 928 q 290 922 263 928 q 333 900 317 915 q 355 866 349 888 q 361 813 361 844 l 361 647 q 365 614 361 631 q 374 581 368 597 l 414 585 l 415 575 l 278 549 l 258 614 l 144 544 q 61 568 94 544 q 28 638 28 592 q 37 678 28 657 q 74 719 46 700 l 256 771 l 256 833 q 247 883 256 864 q 196 901 239 901 q 177 900 185 901 q 154 894 169 899 l 138 800 l 43 800 l 43 864 l 210 928 m 256 761 l 172 731 q 136 660 136 706 q 150 613 136 631 q 188 596 164 596 q 216 601 203 596 q 240 613 229 607 l 256 625 l 256 761 z "},"":{"ha":451,"x_min":7,"x_max":424,"o":"m 424 764 q 368 615 424 668 q 211 544 313 563 q 125 551 163 544 q 56 572 88 558 l 56 1071 l 8 1064 l 7 1078 l 146 1100 l 157 1100 l 157 851 l 281 928 q 382 885 340 928 q 424 764 424 843 m 313 728 q 293 835 313 801 q 233 869 274 869 q 203 864 217 869 q 174 849 190 858 l 157 839 l 157 586 q 218 560 176 560 q 285 604 258 560 q 313 728 313 649 z "},"":{"ha":469,"x_min":28,"x_max":456,"o":"m 139 753 q 161 647 139 689 q 224 604 183 604 q 249 608 239 604 q 279 625 260 613 l 294 633 l 294 883 q 272 900 286 893 q 239 907 258 907 q 163 865 188 907 q 139 753 139 824 m 186 544 q 122 558 151 544 q 72 594 93 571 q 40 649 51 617 q 28 717 28 681 q 70 851 28 794 q 210 928 113 908 q 294 907 254 928 l 294 1072 l 247 1065 l 246 1078 l 385 1100 l 396 1100 l 396 649 q 398 615 396 628 q 408 582 400 601 l 454 586 l 456 576 l 318 549 l 296 624 l 186 544 z "},"":{"ha":401,"x_min":28,"x_max":372,"o":"m 222 544 q 147 556 182 544 q 85 590 113 568 q 43 645 58 613 q 28 719 28 678 q 43 799 28 764 q 85 860 58 833 q 147 903 113 886 q 222 928 182 919 q 330 892 289 928 q 371 790 371 857 l 371 763 l 118 763 q 165 653 122 689 q 267 617 207 617 q 318 625 294 617 q 365 646 342 633 l 372 639 q 300 584 333 604 q 222 544 267 564 m 118 774 l 263 774 l 263 799 q 249 876 263 847 q 196 906 236 906 q 137 872 156 906 q 118 776 118 838 l 118 774 z "},"":{"ha":240,"x_min":28,"x_max":226,"o":"m 86 1088 l 153 1092 l 179 1088 l 183 1043 l 175 1001 l 107 997 l 83 1001 l 78 1050 l 86 1088 m 31 556 l 31 567 l 78 572 l 78 892 l 29 883 l 28 894 l 168 924 l 179 924 l 179 572 l 226 567 l 226 556 l 31 556 z "},"":{"ha":239,"x_min":28,"x_max":225,"o":"m 29 556 l 29 567 l 76 572 l 76 1072 l 29 1065 l 28 1078 l 167 1100 l 178 1100 l 178 572 l 225 567 l 225 556 l 29 556 z "},"":{"ha":726,"x_min":28,"x_max":713,"o":"m 214 556 l 31 556 l 31 567 l 78 572 l 78 893 l 29 885 l 28 894 l 168 924 l 179 924 l 179 842 l 324 928 q 369 922 353 928 q 394 906 385 915 q 412 882 406 894 q 419 842 418 869 l 563 928 q 608 922 593 928 q 633 906 624 915 q 653 876 649 893 q 658 817 658 858 l 658 572 l 713 567 l 713 556 l 519 556 l 519 567 l 553 572 l 553 818 q 542 860 553 849 q 510 871 532 871 q 474 863 492 871 q 442 844 457 854 l 419 831 l 419 572 l 454 567 l 454 556 l 279 556 l 279 567 l 314 572 l 314 818 q 303 860 314 849 q 269 871 293 871 q 234 863 251 871 q 201 844 217 854 l 179 831 l 179 572 l 214 567 l 214 556 z "},"":{"ha":450,"x_min":28,"x_max":422,"o":"m 214 907 q 136 754 136 907 q 165 614 136 664 q 235 564 193 564 q 314 715 314 564 q 285 859 314 811 q 214 907 257 907 m 210 544 q 138 558 171 544 q 80 594 104 571 q 42 652 56 618 q 28 726 28 686 q 44 806 28 772 q 88 863 60 839 q 155 903 117 888 q 239 928 193 918 q 312 914 278 928 q 370 876 346 900 q 408 819 394 853 q 422 746 422 785 q 406 666 422 700 q 362 608 390 632 q 294 569 333 585 q 210 544 256 554 z "},"":{"ha":329,"x_min":28,"x_max":315,"o":"m 31 556 l 31 567 l 78 572 l 78 893 l 29 885 l 28 894 l 163 924 l 174 924 l 178 799 l 254 924 l 315 924 l 315 826 l 213 826 l 179 783 l 179 572 l 251 567 l 251 556 l 31 556 z "},"":{"ha":340,"x_min":28,"x_max":313,"o":"m 233 886 q 199 906 215 901 q 164 911 183 911 q 124 899 140 911 q 108 865 108 886 q 124 831 108 844 q 171 799 140 817 l 249 753 q 299 712 285 732 q 313 663 313 692 q 278 591 313 622 q 168 543 243 560 q 92 553 129 543 q 29 574 54 563 l 29 682 l 42 682 l 89 594 q 126 569 108 579 q 168 560 143 560 q 216 574 200 560 q 232 608 232 589 q 217 647 232 633 q 169 681 201 661 l 93 726 q 49 761 69 742 q 28 817 28 781 q 168 928 28 894 q 241 920 213 928 q 297 901 269 913 l 297 799 l 285 799 l 233 886 z "},"":{"ha":294,"x_min":7,"x_max":288,"o":"m 7 897 l 7 908 l 64 908 l 64 963 l 165 1015 l 165 908 l 276 908 l 276 897 l 165 897 l 165 646 q 178 610 165 622 q 214 599 192 599 q 249 603 233 599 q 283 617 264 608 l 288 607 l 157 544 q 84 571 104 544 q 64 642 64 597 l 64 897 l 7 897 z "},"":{"ha":951,"x_min":69,"x_max":882,"o":"m 882 639 l 878 582 l 867 533 l 850 490 l 846 274 l 817 264 l 747 361 l 710 351 l 683 157 l 639 163 l 629 157 l 624 26 l 665 0 l 688 -19 l 683 -40 l 642 -39 l 608 -14 l 589 -14 l 578 -3 l 588 103 l 582 168 l 497 169 l 493 97 l 490 19 l 490 -8 l 469 -17 l 458 -8 l 417 -22 l 372 -22 l 371 -7 l 386 8 l 456 38 l 447 171 l 311 163 l 107 357 l 101 517 l 83 531 l 69 581 l 69 617 l 90 628 l 86 736 l 214 650 l 226 715 l 240 765 l 271 814 l 310 863 l 364 903 l 419 924 l 472 943 l 503 943 l 408 974 l 414 997 l 424 997 l 533 969 l 528 1040 l 550 1057 l 594 1057 l 621 1050 l 661 1015 l 706 1004 l 750 990 l 771 972 l 771 944 l 743 901 l 785 863 l 824 818 l 849 771 l 869 714 l 882 639 m 729 554 l 724 564 l 439 564 l 347 560 l 338 547 l 329 486 l 263 514 l 247 508 l 326 471 l 328 408 l 321 307 l 321 181 l 346 186 l 349 242 l 406 238 l 410 250 l 349 258 l 349 281 l 415 272 l 417 285 l 351 294 l 353 325 l 413 321 l 417 329 l 354 342 l 358 472 l 461 472 l 476 486 l 367 486 l 369 499 l 472 499 l 483 508 l 369 508 l 372 539 l 535 544 l 729 539 l 729 554 m 286 790 l 326 807 l 344 786 l 321 758 l 307 754 l 331 750 l 338 750 l 388 783 l 432 783 l 457 767 l 468 771 l 474 790 l 483 797 l 497 792 l 497 767 l 508 767 l 522 797 l 538 808 l 531 817 l 526 828 l 528 857 l 486 843 l 472 832 l 461 839 l 467 868 l 486 882 l 501 897 l 554 894 l 571 913 l 565 924 l 497 924 l 435 906 l 361 869 l 321 838 l 286 790 m 856 646 l 844 697 l 818 767 l 790 817 l 758 856 l 711 885 l 696 885 l 719 858 l 754 844 l 769 829 l 774 783 l 739 801 l 718 761 l 735 750 l 735 724 l 756 728 l 739 764 l 760 757 l 774 729 l 767 713 l 756 703 l 724 703 l 719 718 l 703 721 l 704 690 l 685 690 l 704 665 l 694 651 l 665 658 l 661 621 l 718 629 l 729 653 l 760 650 l 768 611 l 746 593 l 746 572 l 757 564 l 782 581 l 814 581 l 822 596 l 797 604 l 790 617 l 803 675 l 813 675 l 832 647 l 856 646 m 142 603 l 221 558 l 231 572 l 136 625 l 136 650 l 218 603 l 278 564 l 317 544 l 321 558 l 178 647 l 160 657 l 103 703 l 106 594 l 132 571 l 132 564 l 103 564 l 129 544 l 131 529 l 103 539 l 128 514 l 122 504 l 126 369 l 142 353 l 142 603 m 710 460 l 635 461 l 633 428 l 633 419 l 631 376 l 657 372 l 646 288 l 579 292 l 568 283 l 639 276 l 636 264 l 568 264 l 563 257 l 636 247 l 628 199 l 665 197 l 682 307 l 688 357 l 667 361 l 665 372 l 693 374 l 700 378 l 661 400 l 664 407 l 706 399 l 664 419 l 671 426 l 700 419 l 706 433 l 710 460 m 286 460 l 194 514 l 194 504 l 192 486 l 193 449 l 193 382 l 282 321 l 281 404 l 286 460 m 528 297 l 439 303 l 439 232 l 528 224 l 528 297 m 739 425 l 750 417 l 761 419 l 789 440 l 807 458 l 822 483 l 813 490 l 793 490 l 779 494 l 760 504 l 736 500 q 732 467 733 482 q 728 443 729 454 q 728 433 728 432 l 739 425 m 594 813 l 601 804 l 628 819 l 639 817 l 647 783 l 665 783 l 674 792 l 661 817 l 685 856 l 664 868 l 664 875 l 629 885 l 629 857 l 611 850 l 611 838 l 599 829 l 594 813 m 601 467 l 607 508 l 532 515 l 528 467 l 601 467 m 508 632 l 499 617 l 482 617 l 475 626 l 490 638 l 469 640 l 469 649 l 438 654 l 442 631 l 453 611 l 481 599 l 499 597 l 524 611 l 532 624 l 539 651 l 497 654 l 507 647 l 508 632 m 818 433 l 810 429 l 764 392 l 818 325 l 818 433 m 339 631 l 340 636 l 360 639 l 342 647 l 344 657 l 317 656 l 321 629 l 340 608 l 357 600 l 372 607 l 394 624 l 403 640 l 406 658 l 375 653 l 383 639 l 367 621 l 347 619 l 339 631 m 547 390 l 447 400 l 439 382 l 547 376 l 547 390 m 286 282 l 183 351 l 211 319 l 281 263 l 286 282 m 547 433 l 446 433 l 446 419 l 547 419 l 547 433 m 533 356 l 439 361 l 439 347 l 533 347 l 533 356 m 715 499 l 649 499 l 649 481 l 710 486 l 715 499 m 488 722 l 482 706 l 550 682 l 554 688 l 488 722 m 297 692 l 379 708 l 374 725 l 297 692 m 575 892 l 564 879 l 564 853 l 581 844 l 585 868 l 575 892 m 682 736 l 671 731 l 671 718 l 682 714 l 685 724 l 682 736 m 783 536 l 790 546 l 790 556 l 776 550 l 776 536 l 783 536 z "},"ﬀ":{"ha":851,"x_min":35,"x_max":886,"o":"m 35 0 l 35 14 l 125 22 l 125 626 l 35 626 l 35 640 l 125 640 l 125 647 q 128 706 125 681 q 138 753 131 732 q 158 792 146 774 q 188 828 169 810 l 329 971 l 538 971 l 426 865 l 274 865 l 269 849 q 263 821 265 835 q 258 789 260 807 q 257 745 257 771 q 257 683 257 719 l 257 640 l 535 640 l 535 656 q 548 765 535 724 q 597 843 561 807 l 739 986 l 886 986 l 886 882 l 683 882 l 678 864 q 672 836 674 850 q 668 804 669 822 q 667 760 667 786 q 667 699 667 735 l 667 640 l 838 640 l 838 626 l 667 626 l 667 22 l 811 14 l 811 0 l 447 0 l 447 14 l 535 22 l 535 626 l 257 626 l 257 22 l 399 14 l 399 0 l 35 0 z "},"ﬁ":{"ha":781,"x_min":35,"x_max":753,"o":"m 35 640 l 125 640 l 125 656 q 138 765 125 724 q 188 843 151 807 l 329 986 l 676 986 l 676 839 l 663 839 l 543 882 l 274 882 l 269 864 q 263 836 265 850 q 258 804 260 822 q 257 760 257 786 q 257 699 257 735 l 257 640 l 535 640 l 653 661 l 667 661 l 667 22 l 753 14 l 753 0 l 447 0 l 447 14 l 535 22 l 535 626 l 257 626 l 257 22 l 399 14 l 399 0 l 35 0 l 35 14 l 125 22 l 125 626 l 35 626 l 35 640 z "},"ﬂ":{"ha":774,"x_min":35,"x_max":753,"o":"m 533 640 l 533 882 l 274 882 l 269 864 q 263 836 265 850 q 258 804 260 822 q 257 760 257 786 q 257 699 257 735 l 257 640 l 533 640 m 399 0 l 39 0 l 39 14 l 125 22 l 125 626 l 35 626 l 35 640 l 125 640 l 125 656 q 138 765 125 724 q 188 843 151 807 l 329 986 l 665 986 l 665 22 l 753 14 l 753 0 l 447 0 l 447 14 l 533 22 l 533 626 l 257 626 l 257 22 l 399 14 l 399 0 z "},"ﬃ":{"ha":1190,"x_min":35,"x_max":1163,"o":"m 399 0 l 35 0 l 35 14 l 125 22 l 125 626 l 35 626 l 35 640 l 125 640 l 125 647 q 128 706 125 681 q 138 753 131 732 q 158 792 146 774 q 188 828 169 810 l 329 971 l 538 971 l 426 865 l 274 865 l 269 849 q 263 821 265 835 q 258 789 260 807 q 257 745 257 771 q 257 683 257 719 l 257 640 l 535 640 l 535 656 q 548 765 535 724 q 597 843 561 807 l 739 986 l 1086 986 l 1086 839 l 1072 839 l 951 882 l 683 882 l 678 864 q 672 836 674 850 q 668 804 669 822 q 667 760 667 786 q 667 699 667 735 l 667 640 l 944 640 l 1061 661 l 1075 661 l 1075 22 l 1163 14 l 1163 0 l 857 0 l 857 14 l 943 22 l 943 626 l 667 626 l 667 22 l 808 14 l 808 0 l 444 0 l 444 14 l 535 22 l 535 626 l 257 626 l 257 22 l 399 14 l 399 0 z "},"ﬄ":{"ha":1182,"x_min":35,"x_max":1161,"o":"m 943 640 l 943 882 l 683 882 l 678 864 q 671 836 674 850 q 667 804 668 822 q 666 760 667 786 q 665 699 665 735 l 665 640 l 943 640 m 399 0 l 35 0 l 35 14 l 125 22 l 125 626 l 35 626 l 35 640 l 125 640 l 125 647 q 128 706 125 681 q 138 753 131 732 q 158 792 146 774 q 188 828 169 810 l 329 971 l 540 971 l 431 865 l 274 865 l 269 849 q 263 821 265 835 q 258 789 260 807 q 257 745 257 771 q 257 683 257 719 l 257 640 l 533 640 l 533 656 q 547 765 533 724 q 597 843 560 807 l 739 986 l 1075 986 l 1075 22 l 1161 14 l 1161 0 l 856 0 l 856 14 l 943 22 l 943 626 l 665 626 l 665 22 l 807 14 l 807 0 l 447 0 l 447 14 l 533 22 l 533 626 l 257 626 l 257 22 l 399 14 l 399 0 z "}}}
